%TF.GenerationSoftware,KiCad,Pcbnew,8.0.7*%
%TF.CreationDate,2025-01-06T20:38:14+08:00*%
%TF.ProjectId,Inductance Meter V2-0,496e6475-6374-4616-9e63-65204d657465,rev?*%
%TF.SameCoordinates,Original*%
%TF.FileFunction,Profile,NP*%
%FSLAX46Y46*%
G04 Gerber Fmt 4.6, Leading zero omitted, Abs format (unit mm)*
G04 Created by KiCad (PCBNEW 8.0.7) date 2025-01-06 20:38:14*
%MOMM*%
%LPD*%
G01*
G04 APERTURE LIST*
%TA.AperFunction,Profile*%
%ADD10C,0.038100*%
%TD*%
%ADD11C,0.350000*%
%ADD12O,0.700024X1.199998*%
G04 APERTURE END LIST*
D10*
X194050000Y-115150000D02*
G75*
G02*
X196050000Y-117150000I0J-2000000D01*
G01*
X193050000Y-115150000D02*
G75*
G02*
X191050000Y-113150000I0J2000000D01*
G01*
X191050000Y-100150000D02*
G75*
G02*
X193050000Y-98150000I2000000J0D01*
G01*
X191050000Y-113150000D02*
X191050000Y-100150000D01*
X107050000Y-143150000D02*
G75*
G02*
X102050000Y-138150000I0J5000000D01*
G01*
X191050000Y-44150000D02*
G75*
G02*
X196050000Y-49150000I0J-5000000D01*
G01*
X191050000Y-44150000D02*
X107050000Y-44150000D01*
X196050000Y-96150000D02*
X196050000Y-49150000D01*
X193050000Y-98150000D02*
X194050000Y-98150000D01*
X196050000Y-96150000D02*
G75*
G02*
X194050000Y-98150000I-2000000J0D01*
G01*
X196050000Y-138150000D02*
G75*
G02*
X191050000Y-143150000I-5000000J0D01*
G01*
X107050000Y-143150000D02*
X191050000Y-143150000D01*
X102050000Y-49150000D02*
X102050000Y-138150000D01*
X102050000Y-49150000D02*
G75*
G02*
X107050000Y-44150000I5000000J0D01*
G01*
X194050000Y-115150000D02*
X193050000Y-115150000D01*
X196050000Y-138150000D02*
X196050000Y-117150000D01*
D11*
X104650000Y-49150000D03*
X105352944Y-47452944D03*
X105352944Y-50847056D03*
X107050000Y-46750000D03*
X107050000Y-49150000D03*
X107050000Y-51550000D03*
X108747056Y-47452944D03*
X108747056Y-50847056D03*
X109450000Y-49150000D03*
X188650000Y-138150000D03*
X189352944Y-136452944D03*
X189352944Y-139847056D03*
X191050000Y-135750000D03*
X191050000Y-138150000D03*
X191050000Y-140550000D03*
X192747056Y-136452944D03*
X192747056Y-139847056D03*
X193450000Y-138150000D03*
X165850000Y-127090000D03*
X165850000Y-122010000D03*
X104650000Y-138150000D03*
X105352944Y-136452944D03*
X105352944Y-139847056D03*
X107050000Y-135750000D03*
X107050000Y-138150000D03*
X107050000Y-140550000D03*
X108747056Y-136452944D03*
X108747056Y-139847056D03*
X109450000Y-138150000D03*
X177545837Y-110048049D03*
X177545837Y-103448049D03*
X184145837Y-103448049D03*
X184145837Y-110048049D03*
X180845837Y-106748049D03*
X165850000Y-138300000D03*
X165850000Y-110800000D03*
X179257500Y-124477500D03*
X179257500Y-129557500D03*
D12*
X117680000Y-136862500D03*
X117680000Y-140672500D03*
X126320000Y-136862500D03*
X126320000Y-140672500D03*
D11*
X179450000Y-115900000D03*
X179450000Y-138400000D03*
X173230000Y-100910000D03*
X170690000Y-100910000D03*
X163070000Y-100910000D03*
X163070000Y-105990000D03*
X170690000Y-105990000D03*
X173230000Y-105990000D03*
X165850000Y-113300000D03*
X165850000Y-135800000D03*
X188650000Y-49150000D03*
X189352944Y-47452944D03*
X189352944Y-50847056D03*
X191050000Y-46750000D03*
X191050000Y-49150000D03*
X191050000Y-51550000D03*
X192747056Y-47452944D03*
X192747056Y-50847056D03*
X193450000Y-49150000D03*
X181750000Y-95150000D03*
X181750000Y-52050000D03*
X116150000Y-95150000D03*
X116150000Y-52050000D03*
X182150000Y-69650000D03*
X182150000Y-72150000D03*
X182150000Y-74650000D03*
X182150000Y-77150000D03*
X145300000Y-52150000D03*
X147800000Y-52150000D03*
X150300000Y-52150000D03*
X152800000Y-52150000D03*
X191000000Y-118460000D03*
X191000000Y-121000000D03*
M02*
