%TF.GenerationSoftware,KiCad,Pcbnew,8.0.7*%
%TF.CreationDate,2025-01-06T20:38:14+08:00*%
%TF.ProjectId,Inductance Meter V2-0,496e6475-6374-4616-9e63-65204d657465,rev?*%
%TF.SameCoordinates,Original*%
%TF.FileFunction,Legend,Bot*%
%TF.FilePolarity,Positive*%
%FSLAX46Y46*%
G04 Gerber Fmt 4.6, Leading zero omitted, Abs format (unit mm)*
G04 Created by KiCad (PCBNEW 8.0.7) date 2025-01-06 20:38:14*
%MOMM*%
%LPD*%
G01*
G04 APERTURE LIST*
%ADD10C,0.152400*%
%ADD11C,0.352400*%
%ADD12C,0.120000*%
%ADD13C,0.000000*%
%ADD14C,0.250000*%
%ADD15C,0.150000*%
%ADD16C,0.350000*%
%ADD17O,0.700024X1.199998*%
G04 APERTURE END LIST*
D10*
X105050000Y-80010000D02*
X111100000Y-80010000D01*
X111100000Y-88590000D01*
X105050000Y-88590000D01*
X105050000Y-80010000D01*
X109550001Y-105150001D02*
X105550001Y-102650001D01*
X109550001Y-100150001D01*
X109550001Y-105150001D01*
G36*
X109550001Y-105150001D02*
G01*
X105550001Y-102650001D01*
X109550001Y-100150001D01*
X109550001Y-105150001D01*
G37*
X144549999Y-102650001D02*
X140549999Y-105150001D01*
X140549999Y-100150001D01*
X144549999Y-102650001D01*
G36*
X144549999Y-102650001D02*
G01*
X140549999Y-105150001D01*
X140549999Y-100150001D01*
X144549999Y-102650001D01*
G37*
X189000000Y-63600000D02*
X191800000Y-63600000D01*
X191800000Y-68600000D01*
X189000000Y-68600000D01*
X189000000Y-63600000D01*
X189200000Y-69199999D02*
G75*
G02*
X188457888Y-68390816I240000J964999D01*
G01*
X192399999Y-68400000D02*
G75*
G02*
X191796859Y-69193111I-1039999J165000D01*
G01*
X109941394Y-78639803D02*
X109786575Y-78639803D01*
X109786575Y-78639803D02*
X109709165Y-78678508D01*
X109709165Y-78678508D02*
X109631756Y-78755918D01*
X109631756Y-78755918D02*
X109593051Y-78910737D01*
X109593051Y-78910737D02*
X109593051Y-79181670D01*
X109593051Y-79181670D02*
X109631756Y-79336489D01*
X109631756Y-79336489D02*
X109709165Y-79413899D01*
X109709165Y-79413899D02*
X109786575Y-79452603D01*
X109786575Y-79452603D02*
X109941394Y-79452603D01*
X109941394Y-79452603D02*
X110018803Y-79413899D01*
X110018803Y-79413899D02*
X110096213Y-79336489D01*
X110096213Y-79336489D02*
X110134917Y-79181670D01*
X110134917Y-79181670D02*
X110134917Y-78910737D01*
X110134917Y-78910737D02*
X110096213Y-78755918D01*
X110096213Y-78755918D02*
X110018803Y-78678508D01*
X110018803Y-78678508D02*
X109941394Y-78639803D01*
X109244708Y-79452603D02*
X109244708Y-78639803D01*
X109244708Y-78639803D02*
X108780251Y-79452603D01*
X108780251Y-79452603D02*
X108780251Y-78639803D01*
X107812631Y-78601099D02*
X108509317Y-79646127D01*
X107386879Y-78639803D02*
X107232060Y-78639803D01*
X107232060Y-78639803D02*
X107154650Y-78678508D01*
X107154650Y-78678508D02*
X107077241Y-78755918D01*
X107077241Y-78755918D02*
X107038536Y-78910737D01*
X107038536Y-78910737D02*
X107038536Y-79181670D01*
X107038536Y-79181670D02*
X107077241Y-79336489D01*
X107077241Y-79336489D02*
X107154650Y-79413899D01*
X107154650Y-79413899D02*
X107232060Y-79452603D01*
X107232060Y-79452603D02*
X107386879Y-79452603D01*
X107386879Y-79452603D02*
X107464288Y-79413899D01*
X107464288Y-79413899D02*
X107541698Y-79336489D01*
X107541698Y-79336489D02*
X107580402Y-79181670D01*
X107580402Y-79181670D02*
X107580402Y-78910737D01*
X107580402Y-78910737D02*
X107541698Y-78755918D01*
X107541698Y-78755918D02*
X107464288Y-78678508D01*
X107464288Y-78678508D02*
X107386879Y-78639803D01*
X106419259Y-79026851D02*
X106690193Y-79026851D01*
X106690193Y-79452603D02*
X106690193Y-78639803D01*
X106690193Y-78639803D02*
X106303145Y-78639803D01*
X105722573Y-79026851D02*
X105993507Y-79026851D01*
X105993507Y-79452603D02*
X105993507Y-78639803D01*
X105993507Y-78639803D02*
X105606459Y-78639803D01*
X194356213Y-124442603D02*
X194356213Y-123629803D01*
X193969165Y-124442603D02*
X193969165Y-123629803D01*
X193969165Y-123629803D02*
X193504708Y-124442603D01*
X193504708Y-124442603D02*
X193504708Y-123629803D01*
X193117660Y-124442603D02*
X193117660Y-123629803D01*
X193117660Y-123629803D02*
X192924136Y-123629803D01*
X192924136Y-123629803D02*
X192808022Y-123668508D01*
X192808022Y-123668508D02*
X192730612Y-123745918D01*
X192730612Y-123745918D02*
X192691907Y-123823327D01*
X192691907Y-123823327D02*
X192653203Y-123978146D01*
X192653203Y-123978146D02*
X192653203Y-124094260D01*
X192653203Y-124094260D02*
X192691907Y-124249079D01*
X192691907Y-124249079D02*
X192730612Y-124326489D01*
X192730612Y-124326489D02*
X192808022Y-124403899D01*
X192808022Y-124403899D02*
X192924136Y-124442603D01*
X192924136Y-124442603D02*
X193117660Y-124442603D01*
X192304860Y-123629803D02*
X192304860Y-124287784D01*
X192304860Y-124287784D02*
X192266155Y-124365194D01*
X192266155Y-124365194D02*
X192227450Y-124403899D01*
X192227450Y-124403899D02*
X192150041Y-124442603D01*
X192150041Y-124442603D02*
X191995222Y-124442603D01*
X191995222Y-124442603D02*
X191917812Y-124403899D01*
X191917812Y-124403899D02*
X191879107Y-124365194D01*
X191879107Y-124365194D02*
X191840403Y-124287784D01*
X191840403Y-124287784D02*
X191840403Y-123629803D01*
X190988898Y-124365194D02*
X191027602Y-124403899D01*
X191027602Y-124403899D02*
X191143717Y-124442603D01*
X191143717Y-124442603D02*
X191221126Y-124442603D01*
X191221126Y-124442603D02*
X191337240Y-124403899D01*
X191337240Y-124403899D02*
X191414650Y-124326489D01*
X191414650Y-124326489D02*
X191453355Y-124249079D01*
X191453355Y-124249079D02*
X191492059Y-124094260D01*
X191492059Y-124094260D02*
X191492059Y-123978146D01*
X191492059Y-123978146D02*
X191453355Y-123823327D01*
X191453355Y-123823327D02*
X191414650Y-123745918D01*
X191414650Y-123745918D02*
X191337240Y-123668508D01*
X191337240Y-123668508D02*
X191221126Y-123629803D01*
X191221126Y-123629803D02*
X191143717Y-123629803D01*
X191143717Y-123629803D02*
X191027602Y-123668508D01*
X191027602Y-123668508D02*
X190988898Y-123707213D01*
X190756669Y-123629803D02*
X190292212Y-123629803D01*
X190524440Y-124442603D02*
X190524440Y-123629803D01*
X189866460Y-123629803D02*
X189711641Y-123629803D01*
X189711641Y-123629803D02*
X189634231Y-123668508D01*
X189634231Y-123668508D02*
X189556822Y-123745918D01*
X189556822Y-123745918D02*
X189518117Y-123900737D01*
X189518117Y-123900737D02*
X189518117Y-124171670D01*
X189518117Y-124171670D02*
X189556822Y-124326489D01*
X189556822Y-124326489D02*
X189634231Y-124403899D01*
X189634231Y-124403899D02*
X189711641Y-124442603D01*
X189711641Y-124442603D02*
X189866460Y-124442603D01*
X189866460Y-124442603D02*
X189943869Y-124403899D01*
X189943869Y-124403899D02*
X190021279Y-124326489D01*
X190021279Y-124326489D02*
X190059983Y-124171670D01*
X190059983Y-124171670D02*
X190059983Y-123900737D01*
X190059983Y-123900737D02*
X190021279Y-123745918D01*
X190021279Y-123745918D02*
X189943869Y-123668508D01*
X189943869Y-123668508D02*
X189866460Y-123629803D01*
X188705317Y-124442603D02*
X188976250Y-124055556D01*
X189169774Y-124442603D02*
X189169774Y-123629803D01*
X189169774Y-123629803D02*
X188860136Y-123629803D01*
X188860136Y-123629803D02*
X188782726Y-123668508D01*
X188782726Y-123668508D02*
X188744021Y-123707213D01*
X188744021Y-123707213D02*
X188705317Y-123784622D01*
X188705317Y-123784622D02*
X188705317Y-123900737D01*
X188705317Y-123900737D02*
X188744021Y-123978146D01*
X188744021Y-123978146D02*
X188782726Y-124016851D01*
X188782726Y-124016851D02*
X188860136Y-124055556D01*
X188860136Y-124055556D02*
X189169774Y-124055556D01*
X187737698Y-124442603D02*
X187737698Y-123629803D01*
X187350650Y-124442603D02*
X187350650Y-123629803D01*
X187350650Y-123629803D02*
X186886193Y-124442603D01*
X186886193Y-124442603D02*
X186886193Y-123629803D01*
X157536213Y-134372603D02*
X157536213Y-133559803D01*
X157536213Y-133559803D02*
X157265279Y-134140375D01*
X157265279Y-134140375D02*
X156994346Y-133559803D01*
X156994346Y-133559803D02*
X156994346Y-134372603D01*
X156607299Y-133946851D02*
X156336365Y-133946851D01*
X156220251Y-134372603D02*
X156607299Y-134372603D01*
X156607299Y-134372603D02*
X156607299Y-133559803D01*
X156607299Y-133559803D02*
X156220251Y-133559803D01*
X155910613Y-134140375D02*
X155523566Y-134140375D01*
X155988023Y-134372603D02*
X155717090Y-133559803D01*
X155717090Y-133559803D02*
X155446156Y-134372603D01*
X155213927Y-134333899D02*
X155097813Y-134372603D01*
X155097813Y-134372603D02*
X154904289Y-134372603D01*
X154904289Y-134372603D02*
X154826880Y-134333899D01*
X154826880Y-134333899D02*
X154788175Y-134295194D01*
X154788175Y-134295194D02*
X154749470Y-134217784D01*
X154749470Y-134217784D02*
X154749470Y-134140375D01*
X154749470Y-134140375D02*
X154788175Y-134062965D01*
X154788175Y-134062965D02*
X154826880Y-134024260D01*
X154826880Y-134024260D02*
X154904289Y-133985556D01*
X154904289Y-133985556D02*
X155059108Y-133946851D01*
X155059108Y-133946851D02*
X155136518Y-133908146D01*
X155136518Y-133908146D02*
X155175223Y-133869441D01*
X155175223Y-133869441D02*
X155213927Y-133792032D01*
X155213927Y-133792032D02*
X155213927Y-133714622D01*
X155213927Y-133714622D02*
X155175223Y-133637213D01*
X155175223Y-133637213D02*
X155136518Y-133598508D01*
X155136518Y-133598508D02*
X155059108Y-133559803D01*
X155059108Y-133559803D02*
X154865585Y-133559803D01*
X154865585Y-133559803D02*
X154749470Y-133598508D01*
X154401128Y-133559803D02*
X154401128Y-134217784D01*
X154401128Y-134217784D02*
X154362423Y-134295194D01*
X154362423Y-134295194D02*
X154323718Y-134333899D01*
X154323718Y-134333899D02*
X154246309Y-134372603D01*
X154246309Y-134372603D02*
X154091490Y-134372603D01*
X154091490Y-134372603D02*
X154014080Y-134333899D01*
X154014080Y-134333899D02*
X153975375Y-134295194D01*
X153975375Y-134295194D02*
X153936671Y-134217784D01*
X153936671Y-134217784D02*
X153936671Y-133559803D01*
X153085166Y-134372603D02*
X153356099Y-133985556D01*
X153549623Y-134372603D02*
X153549623Y-133559803D01*
X153549623Y-133559803D02*
X153239985Y-133559803D01*
X153239985Y-133559803D02*
X153162575Y-133598508D01*
X153162575Y-133598508D02*
X153123870Y-133637213D01*
X153123870Y-133637213D02*
X153085166Y-133714622D01*
X153085166Y-133714622D02*
X153085166Y-133830737D01*
X153085166Y-133830737D02*
X153123870Y-133908146D01*
X153123870Y-133908146D02*
X153162575Y-133946851D01*
X153162575Y-133946851D02*
X153239985Y-133985556D01*
X153239985Y-133985556D02*
X153549623Y-133985556D01*
X152736823Y-133946851D02*
X152465889Y-133946851D01*
X152349775Y-134372603D02*
X152736823Y-134372603D01*
X152736823Y-134372603D02*
X152736823Y-133559803D01*
X152736823Y-133559803D02*
X152349775Y-133559803D01*
X152001433Y-134372603D02*
X152001433Y-133559803D01*
X152001433Y-133559803D02*
X151730499Y-134140375D01*
X151730499Y-134140375D02*
X151459566Y-133559803D01*
X151459566Y-133559803D02*
X151459566Y-134372603D01*
X151072519Y-133946851D02*
X150801585Y-133946851D01*
X150685471Y-134372603D02*
X151072519Y-134372603D01*
X151072519Y-134372603D02*
X151072519Y-133559803D01*
X151072519Y-133559803D02*
X150685471Y-133559803D01*
X150337129Y-134372603D02*
X150337129Y-133559803D01*
X150337129Y-133559803D02*
X149872672Y-134372603D01*
X149872672Y-134372603D02*
X149872672Y-133559803D01*
X149601738Y-133559803D02*
X149137281Y-133559803D01*
X149369509Y-134372603D02*
X149369509Y-133559803D01*
X157634917Y-118133899D02*
X157518803Y-118172603D01*
X157518803Y-118172603D02*
X157325279Y-118172603D01*
X157325279Y-118172603D02*
X157247870Y-118133899D01*
X157247870Y-118133899D02*
X157209165Y-118095194D01*
X157209165Y-118095194D02*
X157170460Y-118017784D01*
X157170460Y-118017784D02*
X157170460Y-117940375D01*
X157170460Y-117940375D02*
X157209165Y-117862965D01*
X157209165Y-117862965D02*
X157247870Y-117824260D01*
X157247870Y-117824260D02*
X157325279Y-117785556D01*
X157325279Y-117785556D02*
X157480098Y-117746851D01*
X157480098Y-117746851D02*
X157557508Y-117708146D01*
X157557508Y-117708146D02*
X157596213Y-117669441D01*
X157596213Y-117669441D02*
X157634917Y-117592032D01*
X157634917Y-117592032D02*
X157634917Y-117514622D01*
X157634917Y-117514622D02*
X157596213Y-117437213D01*
X157596213Y-117437213D02*
X157557508Y-117398508D01*
X157557508Y-117398508D02*
X157480098Y-117359803D01*
X157480098Y-117359803D02*
X157286575Y-117359803D01*
X157286575Y-117359803D02*
X157170460Y-117398508D01*
X156822118Y-118172603D02*
X156822118Y-117359803D01*
X156822118Y-117359803D02*
X156551184Y-117940375D01*
X156551184Y-117940375D02*
X156280251Y-117359803D01*
X156280251Y-117359803D02*
X156280251Y-118172603D01*
X155893204Y-118172603D02*
X155893204Y-117359803D01*
X155893204Y-117359803D02*
X155699680Y-117359803D01*
X155699680Y-117359803D02*
X155583566Y-117398508D01*
X155583566Y-117398508D02*
X155506156Y-117475918D01*
X155506156Y-117475918D02*
X155467451Y-117553327D01*
X155467451Y-117553327D02*
X155428747Y-117708146D01*
X155428747Y-117708146D02*
X155428747Y-117824260D01*
X155428747Y-117824260D02*
X155467451Y-117979079D01*
X155467451Y-117979079D02*
X155506156Y-118056489D01*
X155506156Y-118056489D02*
X155583566Y-118133899D01*
X155583566Y-118133899D02*
X155699680Y-118172603D01*
X155699680Y-118172603D02*
X155893204Y-118172603D01*
X154461128Y-118172603D02*
X154461128Y-117359803D01*
X154074080Y-118172603D02*
X154074080Y-117359803D01*
X154074080Y-117359803D02*
X153609623Y-118172603D01*
X153609623Y-118172603D02*
X153609623Y-117359803D01*
X153222575Y-118172603D02*
X153222575Y-117359803D01*
X153222575Y-117359803D02*
X153029051Y-117359803D01*
X153029051Y-117359803D02*
X152912937Y-117398508D01*
X152912937Y-117398508D02*
X152835527Y-117475918D01*
X152835527Y-117475918D02*
X152796822Y-117553327D01*
X152796822Y-117553327D02*
X152758118Y-117708146D01*
X152758118Y-117708146D02*
X152758118Y-117824260D01*
X152758118Y-117824260D02*
X152796822Y-117979079D01*
X152796822Y-117979079D02*
X152835527Y-118056489D01*
X152835527Y-118056489D02*
X152912937Y-118133899D01*
X152912937Y-118133899D02*
X153029051Y-118172603D01*
X153029051Y-118172603D02*
X153222575Y-118172603D01*
X152409775Y-117359803D02*
X152409775Y-118017784D01*
X152409775Y-118017784D02*
X152371070Y-118095194D01*
X152371070Y-118095194D02*
X152332365Y-118133899D01*
X152332365Y-118133899D02*
X152254956Y-118172603D01*
X152254956Y-118172603D02*
X152100137Y-118172603D01*
X152100137Y-118172603D02*
X152022727Y-118133899D01*
X152022727Y-118133899D02*
X151984022Y-118095194D01*
X151984022Y-118095194D02*
X151945318Y-118017784D01*
X151945318Y-118017784D02*
X151945318Y-117359803D01*
X151093813Y-118095194D02*
X151132517Y-118133899D01*
X151132517Y-118133899D02*
X151248632Y-118172603D01*
X151248632Y-118172603D02*
X151326041Y-118172603D01*
X151326041Y-118172603D02*
X151442155Y-118133899D01*
X151442155Y-118133899D02*
X151519565Y-118056489D01*
X151519565Y-118056489D02*
X151558270Y-117979079D01*
X151558270Y-117979079D02*
X151596974Y-117824260D01*
X151596974Y-117824260D02*
X151596974Y-117708146D01*
X151596974Y-117708146D02*
X151558270Y-117553327D01*
X151558270Y-117553327D02*
X151519565Y-117475918D01*
X151519565Y-117475918D02*
X151442155Y-117398508D01*
X151442155Y-117398508D02*
X151326041Y-117359803D01*
X151326041Y-117359803D02*
X151248632Y-117359803D01*
X151248632Y-117359803D02*
X151132517Y-117398508D01*
X151132517Y-117398508D02*
X151093813Y-117437213D01*
X150861584Y-117359803D02*
X150397127Y-117359803D01*
X150629355Y-118172603D02*
X150629355Y-117359803D01*
X149971375Y-117359803D02*
X149816556Y-117359803D01*
X149816556Y-117359803D02*
X149739146Y-117398508D01*
X149739146Y-117398508D02*
X149661737Y-117475918D01*
X149661737Y-117475918D02*
X149623032Y-117630737D01*
X149623032Y-117630737D02*
X149623032Y-117901670D01*
X149623032Y-117901670D02*
X149661737Y-118056489D01*
X149661737Y-118056489D02*
X149739146Y-118133899D01*
X149739146Y-118133899D02*
X149816556Y-118172603D01*
X149816556Y-118172603D02*
X149971375Y-118172603D01*
X149971375Y-118172603D02*
X150048784Y-118133899D01*
X150048784Y-118133899D02*
X150126194Y-118056489D01*
X150126194Y-118056489D02*
X150164898Y-117901670D01*
X150164898Y-117901670D02*
X150164898Y-117630737D01*
X150164898Y-117630737D02*
X150126194Y-117475918D01*
X150126194Y-117475918D02*
X150048784Y-117398508D01*
X150048784Y-117398508D02*
X149971375Y-117359803D01*
X148810232Y-118172603D02*
X149081165Y-117785556D01*
X149274689Y-118172603D02*
X149274689Y-117359803D01*
X149274689Y-117359803D02*
X148965051Y-117359803D01*
X148965051Y-117359803D02*
X148887641Y-117398508D01*
X148887641Y-117398508D02*
X148848936Y-117437213D01*
X148848936Y-117437213D02*
X148810232Y-117514622D01*
X148810232Y-117514622D02*
X148810232Y-117630737D01*
X148810232Y-117630737D02*
X148848936Y-117708146D01*
X148848936Y-117708146D02*
X148887641Y-117746851D01*
X148887641Y-117746851D02*
X148965051Y-117785556D01*
X148965051Y-117785556D02*
X149274689Y-117785556D01*
D11*
X115386538Y-126960260D02*
X114782272Y-126960260D01*
X114523300Y-127909822D02*
X115386538Y-127909822D01*
X115386538Y-127909822D02*
X115386538Y-126097022D01*
X115386538Y-126097022D02*
X114523300Y-126097022D01*
X113919034Y-126097022D02*
X112710501Y-127909822D01*
X112710501Y-126097022D02*
X113919034Y-127909822D01*
X112019910Y-126960260D02*
X111415644Y-126960260D01*
X111156672Y-127909822D02*
X112019910Y-127909822D01*
X112019910Y-127909822D02*
X112019910Y-126097022D01*
X112019910Y-126097022D02*
X111156672Y-126097022D01*
X109343873Y-127737175D02*
X109430197Y-127823499D01*
X109430197Y-127823499D02*
X109689168Y-127909822D01*
X109689168Y-127909822D02*
X109861816Y-127909822D01*
X109861816Y-127909822D02*
X110120787Y-127823499D01*
X110120787Y-127823499D02*
X110293435Y-127650851D01*
X110293435Y-127650851D02*
X110379758Y-127478203D01*
X110379758Y-127478203D02*
X110466082Y-127132908D01*
X110466082Y-127132908D02*
X110466082Y-126873937D01*
X110466082Y-126873937D02*
X110379758Y-126528641D01*
X110379758Y-126528641D02*
X110293435Y-126355994D01*
X110293435Y-126355994D02*
X110120787Y-126183346D01*
X110120787Y-126183346D02*
X109861816Y-126097022D01*
X109861816Y-126097022D02*
X109689168Y-126097022D01*
X109689168Y-126097022D02*
X109430197Y-126183346D01*
X109430197Y-126183346D02*
X109343873Y-126269670D01*
D10*
X188102603Y-75683786D02*
X187289803Y-75683786D01*
X188102603Y-76070834D02*
X187289803Y-76070834D01*
X187289803Y-76070834D02*
X188102603Y-76535291D01*
X188102603Y-76535291D02*
X187289803Y-76535291D01*
X188102603Y-76922339D02*
X187289803Y-76922339D01*
X187289803Y-76922339D02*
X187289803Y-77115863D01*
X187289803Y-77115863D02*
X187328508Y-77231977D01*
X187328508Y-77231977D02*
X187405918Y-77309387D01*
X187405918Y-77309387D02*
X187483327Y-77348092D01*
X187483327Y-77348092D02*
X187638146Y-77386796D01*
X187638146Y-77386796D02*
X187754260Y-77386796D01*
X187754260Y-77386796D02*
X187909079Y-77348092D01*
X187909079Y-77348092D02*
X187986489Y-77309387D01*
X187986489Y-77309387D02*
X188063899Y-77231977D01*
X188063899Y-77231977D02*
X188102603Y-77115863D01*
X188102603Y-77115863D02*
X188102603Y-76922339D01*
X187289803Y-77735139D02*
X187947784Y-77735139D01*
X187947784Y-77735139D02*
X188025194Y-77773844D01*
X188025194Y-77773844D02*
X188063899Y-77812549D01*
X188063899Y-77812549D02*
X188102603Y-77889958D01*
X188102603Y-77889958D02*
X188102603Y-78044777D01*
X188102603Y-78044777D02*
X188063899Y-78122187D01*
X188063899Y-78122187D02*
X188025194Y-78160892D01*
X188025194Y-78160892D02*
X187947784Y-78199596D01*
X187947784Y-78199596D02*
X187289803Y-78199596D01*
X188025194Y-79051101D02*
X188063899Y-79012397D01*
X188063899Y-79012397D02*
X188102603Y-78896282D01*
X188102603Y-78896282D02*
X188102603Y-78818873D01*
X188102603Y-78818873D02*
X188063899Y-78702759D01*
X188063899Y-78702759D02*
X187986489Y-78625349D01*
X187986489Y-78625349D02*
X187909079Y-78586644D01*
X187909079Y-78586644D02*
X187754260Y-78547940D01*
X187754260Y-78547940D02*
X187638146Y-78547940D01*
X187638146Y-78547940D02*
X187483327Y-78586644D01*
X187483327Y-78586644D02*
X187405918Y-78625349D01*
X187405918Y-78625349D02*
X187328508Y-78702759D01*
X187328508Y-78702759D02*
X187289803Y-78818873D01*
X187289803Y-78818873D02*
X187289803Y-78896282D01*
X187289803Y-78896282D02*
X187328508Y-79012397D01*
X187328508Y-79012397D02*
X187367213Y-79051101D01*
X187289803Y-79283330D02*
X187289803Y-79747787D01*
X188102603Y-79515559D02*
X187289803Y-79515559D01*
X187289803Y-80173539D02*
X187289803Y-80328358D01*
X187289803Y-80328358D02*
X187328508Y-80405768D01*
X187328508Y-80405768D02*
X187405918Y-80483177D01*
X187405918Y-80483177D02*
X187560737Y-80521882D01*
X187560737Y-80521882D02*
X187831670Y-80521882D01*
X187831670Y-80521882D02*
X187986489Y-80483177D01*
X187986489Y-80483177D02*
X188063899Y-80405768D01*
X188063899Y-80405768D02*
X188102603Y-80328358D01*
X188102603Y-80328358D02*
X188102603Y-80173539D01*
X188102603Y-80173539D02*
X188063899Y-80096130D01*
X188063899Y-80096130D02*
X187986489Y-80018720D01*
X187986489Y-80018720D02*
X187831670Y-79980016D01*
X187831670Y-79980016D02*
X187560737Y-79980016D01*
X187560737Y-79980016D02*
X187405918Y-80018720D01*
X187405918Y-80018720D02*
X187328508Y-80096130D01*
X187328508Y-80096130D02*
X187289803Y-80173539D01*
X188102603Y-81334682D02*
X187715556Y-81063749D01*
X188102603Y-80870225D02*
X187289803Y-80870225D01*
X187289803Y-80870225D02*
X187289803Y-81179863D01*
X187289803Y-81179863D02*
X187328508Y-81257273D01*
X187328508Y-81257273D02*
X187367213Y-81295978D01*
X187367213Y-81295978D02*
X187444622Y-81334682D01*
X187444622Y-81334682D02*
X187560737Y-81334682D01*
X187560737Y-81334682D02*
X187638146Y-81295978D01*
X187638146Y-81295978D02*
X187676851Y-81257273D01*
X187676851Y-81257273D02*
X187715556Y-81179863D01*
X187715556Y-81179863D02*
X187715556Y-80870225D01*
X187251099Y-82882873D02*
X188296127Y-82186187D01*
X187289803Y-83927901D02*
X187289803Y-84082720D01*
X187289803Y-84082720D02*
X187328508Y-84160130D01*
X187328508Y-84160130D02*
X187405918Y-84237539D01*
X187405918Y-84237539D02*
X187560737Y-84276244D01*
X187560737Y-84276244D02*
X187831670Y-84276244D01*
X187831670Y-84276244D02*
X187986489Y-84237539D01*
X187986489Y-84237539D02*
X188063899Y-84160130D01*
X188063899Y-84160130D02*
X188102603Y-84082720D01*
X188102603Y-84082720D02*
X188102603Y-83927901D01*
X188102603Y-83927901D02*
X188063899Y-83850492D01*
X188063899Y-83850492D02*
X187986489Y-83773082D01*
X187986489Y-83773082D02*
X187831670Y-83734378D01*
X187831670Y-83734378D02*
X187560737Y-83734378D01*
X187560737Y-83734378D02*
X187405918Y-83773082D01*
X187405918Y-83773082D02*
X187328508Y-83850492D01*
X187328508Y-83850492D02*
X187289803Y-83927901D01*
X188063899Y-84585883D02*
X188102603Y-84701997D01*
X188102603Y-84701997D02*
X188102603Y-84895521D01*
X188102603Y-84895521D02*
X188063899Y-84972930D01*
X188063899Y-84972930D02*
X188025194Y-85011635D01*
X188025194Y-85011635D02*
X187947784Y-85050340D01*
X187947784Y-85050340D02*
X187870375Y-85050340D01*
X187870375Y-85050340D02*
X187792965Y-85011635D01*
X187792965Y-85011635D02*
X187754260Y-84972930D01*
X187754260Y-84972930D02*
X187715556Y-84895521D01*
X187715556Y-84895521D02*
X187676851Y-84740702D01*
X187676851Y-84740702D02*
X187638146Y-84663292D01*
X187638146Y-84663292D02*
X187599441Y-84624587D01*
X187599441Y-84624587D02*
X187522032Y-84585883D01*
X187522032Y-84585883D02*
X187444622Y-84585883D01*
X187444622Y-84585883D02*
X187367213Y-84624587D01*
X187367213Y-84624587D02*
X187328508Y-84663292D01*
X187328508Y-84663292D02*
X187289803Y-84740702D01*
X187289803Y-84740702D02*
X187289803Y-84934225D01*
X187289803Y-84934225D02*
X187328508Y-85050340D01*
X188025194Y-85863139D02*
X188063899Y-85824435D01*
X188063899Y-85824435D02*
X188102603Y-85708320D01*
X188102603Y-85708320D02*
X188102603Y-85630911D01*
X188102603Y-85630911D02*
X188063899Y-85514797D01*
X188063899Y-85514797D02*
X187986489Y-85437387D01*
X187986489Y-85437387D02*
X187909079Y-85398682D01*
X187909079Y-85398682D02*
X187754260Y-85359978D01*
X187754260Y-85359978D02*
X187638146Y-85359978D01*
X187638146Y-85359978D02*
X187483327Y-85398682D01*
X187483327Y-85398682D02*
X187405918Y-85437387D01*
X187405918Y-85437387D02*
X187328508Y-85514797D01*
X187328508Y-85514797D02*
X187289803Y-85630911D01*
X187289803Y-85630911D02*
X187289803Y-85708320D01*
X187289803Y-85708320D02*
X187328508Y-85824435D01*
X187328508Y-85824435D02*
X187367213Y-85863139D01*
X188102603Y-86211482D02*
X187289803Y-86211482D01*
X188102603Y-86985578D02*
X188102603Y-86598530D01*
X188102603Y-86598530D02*
X187289803Y-86598530D01*
X188102603Y-87643559D02*
X188102603Y-87256511D01*
X188102603Y-87256511D02*
X187289803Y-87256511D01*
X187289803Y-88069311D02*
X187289803Y-88224130D01*
X187289803Y-88224130D02*
X187328508Y-88301540D01*
X187328508Y-88301540D02*
X187405918Y-88378949D01*
X187405918Y-88378949D02*
X187560737Y-88417654D01*
X187560737Y-88417654D02*
X187831670Y-88417654D01*
X187831670Y-88417654D02*
X187986489Y-88378949D01*
X187986489Y-88378949D02*
X188063899Y-88301540D01*
X188063899Y-88301540D02*
X188102603Y-88224130D01*
X188102603Y-88224130D02*
X188102603Y-88069311D01*
X188102603Y-88069311D02*
X188063899Y-87991902D01*
X188063899Y-87991902D02*
X187986489Y-87914492D01*
X187986489Y-87914492D02*
X187831670Y-87875788D01*
X187831670Y-87875788D02*
X187560737Y-87875788D01*
X187560737Y-87875788D02*
X187405918Y-87914492D01*
X187405918Y-87914492D02*
X187328508Y-87991902D01*
X187328508Y-87991902D02*
X187289803Y-88069311D01*
X188063899Y-88727293D02*
X188102603Y-88843407D01*
X188102603Y-88843407D02*
X188102603Y-89036931D01*
X188102603Y-89036931D02*
X188063899Y-89114340D01*
X188063899Y-89114340D02*
X188025194Y-89153045D01*
X188025194Y-89153045D02*
X187947784Y-89191750D01*
X187947784Y-89191750D02*
X187870375Y-89191750D01*
X187870375Y-89191750D02*
X187792965Y-89153045D01*
X187792965Y-89153045D02*
X187754260Y-89114340D01*
X187754260Y-89114340D02*
X187715556Y-89036931D01*
X187715556Y-89036931D02*
X187676851Y-88882112D01*
X187676851Y-88882112D02*
X187638146Y-88804702D01*
X187638146Y-88804702D02*
X187599441Y-88765997D01*
X187599441Y-88765997D02*
X187522032Y-88727293D01*
X187522032Y-88727293D02*
X187444622Y-88727293D01*
X187444622Y-88727293D02*
X187367213Y-88765997D01*
X187367213Y-88765997D02*
X187328508Y-88804702D01*
X187328508Y-88804702D02*
X187289803Y-88882112D01*
X187289803Y-88882112D02*
X187289803Y-89075635D01*
X187289803Y-89075635D02*
X187328508Y-89191750D01*
X188025194Y-90004549D02*
X188063899Y-89965845D01*
X188063899Y-89965845D02*
X188102603Y-89849730D01*
X188102603Y-89849730D02*
X188102603Y-89772321D01*
X188102603Y-89772321D02*
X188063899Y-89656207D01*
X188063899Y-89656207D02*
X187986489Y-89578797D01*
X187986489Y-89578797D02*
X187909079Y-89540092D01*
X187909079Y-89540092D02*
X187754260Y-89501388D01*
X187754260Y-89501388D02*
X187638146Y-89501388D01*
X187638146Y-89501388D02*
X187483327Y-89540092D01*
X187483327Y-89540092D02*
X187405918Y-89578797D01*
X187405918Y-89578797D02*
X187328508Y-89656207D01*
X187328508Y-89656207D02*
X187289803Y-89772321D01*
X187289803Y-89772321D02*
X187289803Y-89849730D01*
X187289803Y-89849730D02*
X187328508Y-89965845D01*
X187328508Y-89965845D02*
X187367213Y-90004549D01*
X187289803Y-90507711D02*
X187289803Y-90662530D01*
X187289803Y-90662530D02*
X187328508Y-90739940D01*
X187328508Y-90739940D02*
X187405918Y-90817349D01*
X187405918Y-90817349D02*
X187560737Y-90856054D01*
X187560737Y-90856054D02*
X187831670Y-90856054D01*
X187831670Y-90856054D02*
X187986489Y-90817349D01*
X187986489Y-90817349D02*
X188063899Y-90739940D01*
X188063899Y-90739940D02*
X188102603Y-90662530D01*
X188102603Y-90662530D02*
X188102603Y-90507711D01*
X188102603Y-90507711D02*
X188063899Y-90430302D01*
X188063899Y-90430302D02*
X187986489Y-90352892D01*
X187986489Y-90352892D02*
X187831670Y-90314188D01*
X187831670Y-90314188D02*
X187560737Y-90314188D01*
X187560737Y-90314188D02*
X187405918Y-90352892D01*
X187405918Y-90352892D02*
X187328508Y-90430302D01*
X187328508Y-90430302D02*
X187289803Y-90507711D01*
X188102603Y-91204397D02*
X187289803Y-91204397D01*
X187289803Y-91204397D02*
X187289803Y-91514035D01*
X187289803Y-91514035D02*
X187328508Y-91591445D01*
X187328508Y-91591445D02*
X187367213Y-91630150D01*
X187367213Y-91630150D02*
X187444622Y-91668854D01*
X187444622Y-91668854D02*
X187560737Y-91668854D01*
X187560737Y-91668854D02*
X187638146Y-91630150D01*
X187638146Y-91630150D02*
X187676851Y-91591445D01*
X187676851Y-91591445D02*
X187715556Y-91514035D01*
X187715556Y-91514035D02*
X187715556Y-91204397D01*
X187676851Y-92017197D02*
X187676851Y-92288131D01*
X188102603Y-92404245D02*
X188102603Y-92017197D01*
X188102603Y-92017197D02*
X187289803Y-92017197D01*
X187289803Y-92017197D02*
X187289803Y-92404245D01*
X188102603Y-93371863D02*
X187289803Y-93371863D01*
X188102603Y-93758911D02*
X187289803Y-93758911D01*
X187289803Y-93758911D02*
X188102603Y-94223368D01*
X188102603Y-94223368D02*
X187289803Y-94223368D01*
X186052232Y-88826196D02*
X186095699Y-88951163D01*
X186095699Y-88951163D02*
X186139165Y-88989196D01*
X186139165Y-88989196D02*
X186226099Y-89021796D01*
X186226099Y-89021796D02*
X186356499Y-89005496D01*
X186356499Y-89005496D02*
X186443432Y-88951163D01*
X186443432Y-88951163D02*
X186486899Y-88902263D01*
X186486899Y-88902263D02*
X186530365Y-88809896D01*
X186530365Y-88809896D02*
X186530365Y-88462163D01*
X186530365Y-88462163D02*
X185617565Y-88576263D01*
X185617565Y-88576263D02*
X185617565Y-88880529D01*
X185617565Y-88880529D02*
X185661032Y-88962029D01*
X185661032Y-88962029D02*
X185704499Y-89000063D01*
X185704499Y-89000063D02*
X185791432Y-89032663D01*
X185791432Y-89032663D02*
X185878365Y-89021796D01*
X185878365Y-89021796D02*
X185965299Y-88967463D01*
X185965299Y-88967463D02*
X186008765Y-88918563D01*
X186008765Y-88918563D02*
X186052232Y-88826196D01*
X186052232Y-88826196D02*
X186052232Y-88521929D01*
X186530365Y-89374963D02*
X185617565Y-89489063D01*
X185617565Y-89489063D02*
X186530365Y-89896563D01*
X186530365Y-89896563D02*
X185617565Y-90010663D01*
X186443432Y-90863696D02*
X186486899Y-90814796D01*
X186486899Y-90814796D02*
X186530365Y-90678963D01*
X186530365Y-90678963D02*
X186530365Y-90592030D01*
X186530365Y-90592030D02*
X186486899Y-90467063D01*
X186486899Y-90467063D02*
X186399965Y-90390996D01*
X186399965Y-90390996D02*
X186313032Y-90358396D01*
X186313032Y-90358396D02*
X186139165Y-90336663D01*
X186139165Y-90336663D02*
X186008765Y-90352963D01*
X186008765Y-90352963D02*
X185834899Y-90418163D01*
X185834899Y-90418163D02*
X185747965Y-90472496D01*
X185747965Y-90472496D02*
X185661032Y-90570296D01*
X185661032Y-90570296D02*
X185617565Y-90706130D01*
X185617565Y-90706130D02*
X185617565Y-90793063D01*
X185617565Y-90793063D02*
X185661032Y-90918030D01*
X185661032Y-90918030D02*
X185704499Y-90956063D01*
X185617565Y-92227463D02*
X185617565Y-92401330D01*
X185617565Y-92401330D02*
X185661032Y-92482830D01*
X185661032Y-92482830D02*
X185747965Y-92558897D01*
X185747965Y-92558897D02*
X185921832Y-92580630D01*
X185921832Y-92580630D02*
X186226099Y-92542597D01*
X186226099Y-92542597D02*
X186399965Y-92477397D01*
X186399965Y-92477397D02*
X186486899Y-92379597D01*
X186486899Y-92379597D02*
X186530365Y-92287230D01*
X186530365Y-92287230D02*
X186530365Y-92113363D01*
X186530365Y-92113363D02*
X186486899Y-92031863D01*
X186486899Y-92031863D02*
X186399965Y-91955797D01*
X186399965Y-91955797D02*
X186226099Y-91934063D01*
X186226099Y-91934063D02*
X185921832Y-91972097D01*
X185921832Y-91972097D02*
X185747965Y-92037297D01*
X185747965Y-92037297D02*
X185661032Y-92135097D01*
X185661032Y-92135097D02*
X185617565Y-92227463D01*
X185617565Y-93009864D02*
X186356499Y-92917497D01*
X186356499Y-92917497D02*
X186443432Y-92950097D01*
X186443432Y-92950097D02*
X186486899Y-92988130D01*
X186486899Y-92988130D02*
X186530365Y-93069630D01*
X186530365Y-93069630D02*
X186530365Y-93243497D01*
X186530365Y-93243497D02*
X186486899Y-93335864D01*
X186486899Y-93335864D02*
X186443432Y-93384764D01*
X186443432Y-93384764D02*
X186356499Y-93439097D01*
X186356499Y-93439097D02*
X185617565Y-93531464D01*
X185617565Y-93835731D02*
X185617565Y-94357331D01*
X186530365Y-93982431D02*
X185617565Y-94096531D01*
D12*
%TO.C,D6*%
X189440000Y-65375000D02*
X189440000Y-68235000D01*
X189440000Y-68235000D02*
X191360000Y-68235000D01*
X191360000Y-68235000D02*
X191360000Y-65375000D01*
%TO.C,U8*%
D10*
X184050000Y-49650000D02*
X114050000Y-49650000D01*
X114050000Y-97650000D01*
X184050000Y-97650000D01*
X184050000Y-49650000D01*
%TO.C,L3*%
X146300000Y-118800000D02*
X146300000Y-132800000D01*
X160300000Y-118800000D02*
X160300000Y-132800000D01*
%TO.C,J2*%
X128550001Y-109150000D02*
G75*
G02*
X134550000Y-103150001I7000001J-1000002D01*
G01*
X128550001Y-114150000D02*
G75*
G02*
X128550001Y-106150000I6999999J4000000D01*
G01*
X131550000Y-103150001D02*
G75*
G02*
X139550000Y-103150001I4000000J-6999998D01*
G01*
X134387524Y-117124858D02*
G75*
G02*
X128550001Y-111150000I1162477J6974858D01*
G01*
X136550000Y-103150001D02*
G75*
G02*
X142549999Y-109150000I-1000000J-6999999D01*
G01*
X139550000Y-117149999D02*
G75*
G02*
X131550000Y-117149999I-4000000J6999998D01*
G01*
X142549999Y-106150000D02*
G75*
G02*
X142549999Y-114150000I-6999998J-4000000D01*
G01*
X142549999Y-111150000D02*
G75*
G02*
X136550000Y-117149999I-7000001J1000002D01*
G01*
D13*
%TO.C,G\u002A\u002A\u002A*%
G36*
X186549956Y-95203706D02*
G01*
X186535379Y-95262889D01*
X186500714Y-95356632D01*
X186446847Y-95482372D01*
X186374667Y-95637545D01*
X186332224Y-95727934D01*
X186261184Y-95894514D01*
X186210069Y-96044958D01*
X186174868Y-96194669D01*
X186151572Y-96359050D01*
X186136171Y-96553499D01*
X186131488Y-96670774D01*
X186133098Y-96925759D01*
X186147786Y-97211764D01*
X186174465Y-97520004D01*
X186212049Y-97841692D01*
X186259449Y-98168043D01*
X186315578Y-98490273D01*
X186379352Y-98799598D01*
X186449682Y-99087230D01*
X186491084Y-99237183D01*
X186667394Y-99790913D01*
X186878563Y-100334432D01*
X187126689Y-100872040D01*
X187413874Y-101408042D01*
X187742219Y-101946733D01*
X188113828Y-102492415D01*
X188117186Y-102497106D01*
X188204825Y-102616270D01*
X188313583Y-102759485D01*
X188437325Y-102919063D01*
X188569906Y-103087320D01*
X188705188Y-103256570D01*
X188837030Y-103419129D01*
X188959290Y-103567311D01*
X189065828Y-103693431D01*
X189150500Y-103789803D01*
X189275441Y-103927364D01*
X189216643Y-103700322D01*
X189205981Y-103659068D01*
X189173146Y-103531234D01*
X189140731Y-103404065D01*
X189114422Y-103299848D01*
X189071001Y-103126417D01*
X189146779Y-103005449D01*
X189178192Y-102955330D01*
X189235547Y-102863903D01*
X189284610Y-102785789D01*
X189346663Y-102687096D01*
X189423856Y-102966777D01*
X189437225Y-103015435D01*
X189539536Y-103405745D01*
X189627018Y-103776988D01*
X189704297Y-104149887D01*
X189775996Y-104545168D01*
X189839905Y-104920168D01*
X189744609Y-105123716D01*
X189729006Y-105156666D01*
X189672880Y-105264890D01*
X189622473Y-105337680D01*
X189570144Y-105382060D01*
X189508251Y-105405052D01*
X189429153Y-105413683D01*
X189397373Y-105414541D01*
X189340924Y-105411045D01*
X189286065Y-105396811D01*
X189218857Y-105367480D01*
X189125362Y-105318695D01*
X189062852Y-105282888D01*
X188901275Y-105174222D01*
X188737836Y-105043587D01*
X188719243Y-105027577D01*
X188630650Y-104952955D01*
X188516689Y-104858794D01*
X188386324Y-104752417D01*
X188248510Y-104641147D01*
X188112213Y-104532311D01*
X187923683Y-104382179D01*
X187750099Y-104242532D01*
X187599605Y-104119596D01*
X187464896Y-104007347D01*
X187338672Y-103899762D01*
X187213632Y-103790812D01*
X187071906Y-103666111D01*
X187132411Y-103537109D01*
X187161077Y-103479171D01*
X187199810Y-103409129D01*
X187229655Y-103364305D01*
X187232010Y-103361513D01*
X187254412Y-103340525D01*
X187279971Y-103337598D01*
X187320776Y-103355086D01*
X187388914Y-103395346D01*
X187425310Y-103417940D01*
X187557954Y-103504278D01*
X187717142Y-103612500D01*
X187895343Y-103737136D01*
X188085020Y-103872712D01*
X188278638Y-104013754D01*
X188468664Y-104154792D01*
X188647561Y-104290354D01*
X188807794Y-104414966D01*
X188941829Y-104523157D01*
X189013452Y-104580518D01*
X189124021Y-104663252D01*
X189230664Y-104737241D01*
X189317828Y-104791385D01*
X189479911Y-104882310D01*
X189463115Y-104786655D01*
X189451735Y-104723366D01*
X189424081Y-104583265D01*
X189399594Y-104479457D01*
X189379127Y-104415308D01*
X189363538Y-104394186D01*
X189346297Y-104408288D01*
X189311304Y-104453066D01*
X189268981Y-104517466D01*
X189234459Y-104572689D01*
X189203722Y-104619029D01*
X189189924Y-104635921D01*
X189179867Y-104627275D01*
X189142032Y-104589911D01*
X189082505Y-104529076D01*
X189007462Y-104451247D01*
X188923076Y-104362893D01*
X188835519Y-104270490D01*
X188750965Y-104180511D01*
X188675589Y-104099427D01*
X188615563Y-104033712D01*
X188592692Y-104008228D01*
X188135094Y-103465051D01*
X187716065Y-102901853D01*
X187336610Y-102320689D01*
X186997731Y-101723623D01*
X186700437Y-101112711D01*
X186445733Y-100490011D01*
X186234625Y-99857586D01*
X186068118Y-99217489D01*
X185947219Y-98571782D01*
X185917417Y-98356371D01*
X185872779Y-97880055D01*
X185862229Y-97431226D01*
X185886043Y-97006454D01*
X185944500Y-96602308D01*
X186037871Y-96215354D01*
X186166436Y-95842161D01*
X186167974Y-95838307D01*
X186214154Y-95731700D01*
X186270379Y-95614912D01*
X186331763Y-95496735D01*
X186393416Y-95385964D01*
X186450450Y-95291395D01*
X186497977Y-95221822D01*
X186531110Y-95186040D01*
X186543556Y-95181645D01*
X186549956Y-95203706D01*
G37*
D10*
%TO.C,J4*%
X107550001Y-109150000D02*
G75*
G02*
X113550000Y-103150001I7000001J-1000002D01*
G01*
X107550001Y-114150000D02*
G75*
G02*
X107550001Y-106150000I6999999J4000000D01*
G01*
X110550000Y-103150001D02*
G75*
G02*
X118550000Y-103150001I4000000J-6999998D01*
G01*
X113387524Y-117124858D02*
G75*
G02*
X107550001Y-111150000I1162477J6974858D01*
G01*
X115550000Y-103150001D02*
G75*
G02*
X121549999Y-109150000I-1000000J-6999999D01*
G01*
X118550000Y-117149999D02*
G75*
G02*
X110550000Y-117149999I-4000000J6999998D01*
G01*
X121549999Y-106150000D02*
G75*
G02*
X121549999Y-114150000I-6999998J-4000000D01*
G01*
X121549999Y-111150000D02*
G75*
G02*
X115550000Y-117149999I-7000001J1000002D01*
G01*
D14*
%TO.C,J1*%
X188300000Y-116970000D02*
X194600000Y-116970000D01*
X188300000Y-122530000D02*
X188300000Y-116970000D01*
X188990000Y-122530000D02*
X188990000Y-116970000D01*
X192500000Y-117980000D02*
X192500000Y-118880000D01*
X192500000Y-117980000D02*
X192900000Y-117580000D01*
X192500000Y-118880000D02*
X192900000Y-119280000D01*
X192500000Y-120510000D02*
X192500000Y-121420000D01*
X192500000Y-120510000D02*
X192900000Y-120120000D01*
X192500000Y-121420000D02*
X192900000Y-121820000D01*
X192900000Y-117580000D02*
X192900000Y-117580000D01*
X192900000Y-117580000D02*
X194200000Y-117580000D01*
X192900000Y-120120000D02*
X194200000Y-120120000D01*
X194200000Y-119280000D02*
X192900000Y-119280000D01*
X194200000Y-121820000D02*
X192900000Y-121820000D01*
X194600000Y-116970000D02*
X194600000Y-122530000D01*
X194600000Y-122530000D02*
X188300000Y-122530000D01*
D15*
%TO.C,SW3*%
X106510000Y-86180000D02*
X106510000Y-82120000D01*
X107170000Y-86180000D02*
X106510000Y-86180000D01*
X108930000Y-86180000D02*
X109590000Y-86180000D01*
X109590000Y-86180000D02*
X109590000Y-82120000D01*
D14*
X108950000Y-84150000D02*
G75*
G02*
X107150000Y-84150000I-900000J0D01*
G01*
X107150000Y-84150000D02*
G75*
G02*
X108950000Y-84150000I900000J0D01*
G01*
D10*
%TO.C,J3*%
X118050001Y-125650000D02*
G75*
G02*
X124050000Y-119650001I7000001J-1000002D01*
G01*
X118050001Y-130650000D02*
G75*
G02*
X118050001Y-122650000I6999999J4000000D01*
G01*
X121050000Y-119650001D02*
G75*
G02*
X129050000Y-119650001I4000000J-6999998D01*
G01*
X123887524Y-133624858D02*
G75*
G02*
X118050001Y-127650000I1162477J6974858D01*
G01*
X126050000Y-119650001D02*
G75*
G02*
X132049999Y-125650000I-1000000J-6999999D01*
G01*
X129050000Y-133649999D02*
G75*
G02*
X121050000Y-133649999I-4000000J6999998D01*
G01*
X132049999Y-122650000D02*
G75*
G02*
X132049999Y-130650000I-6999998J-4000000D01*
G01*
X132049999Y-127650000D02*
G75*
G02*
X126050000Y-133649999I-7000001J1000002D01*
G01*
D13*
%TO.C,G\u002A\u002A\u002A*%
G36*
X110628504Y-73034060D02*
G01*
X110628504Y-73088210D01*
X109659679Y-73088210D01*
X108690856Y-73088210D01*
X108694152Y-73036824D01*
X108697450Y-72985436D01*
X109662976Y-72982673D01*
X110628504Y-72979912D01*
X110628504Y-73034060D01*
G37*
G36*
X109931024Y-68654720D02*
G01*
X110065956Y-68655278D01*
X110623096Y-68658135D01*
X110626142Y-68785249D01*
X110629191Y-68912364D01*
X109749864Y-68911876D01*
X108870543Y-68911388D01*
X108932438Y-68854246D01*
X108938832Y-68848438D01*
X109026320Y-68784336D01*
X109131014Y-68732774D01*
X109252360Y-68693980D01*
X109389815Y-68668172D01*
X109391668Y-68667931D01*
X109425144Y-68664207D01*
X109464340Y-68661152D01*
X109511244Y-68658728D01*
X109567847Y-68656893D01*
X109636136Y-68655614D01*
X109718104Y-68654852D01*
X109815736Y-68654567D01*
X109931024Y-68654720D01*
G37*
G36*
X105922568Y-60063037D02*
G01*
X105922568Y-60777041D01*
X106355298Y-60777041D01*
X106788028Y-60777041D01*
X106788028Y-60144174D01*
X106788028Y-59511305D01*
X106874575Y-59511305D01*
X106961120Y-59511305D01*
X106961120Y-60144174D01*
X106961120Y-60777041D01*
X107382953Y-60777041D01*
X107804788Y-60777041D01*
X107807570Y-60071150D01*
X107810354Y-59365259D01*
X107891490Y-59365259D01*
X107972628Y-59365259D01*
X107975402Y-60157696D01*
X107978177Y-60950133D01*
X106863826Y-60950133D01*
X105749476Y-60950133D01*
X105749476Y-60149583D01*
X105749476Y-59349032D01*
X105836021Y-59349032D01*
X105922568Y-59349032D01*
X105922568Y-60063037D01*
G37*
G36*
X105922568Y-64401156D02*
G01*
X105922568Y-65115161D01*
X106355298Y-65115161D01*
X106788028Y-65115161D01*
X106788028Y-64482292D01*
X106788028Y-63849425D01*
X106874575Y-63849425D01*
X106961120Y-63849425D01*
X106961120Y-64482292D01*
X106961120Y-65115161D01*
X107382953Y-65115161D01*
X107804788Y-65115161D01*
X107807570Y-64409271D01*
X107810354Y-63703379D01*
X107891490Y-63703379D01*
X107972628Y-63703379D01*
X107975402Y-64495816D01*
X107978177Y-65288254D01*
X106863826Y-65288254D01*
X105749476Y-65288254D01*
X105749476Y-64487702D01*
X105749476Y-63687151D01*
X105836021Y-63687151D01*
X105922568Y-63687151D01*
X105922568Y-64401156D01*
G37*
G36*
X107978036Y-62383552D02*
G01*
X107978036Y-63243603D01*
X107891490Y-63243603D01*
X107804945Y-63243603D01*
X107804945Y-62859555D01*
X107804945Y-62475507D01*
X106784423Y-62475507D01*
X106743377Y-62475501D01*
X106598181Y-62475386D01*
X106459569Y-62475131D01*
X106329045Y-62474747D01*
X106208116Y-62474244D01*
X106098286Y-62473633D01*
X106001061Y-62472927D01*
X105917945Y-62472132D01*
X105850444Y-62471260D01*
X105800065Y-62470324D01*
X105768312Y-62469330D01*
X105756688Y-62468296D01*
X105755881Y-62466958D01*
X105752626Y-62449402D01*
X105750340Y-62417272D01*
X105749476Y-62376340D01*
X105749476Y-62291596D01*
X106777210Y-62291596D01*
X107804945Y-62291596D01*
X107804945Y-61907548D01*
X107804945Y-61523500D01*
X107891490Y-61523500D01*
X107978036Y-61523500D01*
X107978036Y-62383552D01*
G37*
G36*
X110628504Y-72168659D02*
G01*
X110628504Y-72590569D01*
X109666582Y-72590569D01*
X109592931Y-72590560D01*
X109428601Y-72590452D01*
X109284331Y-72590212D01*
X109159000Y-72589821D01*
X109051493Y-72589267D01*
X108960693Y-72588533D01*
X108885484Y-72587604D01*
X108824743Y-72586464D01*
X108777356Y-72585096D01*
X108742200Y-72583487D01*
X108718164Y-72581618D01*
X108704128Y-72579478D01*
X108698976Y-72577047D01*
X108698858Y-72576683D01*
X108697645Y-72561326D01*
X108696635Y-72527025D01*
X108695848Y-72476251D01*
X108695308Y-72411473D01*
X108695032Y-72335164D01*
X108695047Y-72249797D01*
X108695369Y-72157840D01*
X108697450Y-71752156D01*
X108944492Y-71752156D01*
X109191536Y-71752156D01*
X109193311Y-71892792D01*
X109195086Y-72033430D01*
X109662976Y-72036250D01*
X110130865Y-72039069D01*
X110130865Y-71892908D01*
X110130865Y-71746747D01*
X110379685Y-71746747D01*
X110628504Y-71746747D01*
X110628504Y-72168659D01*
G37*
G36*
X106637980Y-74214453D02*
G01*
X106794571Y-74214686D01*
X106970401Y-74215069D01*
X107166668Y-74215560D01*
X108394540Y-74218716D01*
X108394540Y-74527037D01*
X108394540Y-74835357D01*
X107139622Y-74838338D01*
X105884705Y-74841318D01*
X105806649Y-74802508D01*
X105786220Y-74791856D01*
X105727389Y-74752412D01*
X105682019Y-74704101D01*
X105643776Y-74640628D01*
X105632609Y-74609265D01*
X105624033Y-74564232D01*
X105620167Y-74516283D01*
X105621604Y-74473272D01*
X105628931Y-74443049D01*
X105648112Y-74405328D01*
X105676964Y-74355166D01*
X105704724Y-74317717D01*
X105735216Y-74288145D01*
X105772252Y-74261616D01*
X105781699Y-74255703D01*
X105793705Y-74248956D01*
X105806954Y-74242950D01*
X105822642Y-74237649D01*
X105841972Y-74233010D01*
X105866140Y-74228996D01*
X105896349Y-74225567D01*
X105933797Y-74222681D01*
X105979686Y-74220301D01*
X106035212Y-74218386D01*
X106101578Y-74216898D01*
X106179982Y-74215795D01*
X106271624Y-74215039D01*
X106377705Y-74214589D01*
X106499422Y-74214407D01*
X106637980Y-74214453D01*
G37*
G36*
X109492917Y-75199978D02*
G01*
X109672268Y-75200415D01*
X110623096Y-75203179D01*
X110623096Y-75479044D01*
X110623096Y-75754908D01*
X109672268Y-75757673D01*
X109501624Y-75758094D01*
X109342027Y-75758306D01*
X109202448Y-75758273D01*
X109082053Y-75757988D01*
X108980016Y-75757442D01*
X108895508Y-75756627D01*
X108827688Y-75755535D01*
X108775732Y-75754157D01*
X108738811Y-75752488D01*
X108716092Y-75750515D01*
X108706745Y-75748236D01*
X108704703Y-75745917D01*
X108700308Y-75734285D01*
X108696996Y-75712602D01*
X108694638Y-75678552D01*
X108693111Y-75629821D01*
X108692288Y-75564090D01*
X108692041Y-75479044D01*
X108692076Y-75443351D01*
X108692533Y-75366132D01*
X108693617Y-75307321D01*
X108695453Y-75264604D01*
X108698168Y-75235664D01*
X108701891Y-75218186D01*
X108706745Y-75209853D01*
X108715292Y-75207681D01*
X108737303Y-75205693D01*
X108773475Y-75204008D01*
X108824638Y-75202616D01*
X108891620Y-75201510D01*
X108975250Y-75200681D01*
X109076367Y-75200121D01*
X109195797Y-75199822D01*
X109334370Y-75199779D01*
X109492917Y-75199978D01*
G37*
G36*
X109747834Y-70761660D02*
G01*
X109865554Y-70773516D01*
X109972400Y-70797708D01*
X110073508Y-70835551D01*
X110174026Y-70888354D01*
X110181807Y-70893063D01*
X110222688Y-70919952D01*
X110261589Y-70948612D01*
X110294426Y-70975716D01*
X110317122Y-70997936D01*
X110325594Y-71011948D01*
X110322212Y-71013100D01*
X110300000Y-71015011D01*
X110258142Y-71016728D01*
X110197908Y-71018236D01*
X110120573Y-71019513D01*
X110027411Y-71020538D01*
X109919692Y-71021295D01*
X109798692Y-71021763D01*
X109665680Y-71021923D01*
X109656732Y-71021923D01*
X109539889Y-71021821D01*
X109429848Y-71021553D01*
X109328464Y-71021137D01*
X109237588Y-71020586D01*
X109159078Y-71019916D01*
X109094787Y-71019142D01*
X109046567Y-71018282D01*
X109016276Y-71017350D01*
X109005767Y-71016361D01*
X109014030Y-71003560D01*
X109036722Y-70982223D01*
X109069913Y-70955608D01*
X109109669Y-70926867D01*
X109152058Y-70899151D01*
X109240293Y-70849721D01*
X109337584Y-70808366D01*
X109438203Y-70780584D01*
X109547565Y-70764919D01*
X109671089Y-70759920D01*
X109747834Y-70761660D01*
G37*
G36*
X110628504Y-65493800D02*
G01*
X110628504Y-66337620D01*
X110385094Y-66337620D01*
X110141683Y-66337620D01*
X110141683Y-66056350D01*
X110141683Y-65775074D01*
X109429842Y-65775074D01*
X109399064Y-65775071D01*
X109253410Y-65774940D01*
X109127940Y-65774607D01*
X109021438Y-65774044D01*
X108932685Y-65773234D01*
X108860472Y-65772152D01*
X108803573Y-65770776D01*
X108760776Y-65769088D01*
X108730865Y-65767060D01*
X108712625Y-65764674D01*
X108704836Y-65761906D01*
X108701052Y-65753747D01*
X108697643Y-65732704D01*
X108695360Y-65697561D01*
X108694132Y-65646442D01*
X108693889Y-65577462D01*
X108694560Y-65488745D01*
X108697450Y-65228752D01*
X109416860Y-65223150D01*
X109475350Y-65222687D01*
X109595173Y-65221683D01*
X109707637Y-65220672D01*
X109810961Y-65219672D01*
X109903360Y-65218705D01*
X109983045Y-65217787D01*
X110048235Y-65216941D01*
X110097144Y-65216188D01*
X110127988Y-65215545D01*
X110138980Y-65215036D01*
X110139648Y-65205635D01*
X110140308Y-65177252D01*
X110140868Y-65132748D01*
X110141304Y-65074996D01*
X110141584Y-65006874D01*
X110141683Y-64931250D01*
X110141683Y-64649976D01*
X110385094Y-64649976D01*
X110628504Y-64649976D01*
X110628504Y-65493800D01*
G37*
G36*
X109179337Y-69666736D02*
G01*
X109199224Y-69713373D01*
X109241620Y-69778223D01*
X109297447Y-69828014D01*
X109369468Y-69865642D01*
X109381040Y-69870217D01*
X109394604Y-69875036D01*
X109409289Y-69879085D01*
X109426962Y-69882456D01*
X109449485Y-69885233D01*
X109478723Y-69887507D01*
X109516541Y-69889366D01*
X109564807Y-69890896D01*
X109625382Y-69892184D01*
X109700133Y-69893323D01*
X109790926Y-69894395D01*
X109899624Y-69895490D01*
X110028092Y-69896698D01*
X110623096Y-69902233D01*
X110623096Y-70178100D01*
X110623096Y-70453964D01*
X109995637Y-70453964D01*
X109932486Y-70453960D01*
X109802356Y-70453858D01*
X109691078Y-70453528D01*
X109596716Y-70452834D01*
X109517335Y-70451652D01*
X109450993Y-70449848D01*
X109395756Y-70447289D01*
X109349682Y-70443846D01*
X109310839Y-70439388D01*
X109277285Y-70433783D01*
X109247084Y-70426900D01*
X109218298Y-70418611D01*
X109188990Y-70408779D01*
X109157223Y-70397279D01*
X109088717Y-70368377D01*
X108982833Y-70306091D01*
X108891388Y-70227895D01*
X108814669Y-70134176D01*
X108752974Y-70025323D01*
X108706595Y-69901720D01*
X108675828Y-69763758D01*
X108673897Y-69751248D01*
X108668064Y-69709498D01*
X108664376Y-69676611D01*
X108663562Y-69658823D01*
X108666800Y-69653552D01*
X108676923Y-69649426D01*
X108696388Y-69646276D01*
X108727656Y-69643912D01*
X108773184Y-69642150D01*
X108835431Y-69640804D01*
X108916851Y-69639692D01*
X109168423Y-69636787D01*
X109179337Y-69666736D01*
G37*
G36*
X107975745Y-66100012D02*
G01*
X107978863Y-66181536D01*
X107329128Y-66623278D01*
X106679392Y-67065019D01*
X106795915Y-67144739D01*
X106816376Y-67158717D01*
X106858676Y-67187566D01*
X106915346Y-67226180D01*
X106984340Y-67273164D01*
X107063610Y-67327127D01*
X107151111Y-67386676D01*
X107244796Y-67450416D01*
X107342619Y-67516957D01*
X107442532Y-67584903D01*
X107972628Y-67945349D01*
X107975788Y-68028582D01*
X107978947Y-68111812D01*
X106863757Y-68111812D01*
X105748566Y-68111812D01*
X105751727Y-68027971D01*
X105754885Y-67944131D01*
X106695477Y-67938720D01*
X107636068Y-67933312D01*
X107016896Y-67506771D01*
X106971204Y-67475256D01*
X106864091Y-67401056D01*
X106765046Y-67331992D01*
X106675301Y-67268945D01*
X106596081Y-67212791D01*
X106528616Y-67164409D01*
X106474132Y-67124678D01*
X106433860Y-67094474D01*
X106409024Y-67074678D01*
X106400854Y-67066165D01*
X106408039Y-67059090D01*
X106431484Y-67040668D01*
X106469467Y-67012451D01*
X106520206Y-66975718D01*
X106581920Y-66931747D01*
X106652824Y-66881814D01*
X106731136Y-66827200D01*
X106815074Y-66769184D01*
X106855649Y-66741257D01*
X106950538Y-66675933D01*
X107046472Y-66609870D01*
X107140303Y-66545237D01*
X107228888Y-66484200D01*
X107309082Y-66428925D01*
X107377738Y-66381578D01*
X107431715Y-66344328D01*
X107637261Y-66202391D01*
X106696072Y-66196982D01*
X105754885Y-66191572D01*
X105754885Y-66105032D01*
X105754885Y-66018484D01*
X106863757Y-66018484D01*
X107972628Y-66018484D01*
X107975745Y-66100012D01*
G37*
G36*
X109176262Y-57047448D02*
G01*
X109179072Y-57553202D01*
X109314193Y-57553202D01*
X109449316Y-57553202D01*
X109449316Y-57099992D01*
X109449369Y-56999552D01*
X109449601Y-56905340D01*
X109450083Y-56829155D01*
X109450886Y-56769088D01*
X109452082Y-56723231D01*
X109453740Y-56689670D01*
X109455934Y-56666498D01*
X109458731Y-56651806D01*
X109462204Y-56643683D01*
X109466427Y-56640216D01*
X109482996Y-56637174D01*
X109517245Y-56634760D01*
X109563876Y-56633366D01*
X109618640Y-56632924D01*
X109677283Y-56633373D01*
X109735553Y-56634643D01*
X109789201Y-56636672D01*
X109833973Y-56639388D01*
X109865616Y-56642732D01*
X109879882Y-56646632D01*
X109882488Y-56652458D01*
X109885479Y-56670688D01*
X109887901Y-56702116D01*
X109889792Y-56748143D01*
X109891196Y-56810180D01*
X109892148Y-56889633D01*
X109892692Y-56987907D01*
X109892864Y-57106408D01*
X109892864Y-57553202D01*
X110022576Y-57553202D01*
X110152285Y-57553202D01*
X110155098Y-57052856D01*
X110157911Y-56552513D01*
X110390504Y-56552513D01*
X110623096Y-56552513D01*
X110623096Y-57326018D01*
X110623096Y-58099524D01*
X109666355Y-58102288D01*
X109588221Y-58102502D01*
X109425107Y-58102862D01*
X109281995Y-58103032D01*
X109157746Y-58103001D01*
X109051226Y-58102752D01*
X108961300Y-58102276D01*
X108886834Y-58101557D01*
X108826682Y-58100585D01*
X108779715Y-58099347D01*
X108744796Y-58097827D01*
X108720786Y-58096017D01*
X108706551Y-58093902D01*
X108700955Y-58091470D01*
X108699864Y-58083401D01*
X108698575Y-58055101D01*
X108697438Y-58008280D01*
X108696465Y-57944700D01*
X108695672Y-57866118D01*
X108695072Y-57774296D01*
X108694677Y-57670992D01*
X108694504Y-57557968D01*
X108694563Y-57436980D01*
X108694871Y-57309790D01*
X108697450Y-56541694D01*
X108935448Y-56541694D01*
X109173450Y-56541694D01*
X109176262Y-57047448D01*
G37*
G36*
X109663916Y-73834673D02*
G01*
X109763550Y-73834764D01*
X109844522Y-73835046D01*
X109908956Y-73835617D01*
X109958973Y-73836577D01*
X109996692Y-73838025D01*
X110024239Y-73840063D01*
X110043731Y-73842785D01*
X110057292Y-73846296D01*
X110067042Y-73850692D01*
X110075104Y-73856073D01*
X110078559Y-73858684D01*
X110099343Y-73874680D01*
X110133980Y-73901542D01*
X110180091Y-73937413D01*
X110235295Y-73980441D01*
X110297212Y-74028772D01*
X110363456Y-74080552D01*
X110623096Y-74283628D01*
X110625996Y-74540560D01*
X110628896Y-74797495D01*
X109667679Y-74797495D01*
X109533319Y-74797422D01*
X109396770Y-74797193D01*
X109267889Y-74796821D01*
X109148223Y-74796317D01*
X109039328Y-74795695D01*
X108942756Y-74794961D01*
X108860063Y-74794135D01*
X108792792Y-74793220D01*
X108742500Y-74792235D01*
X108710741Y-74791189D01*
X108699065Y-74790095D01*
X108697691Y-74783755D01*
X108696028Y-74758297D01*
X108694832Y-74716363D01*
X108694154Y-74661017D01*
X108694046Y-74595321D01*
X108694558Y-74522342D01*
X108697450Y-74261990D01*
X109195086Y-74256580D01*
X109319179Y-74255024D01*
X109431516Y-74253133D01*
X109524048Y-74251006D01*
X109596408Y-74248652D01*
X109648232Y-74246083D01*
X109679154Y-74243313D01*
X109688805Y-74240354D01*
X109685080Y-74236254D01*
X109666739Y-74220189D01*
X109635524Y-74194348D01*
X109594109Y-74160823D01*
X109545164Y-74121710D01*
X109491360Y-74079107D01*
X109435375Y-74035112D01*
X109379873Y-73991820D01*
X109327532Y-73951328D01*
X109281022Y-73915733D01*
X109243015Y-73887133D01*
X109216184Y-73867624D01*
X109203199Y-73859300D01*
X109201211Y-73858498D01*
X109190973Y-73852660D01*
X109191788Y-73847800D01*
X109204976Y-73843846D01*
X109231861Y-73840715D01*
X109273764Y-73838328D01*
X109332012Y-73836611D01*
X109407923Y-73835480D01*
X109502821Y-73834858D01*
X109618032Y-73834668D01*
X109663916Y-73834673D01*
G37*
G36*
X105769132Y-56952157D02*
G01*
X105792486Y-56968739D01*
X105829359Y-56995772D01*
X105877806Y-57031776D01*
X105935889Y-57075279D01*
X106001665Y-57124804D01*
X106073187Y-57178872D01*
X106148516Y-57236012D01*
X106225710Y-57294743D01*
X106302823Y-57353593D01*
X106377916Y-57411083D01*
X106449044Y-57465738D01*
X106514265Y-57516082D01*
X106571637Y-57560638D01*
X106619217Y-57597932D01*
X106655063Y-57626485D01*
X106700599Y-57663266D01*
X106706707Y-57632574D01*
X106735249Y-57517740D01*
X106781142Y-57395261D01*
X106839500Y-57289242D01*
X106909912Y-57200178D01*
X106991975Y-57128574D01*
X107085280Y-57074928D01*
X107189420Y-57039740D01*
X107265592Y-57026557D01*
X107377076Y-57024155D01*
X107485097Y-57041444D01*
X107587102Y-57077692D01*
X107680536Y-57132168D01*
X107762844Y-57204140D01*
X107777997Y-57220716D01*
X107847154Y-57313228D01*
X107901676Y-57418751D01*
X107942914Y-57539801D01*
X107971391Y-57645157D01*
X107975495Y-58199592D01*
X107979600Y-58754028D01*
X107323532Y-58754028D01*
X106864537Y-58754028D01*
X105749476Y-58754028D01*
X105749476Y-58667482D01*
X105749476Y-58580936D01*
X106209398Y-58580936D01*
X106669320Y-58580936D01*
X106666470Y-58221707D01*
X106665969Y-58158567D01*
X106842120Y-58158567D01*
X106842120Y-58580936D01*
X107323532Y-58580936D01*
X107804945Y-58580936D01*
X107804945Y-58149156D01*
X107804892Y-58085528D01*
X107804463Y-57975529D01*
X107803550Y-57884180D01*
X107802095Y-57809505D01*
X107800039Y-57749527D01*
X107797322Y-57702268D01*
X107793884Y-57665748D01*
X107789671Y-57637995D01*
X107784888Y-57614700D01*
X107752421Y-57504033D01*
X107707341Y-57410422D01*
X107649992Y-57334175D01*
X107580726Y-57275599D01*
X107499885Y-57235001D01*
X107407821Y-57212690D01*
X107304880Y-57208973D01*
X107265259Y-57212528D01*
X107173592Y-57234256D01*
X107091684Y-57274921D01*
X107017781Y-57335297D01*
X107006692Y-57346953D01*
X106959052Y-57409849D01*
X106916287Y-57486222D01*
X106881724Y-57569425D01*
X106858695Y-57652814D01*
X106858564Y-57653476D01*
X106854104Y-57680493D01*
X106850480Y-57713308D01*
X106847616Y-57754175D01*
X106845440Y-57805364D01*
X106843876Y-57869134D01*
X106842851Y-57947749D01*
X106842290Y-58043472D01*
X106842120Y-58158567D01*
X106665969Y-58158567D01*
X106663619Y-57862478D01*
X106206548Y-57512182D01*
X105749476Y-57161885D01*
X105749476Y-57054633D01*
X105749524Y-57041894D01*
X105751168Y-56989733D01*
X105755124Y-56958054D01*
X105761333Y-56947380D01*
X105769132Y-56952157D01*
G37*
G36*
X109342372Y-60562627D02*
G01*
X109494115Y-60562882D01*
X109666355Y-60563322D01*
X110623096Y-60566085D01*
X110623096Y-60836541D01*
X110623096Y-61106997D01*
X110141683Y-61112408D01*
X109660271Y-61117816D01*
X110144581Y-61494716D01*
X110628892Y-61871616D01*
X110625993Y-62127584D01*
X110623096Y-62383552D01*
X109672268Y-62386316D01*
X109501624Y-62386736D01*
X109342027Y-62386948D01*
X109202448Y-62386916D01*
X109082053Y-62386631D01*
X108980016Y-62386084D01*
X108895508Y-62385270D01*
X108827688Y-62384178D01*
X108775732Y-62382800D01*
X108738811Y-62381132D01*
X108716092Y-62379158D01*
X108706745Y-62376877D01*
X108705472Y-62375597D01*
X108700810Y-62365140D01*
X108697296Y-62344840D01*
X108694796Y-62312341D01*
X108693177Y-62265285D01*
X108692304Y-62201311D01*
X108692041Y-62118064D01*
X108692114Y-62081264D01*
X108692657Y-62012532D01*
X108693660Y-61952151D01*
X108695042Y-61903447D01*
X108696719Y-61869736D01*
X108698608Y-61854343D01*
X108699455Y-61852732D01*
X108704300Y-61848950D01*
X108714363Y-61845828D01*
X108731470Y-61843305D01*
X108757445Y-61841321D01*
X108794111Y-61839813D01*
X108843292Y-61838717D01*
X108906810Y-61837974D01*
X108986494Y-61837519D01*
X109084168Y-61837292D01*
X109201652Y-61837230D01*
X109290332Y-61837100D01*
X109385672Y-61836649D01*
X109472186Y-61835910D01*
X109547739Y-61834919D01*
X109610197Y-61833707D01*
X109657423Y-61832315D01*
X109687284Y-61830772D01*
X109697644Y-61829117D01*
X109695090Y-61825914D01*
X109678428Y-61810932D01*
X109648319Y-61785836D01*
X109607176Y-61752596D01*
X109557420Y-61713176D01*
X109501468Y-61669547D01*
X109496052Y-61665356D01*
X109351016Y-61553058D01*
X109222499Y-61453468D01*
X109109896Y-61366109D01*
X109012601Y-61290513D01*
X108930008Y-61226206D01*
X108861518Y-61172719D01*
X108806512Y-61129572D01*
X108764392Y-61096300D01*
X108734550Y-61072428D01*
X108716381Y-61057483D01*
X108710392Y-61052110D01*
X108703739Y-61043740D01*
X108698928Y-61031742D01*
X108695669Y-61013113D01*
X108693664Y-60984852D01*
X108692615Y-60943960D01*
X108692228Y-60887434D01*
X108692206Y-60812272D01*
X108692248Y-60794224D01*
X108692892Y-60727579D01*
X108694219Y-60668806D01*
X108696095Y-60621349D01*
X108698396Y-60588646D01*
X108700996Y-60574140D01*
X108702457Y-60573032D01*
X108711699Y-60570740D01*
X108730078Y-60568760D01*
X108758728Y-60567079D01*
X108798788Y-60565685D01*
X108851393Y-60564564D01*
X108917677Y-60563705D01*
X108998784Y-60563095D01*
X109095843Y-60562720D01*
X109209994Y-60562568D01*
X109342372Y-60562627D01*
G37*
G36*
X109111218Y-58402856D02*
G01*
X109132610Y-58424369D01*
X109161330Y-58459509D01*
X109195086Y-58505631D01*
X109219196Y-58539968D01*
X109260688Y-58598696D01*
X109302114Y-58656972D01*
X109337330Y-58706138D01*
X109403848Y-58798448D01*
X109326453Y-58876306D01*
X109269984Y-58938826D01*
X109224683Y-59005312D01*
X109194456Y-59074181D01*
X109176525Y-59150510D01*
X109173499Y-59172784D01*
X109171763Y-59269450D01*
X109190088Y-59358360D01*
X109228773Y-59440496D01*
X109288120Y-59516842D01*
X109315487Y-59543841D01*
X109388633Y-59598822D01*
X109470593Y-59636754D01*
X109563904Y-59658620D01*
X109671089Y-59665402D01*
X109687937Y-59665148D01*
X109796028Y-59653204D01*
X109892195Y-59623335D01*
X109976848Y-59575370D01*
X110050399Y-59509139D01*
X110084602Y-59466024D01*
X110127785Y-59386149D01*
X110152020Y-59300510D01*
X110157524Y-59211647D01*
X110144512Y-59122106D01*
X110113198Y-59034428D01*
X110063803Y-58951157D01*
X109996539Y-58874838D01*
X109990480Y-58869068D01*
X109962878Y-58841593D01*
X109943468Y-58820321D01*
X109936137Y-58809455D01*
X109938532Y-58803626D01*
X109951436Y-58784431D01*
X109971775Y-58758680D01*
X109986564Y-58740500D01*
X110013648Y-58706332D01*
X110048476Y-58661836D01*
X110088144Y-58610728D01*
X110129746Y-58556718D01*
X110252080Y-58397271D01*
X110300915Y-58432307D01*
X110357279Y-58478742D01*
X110422525Y-58545424D01*
X110484018Y-58620757D01*
X110536661Y-58698432D01*
X110575360Y-58772135D01*
X110601837Y-58837540D01*
X110630372Y-58925372D01*
X110649040Y-59012578D01*
X110659255Y-59106331D01*
X110662432Y-59213804D01*
X110661155Y-59282276D01*
X110649824Y-59409537D01*
X110625836Y-59525200D01*
X110588048Y-59634001D01*
X110535320Y-59740665D01*
X110504465Y-59791900D01*
X110418017Y-59907632D01*
X110317836Y-60006720D01*
X110204215Y-60088971D01*
X110077447Y-60154194D01*
X109937828Y-60202197D01*
X109785648Y-60232784D01*
X109781585Y-60233343D01*
X109725211Y-60240468D01*
X109680898Y-60243980D01*
X109640295Y-60243878D01*
X109595053Y-60240166D01*
X109536827Y-60232847D01*
X109391699Y-60204580D01*
X109252248Y-60158296D01*
X109125848Y-60095176D01*
X109012938Y-60015483D01*
X108913952Y-59919479D01*
X108829328Y-59807422D01*
X108784891Y-59734116D01*
X108737480Y-59639304D01*
X108702534Y-59543725D01*
X108676942Y-59439884D01*
X108668994Y-59387781D01*
X108662690Y-59303663D01*
X108661783Y-59212743D01*
X108666291Y-59123229D01*
X108676229Y-59043326D01*
X108709166Y-58904779D01*
X108759344Y-58775460D01*
X108827085Y-58657690D01*
X108913417Y-58549682D01*
X109019378Y-58449655D01*
X109024165Y-58445712D01*
X109056741Y-58421069D01*
X109084187Y-58403726D01*
X109100988Y-58397231D01*
X109111218Y-58402856D01*
G37*
G36*
X109102443Y-66511071D02*
G01*
X109108469Y-66513745D01*
X109116575Y-66520686D01*
X109128254Y-66533803D01*
X109144996Y-66555008D01*
X109168296Y-66586212D01*
X109199640Y-66629324D01*
X109240527Y-66686259D01*
X109292445Y-66758923D01*
X109403967Y-66915181D01*
X109325913Y-66991516D01*
X109292610Y-67026395D01*
X109231817Y-67108637D01*
X109191866Y-67195396D01*
X109172350Y-67287720D01*
X109172862Y-67386660D01*
X109186597Y-67459435D01*
X109220871Y-67544081D01*
X109272380Y-67618426D01*
X109339435Y-67680962D01*
X109420350Y-67730184D01*
X109513433Y-67764584D01*
X109616998Y-67782661D01*
X109675081Y-67784823D01*
X109777408Y-67774180D01*
X109872968Y-67745726D01*
X109959128Y-67700660D01*
X110033259Y-67640180D01*
X110092732Y-67565491D01*
X110115892Y-67524084D01*
X110147529Y-67436752D01*
X110158706Y-67346847D01*
X110149727Y-67256344D01*
X110120899Y-67167221D01*
X110072528Y-67081453D01*
X110004925Y-67001011D01*
X109990029Y-66985982D01*
X109962396Y-66957280D01*
X109943278Y-66936254D01*
X109936137Y-66926642D01*
X109936163Y-66926468D01*
X109943183Y-66915336D01*
X109960872Y-66890897D01*
X109986665Y-66856614D01*
X110017999Y-66815956D01*
X110043348Y-66783376D01*
X110089440Y-66724008D01*
X110136211Y-66663650D01*
X110176660Y-66611322D01*
X110253458Y-66511796D01*
X110286821Y-66535410D01*
X110303183Y-66547986D01*
X110341717Y-66581961D01*
X110385544Y-66624560D01*
X110429334Y-66670316D01*
X110467757Y-66713764D01*
X110495487Y-66749441D01*
X110556746Y-66850248D01*
X110604542Y-66958036D01*
X110637387Y-67072835D01*
X110656334Y-67198356D01*
X110662434Y-67338308D01*
X110662385Y-67352049D01*
X110656165Y-67479955D01*
X110638441Y-67594454D01*
X110607717Y-67700871D01*
X110562492Y-67804531D01*
X110501268Y-67910756D01*
X110441843Y-67993064D01*
X110347004Y-68094040D01*
X110238036Y-68181396D01*
X110117976Y-68252787D01*
X109989872Y-68305860D01*
X109949025Y-68317806D01*
X109876942Y-68334341D01*
X109799497Y-68347942D01*
X109725276Y-68357170D01*
X109662860Y-68360589D01*
X109611072Y-68358143D01*
X109539744Y-68350069D01*
X109463522Y-68337686D01*
X109390739Y-68322370D01*
X109329728Y-68305503D01*
X109296824Y-68294042D01*
X109167736Y-68235290D01*
X109050108Y-68159140D01*
X108945287Y-68067118D01*
X108854628Y-67960755D01*
X108779472Y-67841578D01*
X108721175Y-67711118D01*
X108681086Y-67570900D01*
X108670817Y-67511182D01*
X108661456Y-67390390D01*
X108664556Y-67263528D01*
X108679776Y-67137907D01*
X108706769Y-67020843D01*
X108725075Y-66968547D01*
X108762060Y-66887002D01*
X108807670Y-66805483D01*
X108857468Y-66732487D01*
X108865959Y-66721730D01*
X108898101Y-66684749D01*
X108936350Y-66644769D01*
X108977265Y-66604955D01*
X109017399Y-66568475D01*
X109053306Y-66538495D01*
X109081543Y-66518186D01*
X109098662Y-66510712D01*
X109102443Y-66511071D01*
G37*
G36*
X108743860Y-62620364D02*
G01*
X108766066Y-62629416D01*
X108794403Y-62642538D01*
X108822826Y-62655224D01*
X108848761Y-62666066D01*
X108861115Y-62670236D01*
X108861861Y-62670308D01*
X108876784Y-62675277D01*
X108901363Y-62685682D01*
X108903208Y-62686517D01*
X109103131Y-62772577D01*
X109140268Y-62787997D01*
X109183418Y-62806288D01*
X109216723Y-62820800D01*
X109224632Y-62824248D01*
X109252804Y-62836305D01*
X109298136Y-62855581D01*
X109358890Y-62881341D01*
X109433320Y-62912849D01*
X109519685Y-62949364D01*
X109616245Y-62990154D01*
X109721254Y-63034480D01*
X109832973Y-63081604D01*
X109949659Y-63130793D01*
X110639323Y-63421416D01*
X110639323Y-63687104D01*
X110639323Y-63952792D01*
X110566300Y-63983912D01*
X110525806Y-64001170D01*
X110480462Y-64020494D01*
X110444594Y-64035782D01*
X110431435Y-64041412D01*
X110393878Y-64057624D01*
X110363456Y-64070950D01*
X110351837Y-64076024D01*
X110311071Y-64093235D01*
X110254440Y-64116600D01*
X110184956Y-64144872D01*
X110174900Y-64149091D01*
X110146176Y-64161221D01*
X110100569Y-64180511D01*
X110039692Y-64206280D01*
X109965154Y-64237845D01*
X109878564Y-64274524D01*
X109781537Y-64315636D01*
X109675676Y-64360500D01*
X109562596Y-64408431D01*
X109484806Y-64441409D01*
X109443905Y-64458749D01*
X109372672Y-64488917D01*
X109228735Y-64549629D01*
X109103700Y-64601983D01*
X108996945Y-64646226D01*
X108907852Y-64682612D01*
X108835799Y-64711388D01*
X108780164Y-64732802D01*
X108740326Y-64747105D01*
X108715667Y-64754548D01*
X108705564Y-64755375D01*
X108704858Y-64754704D01*
X108700564Y-64743917D01*
X108697255Y-64721034D01*
X108694840Y-64684152D01*
X108693224Y-64631363D01*
X108692321Y-64560756D01*
X108692041Y-64470428D01*
X108692041Y-64196164D01*
X108721792Y-64180832D01*
X108722557Y-64180441D01*
X108744958Y-64170248D01*
X108782229Y-64154456D01*
X108829366Y-64135150D01*
X108881360Y-64114411D01*
X108887433Y-64112016D01*
X108936948Y-64092017D01*
X108979210Y-64074176D01*
X109009898Y-64060352D01*
X109024699Y-64052416D01*
X109025118Y-64052030D01*
X109028987Y-64042625D01*
X109032082Y-64022083D01*
X109034467Y-63988652D01*
X109036207Y-63940590D01*
X109037370Y-63876141D01*
X109038020Y-63793556D01*
X109038160Y-63722344D01*
X109471903Y-63722344D01*
X109472382Y-63773908D01*
X109473536Y-63818322D01*
X109475389Y-63851141D01*
X109477971Y-63867921D01*
X109480174Y-63871786D01*
X109484806Y-63874080D01*
X109493922Y-63873608D01*
X109509750Y-63869621D01*
X109534524Y-63861372D01*
X109570473Y-63848112D01*
X109619832Y-63829093D01*
X109684827Y-63803566D01*
X109767696Y-63770784D01*
X109813013Y-63752516D01*
X109864144Y-63731036D01*
X109905156Y-63712810D01*
X109932685Y-63699341D01*
X109943378Y-63692132D01*
X109940271Y-63687703D01*
X109921267Y-63676324D01*
X109888705Y-63661256D01*
X109846772Y-63644562D01*
X109806879Y-63629516D01*
X109745223Y-63605799D01*
X109679326Y-63580056D01*
X109618010Y-63555718D01*
X109610834Y-63552854D01*
X109562478Y-63534329D01*
X109521846Y-63520052D01*
X109493018Y-63511387D01*
X109480079Y-63509696D01*
X109478713Y-63512915D01*
X109476210Y-63533529D01*
X109474252Y-63569224D01*
X109472865Y-63615556D01*
X109472072Y-63668077D01*
X109471903Y-63722344D01*
X109038160Y-63722344D01*
X109038222Y-63691089D01*
X109038222Y-63340673D01*
X108981426Y-63315555D01*
X108966319Y-63308969D01*
X108923844Y-63290933D01*
X108873044Y-63269794D01*
X108821860Y-63248872D01*
X108792024Y-63236605D01*
X108751347Y-63219173D01*
X108720801Y-63205207D01*
X108705388Y-63196938D01*
X108703192Y-63194197D01*
X108699385Y-63181233D01*
X108696626Y-63156840D01*
X108694840Y-63118980D01*
X108693953Y-63065617D01*
X108693888Y-62994704D01*
X108694569Y-62904205D01*
X108695174Y-62840802D01*
X108696090Y-62764744D01*
X108697735Y-62706915D01*
X108700876Y-62665288D01*
X108706289Y-62637842D01*
X108714742Y-62622555D01*
X108727008Y-62617404D01*
X108743860Y-62620364D01*
G37*
G36*
X109060885Y-68966476D02*
G01*
X109321610Y-68966520D01*
X109562614Y-68966593D01*
X109784684Y-68966702D01*
X109988609Y-68966848D01*
X110175178Y-68967039D01*
X110345177Y-68967279D01*
X110499393Y-68967571D01*
X110638617Y-68967923D01*
X110763633Y-68968335D01*
X110875232Y-68968816D01*
X110974198Y-68969370D01*
X111061322Y-68970000D01*
X111137391Y-68970712D01*
X111203193Y-68971510D01*
X111259513Y-68972400D01*
X111307143Y-68973385D01*
X111346868Y-68974472D01*
X111379476Y-68975664D01*
X111405756Y-68976965D01*
X111426494Y-68978382D01*
X111442480Y-68979919D01*
X111454500Y-68981580D01*
X111463341Y-68983368D01*
X111524380Y-68999520D01*
X111642979Y-69038948D01*
X111745237Y-69085937D01*
X111834414Y-69142408D01*
X111913774Y-69210282D01*
X111986577Y-69291482D01*
X112034344Y-69359432D01*
X112081502Y-69442732D01*
X112120870Y-69529268D01*
X112148089Y-69610428D01*
X112156420Y-69639292D01*
X112167072Y-69668992D01*
X112175477Y-69684749D01*
X112179705Y-69694755D01*
X112183872Y-69723449D01*
X112186120Y-69764518D01*
X112186528Y-69812631D01*
X112185175Y-69862464D01*
X112182140Y-69908682D01*
X112177496Y-69945963D01*
X112171324Y-69968972D01*
X112170412Y-69970884D01*
X112159349Y-69998013D01*
X112145279Y-70037232D01*
X112131013Y-70080735D01*
X112127669Y-70091239D01*
X112076059Y-70216213D01*
X112006913Y-70328844D01*
X111921125Y-70428087D01*
X111819584Y-70512898D01*
X111703183Y-70582230D01*
X111663277Y-70601283D01*
X111607314Y-70624672D01*
X111552028Y-70642748D01*
X111493709Y-70656140D01*
X111428646Y-70665481D01*
X111353128Y-70671404D01*
X111263448Y-70674540D01*
X111155895Y-70675525D01*
X110942234Y-70675740D01*
X110942234Y-70367419D01*
X110942234Y-70059100D01*
X111151868Y-70059100D01*
X111179520Y-70059058D01*
X111257073Y-70058187D01*
X111317343Y-70055676D01*
X111363656Y-70050882D01*
X111399332Y-70043155D01*
X111427697Y-70031845D01*
X111452076Y-70016307D01*
X111475791Y-69995887D01*
X111476681Y-69995045D01*
X111519639Y-69945409D01*
X111543956Y-69893467D01*
X111552302Y-69833552D01*
X111549778Y-69790983D01*
X111530228Y-69724741D01*
X111492596Y-69668985D01*
X111438228Y-69625450D01*
X111368468Y-69595877D01*
X111364631Y-69595160D01*
X111348895Y-69593791D01*
X111321974Y-69592519D01*
X111283285Y-69591341D01*
X111232251Y-69590255D01*
X111168288Y-69589257D01*
X111090817Y-69588348D01*
X110999256Y-69587521D01*
X110893026Y-69586776D01*
X110771545Y-69586110D01*
X110634236Y-69585519D01*
X110480513Y-69585001D01*
X110309800Y-69584556D01*
X110121513Y-69584176D01*
X109915073Y-69583862D01*
X109689902Y-69583612D01*
X109445415Y-69583420D01*
X109181032Y-69583287D01*
X108896180Y-69583208D01*
X108590266Y-69583181D01*
X105856420Y-69583164D01*
X105804491Y-69560824D01*
X105804081Y-69560648D01*
X105747163Y-69526262D01*
X105695853Y-69477329D01*
X105657473Y-69420823D01*
X105654696Y-69415365D01*
X105640044Y-69386812D01*
X105629575Y-69366730D01*
X105625536Y-69350900D01*
X105622235Y-69319225D01*
X105620989Y-69280185D01*
X105621160Y-69270752D01*
X105634052Y-69195764D01*
X105665815Y-69126641D01*
X105714112Y-69066391D01*
X105776610Y-69018012D01*
X105850970Y-68984508D01*
X105853200Y-68983844D01*
X105861053Y-68981990D01*
X105871495Y-68980271D01*
X105885320Y-68978684D01*
X105903321Y-68977221D01*
X105926291Y-68975878D01*
X105955024Y-68974652D01*
X105990314Y-68973535D01*
X106032956Y-68972524D01*
X106083740Y-68971613D01*
X106143463Y-68970796D01*
X106212918Y-68970070D01*
X106292899Y-68969428D01*
X106384197Y-68968866D01*
X106487607Y-68968377D01*
X106603926Y-68967959D01*
X106733942Y-68967604D01*
X106878453Y-68967309D01*
X107038253Y-68967067D01*
X107214131Y-68966873D01*
X107406885Y-68966724D01*
X107617308Y-68966615D01*
X107846191Y-68966537D01*
X108094330Y-68966487D01*
X108362517Y-68966462D01*
X108651550Y-68966456D01*
X108779658Y-68966456D01*
X109060885Y-68966476D01*
G37*
G36*
X108397414Y-70363389D02*
G01*
X108394540Y-70670329D01*
X108247646Y-70675740D01*
X108243638Y-70675887D01*
X108185284Y-70678286D01*
X108143924Y-70680985D01*
X108115176Y-70684827D01*
X108094661Y-70690653D01*
X108078000Y-70699303D01*
X108060808Y-70711618D01*
X108025003Y-70743084D01*
X107998371Y-70779796D01*
X107977466Y-70828703D01*
X107972367Y-70848775D01*
X107973274Y-70900340D01*
X107990738Y-70952242D01*
X108021992Y-70999758D01*
X108064260Y-71038168D01*
X108114780Y-71062752D01*
X108120854Y-71063980D01*
X108137931Y-71065743D01*
X108165057Y-71067340D01*
X108203064Y-71068780D01*
X108252776Y-71070065D01*
X108315025Y-71071207D01*
X108390632Y-71072208D01*
X108480430Y-71073076D01*
X108585243Y-71073817D01*
X108705903Y-71074439D01*
X108843232Y-71074948D01*
X108998054Y-71075349D01*
X109171210Y-71075651D01*
X109363518Y-71075858D01*
X109575808Y-71075976D01*
X109808906Y-71076015D01*
X109980707Y-71076018D01*
X110185827Y-71076040D01*
X110371196Y-71076092D01*
X110537875Y-71076191D01*
X110686932Y-71076344D01*
X110819430Y-71076569D01*
X110936432Y-71076878D01*
X111039008Y-71077284D01*
X111128220Y-71077798D01*
X111205133Y-71078435D01*
X111270811Y-71079208D01*
X111326320Y-71080128D01*
X111372724Y-71081212D01*
X111411090Y-71082470D01*
X111442480Y-71083916D01*
X111467961Y-71085565D01*
X111488595Y-71087425D01*
X111505451Y-71089512D01*
X111519590Y-71091840D01*
X111532079Y-71094422D01*
X111543981Y-71097269D01*
X111628520Y-71123236D01*
X111747232Y-71177778D01*
X111855122Y-71249640D01*
X111950438Y-71337128D01*
X112031430Y-71438550D01*
X112096344Y-71552214D01*
X112143428Y-71676427D01*
X112145124Y-71682079D01*
X112157949Y-71719060D01*
X112171188Y-71750328D01*
X112173534Y-71756530D01*
X112178867Y-71783687D01*
X112182904Y-71822721D01*
X112185571Y-71868855D01*
X112186793Y-71917312D01*
X112186494Y-71963316D01*
X112184599Y-72002089D01*
X112181032Y-72028856D01*
X112175720Y-72038840D01*
X112166568Y-72047057D01*
X112158416Y-72068590D01*
X112127947Y-72174755D01*
X112078996Y-72284364D01*
X112012763Y-72385766D01*
X111927072Y-72482853D01*
X111869985Y-72536960D01*
X111805481Y-72588831D01*
X111739232Y-72630360D01*
X111666266Y-72664179D01*
X111581608Y-72692914D01*
X111480287Y-72719197D01*
X111477604Y-72719769D01*
X111447269Y-72723502D01*
X111399349Y-72726656D01*
X111337385Y-72729088D01*
X111264917Y-72730653D01*
X111185489Y-72731207D01*
X110942234Y-72731207D01*
X110942234Y-72422888D01*
X110942234Y-72114567D01*
X111151264Y-72114567D01*
X111183512Y-72114509D01*
X111256579Y-72113723D01*
X111312525Y-72111842D01*
X111354635Y-72108650D01*
X111386189Y-72103932D01*
X111410467Y-72097470D01*
X111446782Y-72081135D01*
X111496680Y-72042243D01*
X111533008Y-71991708D01*
X111553088Y-71933730D01*
X111554232Y-71872503D01*
X111548094Y-71846222D01*
X111522334Y-71792099D01*
X111483432Y-71745628D01*
X111436503Y-71713700D01*
X111432435Y-71711940D01*
X111425202Y-71709339D01*
X111416141Y-71706989D01*
X111404216Y-71704878D01*
X111388375Y-71702991D01*
X111367582Y-71701316D01*
X111340794Y-71699841D01*
X111306964Y-71698552D01*
X111265056Y-71697436D01*
X111214020Y-71696482D01*
X111152819Y-71695675D01*
X111080407Y-71695002D01*
X110995744Y-71694452D01*
X110897784Y-71694009D01*
X110785488Y-71693665D01*
X110657810Y-71693404D01*
X110513709Y-71693212D01*
X110352142Y-71693079D01*
X110172068Y-71692989D01*
X109972442Y-71692932D01*
X109752222Y-71692892D01*
X109530434Y-71692863D01*
X109329102Y-71692820D01*
X109147208Y-71692741D01*
X108983659Y-71692600D01*
X108837354Y-71692371D01*
X108707192Y-71692026D01*
X108592076Y-71691542D01*
X108490906Y-71690890D01*
X108402588Y-71690048D01*
X108326018Y-71688988D01*
X108260102Y-71687684D01*
X108203742Y-71686110D01*
X108155835Y-71684240D01*
X108115286Y-71682050D01*
X108080996Y-71679511D01*
X108051868Y-71676601D01*
X108026800Y-71673291D01*
X108004696Y-71669556D01*
X107984456Y-71665371D01*
X107964984Y-71660709D01*
X107945180Y-71655546D01*
X107923945Y-71649853D01*
X107919038Y-71648448D01*
X107883325Y-71635337D01*
X107838870Y-71615772D01*
X107794126Y-71593425D01*
X107707080Y-71540510D01*
X107607000Y-71459136D01*
X107522981Y-71363898D01*
X107454628Y-71254241D01*
X107401542Y-71129616D01*
X107363334Y-70989468D01*
X107360647Y-70975930D01*
X107353170Y-70921357D01*
X107352021Y-70866250D01*
X107357588Y-70805705D01*
X107370262Y-70734821D01*
X107390433Y-70648693D01*
X107395600Y-70629404D01*
X107434840Y-70525173D01*
X107492901Y-70424234D01*
X107571160Y-70324112D01*
X107606752Y-70286575D01*
X107676452Y-70226835D01*
X107757473Y-70174060D01*
X107853251Y-70126141D01*
X107967218Y-70080971D01*
X107977950Y-70078187D01*
X108013036Y-70073102D01*
X108064488Y-70068510D01*
X108128855Y-70064692D01*
X108202685Y-70061926D01*
X108400289Y-70056448D01*
X108397414Y-70363389D01*
G37*
G36*
X108394540Y-72119976D02*
G01*
X108394540Y-72422888D01*
X108394540Y-72725798D01*
X108253902Y-72731207D01*
X108205196Y-72733676D01*
X108143258Y-72739996D01*
X108096738Y-72750491D01*
X108061877Y-72766560D01*
X108034912Y-72789599D01*
X108012080Y-72821004D01*
X108006388Y-72830584D01*
X107980015Y-72889136D01*
X107972189Y-72943356D01*
X107982145Y-72997748D01*
X107995530Y-73030704D01*
X108034541Y-73087100D01*
X108089268Y-73128679D01*
X108090309Y-73129229D01*
X108096220Y-73131713D01*
X108104435Y-73133976D01*
X108115971Y-73136033D01*
X108131847Y-73137898D01*
X108153082Y-73139584D01*
X108180691Y-73141105D01*
X108215691Y-73142482D01*
X108259102Y-73143723D01*
X108311938Y-73144845D01*
X108375220Y-73145864D01*
X108449963Y-73146795D01*
X108537187Y-73147651D01*
X108637906Y-73148447D01*
X108753140Y-73149199D01*
X108883905Y-73149919D01*
X109031217Y-73150625D01*
X109196100Y-73151331D01*
X109379564Y-73152051D01*
X109582632Y-73152800D01*
X109806318Y-73153592D01*
X109826360Y-73153662D01*
X110048476Y-73154452D01*
X110250076Y-73155200D01*
X110432196Y-73155923D01*
X110595865Y-73156636D01*
X110742116Y-73157352D01*
X110871984Y-73158086D01*
X110986499Y-73158854D01*
X111086696Y-73159671D01*
X111173605Y-73160548D01*
X111248261Y-73161506D01*
X111311696Y-73162556D01*
X111364944Y-73163714D01*
X111409033Y-73164994D01*
X111445002Y-73166411D01*
X111473880Y-73167980D01*
X111496700Y-73169717D01*
X111514494Y-73171634D01*
X111528296Y-73173750D01*
X111539140Y-73176076D01*
X111548056Y-73178628D01*
X111583832Y-73190265D01*
X111619140Y-73202520D01*
X111648932Y-73214498D01*
X111681466Y-73229587D01*
X111724992Y-73251169D01*
X111779924Y-73282062D01*
X111870972Y-73348232D01*
X111953851Y-73427032D01*
X112024077Y-73513960D01*
X112077168Y-73604520D01*
X112079016Y-73608423D01*
X112096947Y-73646018D01*
X112111759Y-73676659D01*
X112120403Y-73694032D01*
X112124902Y-73705148D01*
X112133902Y-73733863D01*
X112143420Y-73769759D01*
X112150137Y-73794120D01*
X112161688Y-73826576D01*
X112172117Y-73846339D01*
X112174163Y-73850025D01*
X112179332Y-73872549D01*
X112183202Y-73908618D01*
X112185708Y-73953214D01*
X112186788Y-74001324D01*
X112186382Y-74047929D01*
X112184425Y-74088014D01*
X112180858Y-74116565D01*
X112175616Y-74128566D01*
X112168826Y-74137552D01*
X112158684Y-74162464D01*
X112148433Y-74197080D01*
X112140392Y-74226828D01*
X112129072Y-74263809D01*
X112119770Y-74289036D01*
X112114395Y-74300924D01*
X112092467Y-74348448D01*
X112074603Y-74384624D01*
X112057164Y-74416544D01*
X112036510Y-74451309D01*
X112014896Y-74483714D01*
X111962265Y-74548668D01*
X111899991Y-74612165D01*
X111834588Y-74667231D01*
X111783617Y-74700875D01*
X111719987Y-74735763D01*
X111652017Y-74767676D01*
X111586902Y-74793245D01*
X111531829Y-74809102D01*
X111501844Y-74816051D01*
X111472127Y-74824741D01*
X111456643Y-74831661D01*
X111451296Y-74833196D01*
X111426815Y-74835628D01*
X111385708Y-74837712D01*
X111331143Y-74839336D01*
X111266284Y-74840391D01*
X111194300Y-74840766D01*
X110942234Y-74840766D01*
X110942234Y-74527037D01*
X110942234Y-74213307D01*
X111151838Y-74213307D01*
X111152904Y-74213307D01*
X111220569Y-74212930D01*
X111282959Y-74211897D01*
X111335986Y-74210330D01*
X111375556Y-74208351D01*
X111397584Y-74206080D01*
X111419466Y-74198482D01*
X111458769Y-74172575D01*
X111496717Y-74134973D01*
X111528106Y-74091197D01*
X111547736Y-74046763D01*
X111554720Y-74007181D01*
X111549584Y-73944067D01*
X111525644Y-73885229D01*
X111484616Y-73834280D01*
X111428212Y-73794837D01*
X111380374Y-73770368D01*
X109756918Y-73770065D01*
X109537874Y-73770013D01*
X109335256Y-73769928D01*
X109152115Y-73769788D01*
X108987366Y-73769567D01*
X108839922Y-73769244D01*
X108708687Y-73768792D01*
X108592576Y-73768190D01*
X108490503Y-73767414D01*
X108401378Y-73766438D01*
X108324110Y-73765241D01*
X108257615Y-73763799D01*
X108200802Y-73762087D01*
X108152581Y-73760082D01*
X108111868Y-73757760D01*
X108077569Y-73755098D01*
X108048601Y-73752072D01*
X108023871Y-73748657D01*
X108002293Y-73744832D01*
X107982778Y-73740573D01*
X107964237Y-73735852D01*
X107945583Y-73730651D01*
X107936062Y-73727869D01*
X107815123Y-73680831D01*
X107705413Y-73616024D01*
X107608105Y-73534774D01*
X107524370Y-73438416D01*
X107455372Y-73328277D01*
X107402288Y-73205689D01*
X107366284Y-73071981D01*
X107365768Y-73069276D01*
X107358725Y-73006518D01*
X107357780Y-72933084D01*
X107362354Y-72855391D01*
X107371868Y-72779849D01*
X107385740Y-72712876D01*
X107403396Y-72660888D01*
X107405765Y-72655656D01*
X107417856Y-72628419D01*
X107432024Y-72595980D01*
X107480483Y-72505904D01*
X107547544Y-72415687D01*
X107627660Y-72332652D01*
X107716500Y-72261263D01*
X107809738Y-72205989D01*
X107832900Y-72194928D01*
X107911291Y-72161575D01*
X107984474Y-72138467D01*
X108059028Y-72124238D01*
X108141529Y-72117525D01*
X108238553Y-72116963D01*
X108394540Y-72119976D01*
G37*
%TD*%
D16*
X104650000Y-49150000D03*
X105352944Y-47452944D03*
X105352944Y-50847056D03*
X107050000Y-46750000D03*
X107050000Y-49150000D03*
X107050000Y-51550000D03*
X108747056Y-47452944D03*
X108747056Y-50847056D03*
X109450000Y-49150000D03*
X188650000Y-138150000D03*
X189352944Y-136452944D03*
X189352944Y-139847056D03*
X191050000Y-135750000D03*
X191050000Y-138150000D03*
X191050000Y-140550000D03*
X192747056Y-136452944D03*
X192747056Y-139847056D03*
X193450000Y-138150000D03*
X165850000Y-127090000D03*
X165850000Y-122010000D03*
X104650000Y-138150000D03*
X105352944Y-136452944D03*
X105352944Y-139847056D03*
X107050000Y-135750000D03*
X107050000Y-138150000D03*
X107050000Y-140550000D03*
X108747056Y-136452944D03*
X108747056Y-139847056D03*
X109450000Y-138150000D03*
X177545837Y-110048049D03*
X177545837Y-103448049D03*
X184145837Y-103448049D03*
X184145837Y-110048049D03*
X180845837Y-106748049D03*
X165850000Y-138300000D03*
X165850000Y-110800000D03*
X179257500Y-124477500D03*
X179257500Y-129557500D03*
D17*
X117680000Y-136862500D03*
X117680000Y-140672500D03*
X126320000Y-136862500D03*
X126320000Y-140672500D03*
D16*
X179450000Y-115900000D03*
X179450000Y-138400000D03*
X173230000Y-100910000D03*
X170690000Y-100910000D03*
X163070000Y-100910000D03*
X163070000Y-105990000D03*
X170690000Y-105990000D03*
X173230000Y-105990000D03*
X165850000Y-113300000D03*
X165850000Y-135800000D03*
X188650000Y-49150000D03*
X189352944Y-47452944D03*
X189352944Y-50847056D03*
X191050000Y-46750000D03*
X191050000Y-49150000D03*
X191050000Y-51550000D03*
X192747056Y-47452944D03*
X192747056Y-50847056D03*
X193450000Y-49150000D03*
X181750000Y-95150000D03*
X181750000Y-52050000D03*
X116150000Y-95150000D03*
X116150000Y-52050000D03*
X182150000Y-69650000D03*
X182150000Y-72150000D03*
X182150000Y-74650000D03*
X182150000Y-77150000D03*
X145300000Y-52150000D03*
X147800000Y-52150000D03*
X150300000Y-52150000D03*
X152800000Y-52150000D03*
X191000000Y-118460000D03*
X191000000Y-121000000D03*
M02*
