M48
; DRILL file {KiCad 8.0.7} date 2025-01-06T20:38:14+0800
; FORMAT={-:-/ absolute / metric / decimal}
; #@! TF.CreationDate,2025-01-06T20:38:14+08:00
; #@! TF.GenerationSoftware,Kicad,Pcbnew,8.0.7
; #@! TF.FileFunction,Plated,1,2,PTH
FMAT,2
METRIC
; #@! TA.AperFunction,Plated,PTH,ViaDrill
T1C0.300
; #@! TA.AperFunction,Plated,PTH,ViaDrill
T2C0.400
; #@! TA.AperFunction,Plated,PTH,ComponentDrill
T3C0.500
; #@! TA.AperFunction,Plated,PTH,ComponentDrill
T4C0.700
; #@! TA.AperFunction,Plated,PTH,ComponentDrill
T5C0.762
; #@! TA.AperFunction,Plated,PTH,ComponentDrill
T6C0.900
; #@! TA.AperFunction,Plated,PTH,ComponentDrill
T7C1.200
; #@! TA.AperFunction,Plated,PTH,ComponentDrill
T8C1.200
; #@! TA.AperFunction,Plated,PTH,ComponentDrill
T9C1.300
; #@! TA.AperFunction,Plated,PTH,ComponentDrill
T10C1.400
; #@! TA.AperFunction,Plated,PTH,ComponentDrill
T11C2.300
; #@! TA.AperFunction,Plated,PTH,ComponentDrill
T12C2.800
; #@! TA.AperFunction,Plated,PTH,ComponentDrill
T13C3.200
%
G90
G05
T1
X104.05Y-85.65
X104.8Y-77.4
X106.05Y-105.15
X106.57Y-100.03
X107.13Y-107.46
X107.55Y-126.65
X108.05Y-87.15
X108.05Y-125.15
X108.05Y-133.15
X109.05Y-104.15
X110.05Y-129.65
X110.49Y-95.86
X110.55Y-87.65
X111.55Y-134.15
X112.8Y-54.4
X114.05Y-122.65
X115.2Y-98.29
X116.05Y-101.65
X117.55Y-117.15
X118.05Y-72.65
X118.3Y-118.4
X118.55Y-120.75
X119.05Y-88.15
X122.55Y-75.15
X125.15Y-58.15
X126.05Y-83.15
X129.15Y-62.25
X129.55Y-59.15
X129.77Y-103.43
X130.05Y-95.65
X130.05Y-134.65
X131.55Y-76.65
X131.69Y-102.45
X132.05Y-47.15
X132.53Y-101.42
X133.55Y-92.15
X133.55Y-133.65
X134.05Y-99.65
X135.05Y-61.15
X135.06Y-118.32
X135.55Y-104.15
X135.55Y-120.65
X135.55Y-137.65
X138.05Y-99.15
X140.55Y-73.65
X142.55Y-68.65
X142.8Y-122.15
X142.92Y-101.39
X144.11Y-95.78
X144.55Y-59.15
X144.55Y-76.15
X144.82Y-129.56
X145.12Y-57.03
X146.78Y-107.92
X147.05Y-71.15
X147.05Y-79.15
X149.52Y-99.71
X149.83Y-136.13
X149.86Y-116.79
X150.5Y-114.24
X150.71Y-139.44
X150.99Y-87.91
X151.07Y-137.8
X151.16Y-134.65
X154.55Y-76.65
X155.09Y-134.67
X155.17Y-137.92
X155.42Y-83.35
X156.11Y-70.68
X156.24Y-78.92
X156.71Y-136.34
X157.73Y-77.77
X158.05Y-68.65
X158.55Y-96.15
X158.8Y-70.4
X160.05Y-67.65
X160.05Y-72.65
X160.55Y-82.4
X160.55Y-86.65
X161.05Y-79.65
X161.35Y-104.15
X162.05Y-76.377
X162.25Y-97.65
X162.3Y-82.3
X162.55Y-62.65
X162.55Y-64.65
X163.2Y-70.2
X163.55Y-61.65
X165.05Y-66.15
X166.05Y-62.15
X166.05Y-67.15
X167.05Y-45.65
X167.05Y-101.15
X167.23Y-70.55
X168.05Y-63.15
X169.55Y-92.65
X171.05Y-62.65
X171.05Y-103.65
X171.55Y-72.15
X172.05Y-74.65
X172.05Y-81.65
X172.55Y-103.15
X172.55Y-116.15
X173.05Y-112.65
X173.05Y-124.65
X174.05Y-62.15
X187.3Y-58.15
X188.3Y-73.9
X189.55Y-68.65
T2
X187.15Y-121.05
X188.9Y-62.7
T3
X104.65Y-49.15
X104.65Y-138.15
X105.353Y-47.453
X105.353Y-50.847
X105.353Y-136.453
X105.353Y-139.847
X107.05Y-46.75
X107.05Y-51.55
X107.05Y-135.75
X107.05Y-140.55
X108.747Y-47.453
X108.747Y-50.847
X108.747Y-136.453
X108.747Y-139.847
X109.45Y-49.15
X109.45Y-138.15
X188.65Y-49.15
X188.65Y-138.15
X189.353Y-47.453
X189.353Y-50.847
X189.353Y-136.453
X189.353Y-139.847
X191.05Y-46.75
X191.05Y-51.55
X191.05Y-135.75
X191.05Y-140.55
X192.747Y-47.453
X192.747Y-50.847
X192.747Y-136.453
X192.747Y-139.847
X193.45Y-49.15
X193.45Y-138.15
T5
X145.3Y-52.15
X147.8Y-52.15
X150.3Y-52.15
X152.8Y-52.15
X182.15Y-69.65
X182.15Y-72.15
X182.15Y-74.65
X182.15Y-77.15
T6
X165.85Y-122.01
X165.85Y-127.09
X179.257Y-124.477
X179.257Y-129.558
T7
X163.07Y-100.91
X163.07Y-105.99
X170.69Y-100.91
X170.69Y-105.99
X173.23Y-100.91
X173.23Y-105.99
T8
X165.85Y-110.8
X165.85Y-138.3
X179.45Y-115.9
X179.45Y-138.4
T9
X180.846Y-106.748
X191.0Y-118.46
X191.0Y-121.0
T10
X165.85Y-113.3
X165.85Y-135.8
T11
X177.546Y-103.448
X177.546Y-110.048
X184.146Y-103.448
X184.146Y-110.048
T12
X116.15Y-52.05
X116.15Y-95.15
X181.75Y-52.05
X181.75Y-95.15
T13
X107.05Y-49.15
X107.05Y-138.15
X191.05Y-49.15
X191.05Y-138.15
T4
G00X117.68Y-136.613
M15
G01X117.68Y-137.112
M16
G05
G00X117.68Y-140.423
M15
G01X117.68Y-140.922
M16
G05
G00X126.32Y-136.613
M15
G01X126.32Y-137.112
M16
G05
G00X126.32Y-140.423
M15
G01X126.32Y-140.922
M16
G05
M30
