M48
METRIC,TZ
T1C0.300
T2C0.400
T3C0.500
T4C0.700
T5C0.762
T6C0.900
T7C1.200
T8C1.200
T9C1.300
T10C1.400
T11C2.300
T12C2.800
T13C3.200
%
G90
G05
T1
X104050Y-85650
X104800Y-77400
X106050Y-105150
X106570Y-100030
X107130Y-107460
X107550Y-126650
X108050Y-87150
X108050Y-125150
X108050Y-133150
X109050Y-104150
X110050Y-129650
X110490Y-95860
X110550Y-87650
X111550Y-134150
X112800Y-54400
X114050Y-122650
X115200Y-98290
X116050Y-101650
X117550Y-117150
X118050Y-72650
X118300Y-118400
X118550Y-120750
X119050Y-88150
X122550Y-75150
X125150Y-58150
X126050Y-83150
X129150Y-62250
X129550Y-59150
X129770Y-103430
X130050Y-95650
X130050Y-134650
X131550Y-76650
X131690Y-102450
X132050Y-47150
X132530Y-101420
X133550Y-92150
X133550Y-133650
X134050Y-99650
X135050Y-61150
X135060Y-118320
X135550Y-104150
X135550Y-120650
X135550Y-137650
X138050Y-99150
X140550Y-73650
X142550Y-68650
X142800Y-122150
X142920Y-101390
X144110Y-95780
X144550Y-59150
X144550Y-76150
X144820Y-129560
X145120Y-57030
X146780Y-107920
X147050Y-71150
X147050Y-79150
X149520Y-99710
X149830Y-136130
X149860Y-116790
X150500Y-114240
X150710Y-139440
X150990Y-87910
X151070Y-137800
X151160Y-134650
X154550Y-76650
X155090Y-134670
X155170Y-137920
X155420Y-83350
X156110Y-70680
X156240Y-78920
X156710Y-136340
X157730Y-77770
X158050Y-68650
X158550Y-96150
X158800Y-70400
X160050Y-67650
X160050Y-72650
X160550Y-82400
X160550Y-86650
X161050Y-79650
X161350Y-104150
X162050Y-76377
X162250Y-97650
X162300Y-82300
X162550Y-62650
X162550Y-64650
X163200Y-70200
X163550Y-61650
X165050Y-66150
X166050Y-62150
X166050Y-67150
X167050Y-45650
X167050Y-101150
X167230Y-70550
X168050Y-63150
X169550Y-92650
X171050Y-62650
X171050Y-103650
X171550Y-72150
X172050Y-74650
X172050Y-81650
X172550Y-103150
X172550Y-116150
X173050Y-112650
X173050Y-124650
X174050Y-62150
X187300Y-58150
X188300Y-73900
X189550Y-68650
T2
X187150Y-121050
X188900Y-62700
T3
X104650Y-49150
X104650Y-138150
X105353Y-47453
X105353Y-50847
X105353Y-136453
X105353Y-139847
X107050Y-46750
X107050Y-51550
X107050Y-135750
X107050Y-140550
X108747Y-47453
X108747Y-50847
X108747Y-136453
X108747Y-139847
X109450Y-49150
X109450Y-138150
X188650Y-49150
X188650Y-138150
X189353Y-47453
X189353Y-50847
X189353Y-136453
X189353Y-139847
X191050Y-46750
X191050Y-51550
X191050Y-135750
X191050Y-140550
X192747Y-47453
X192747Y-50847
X192747Y-136453
X192747Y-139847
X193450Y-49150
X193450Y-138150
T5
X145300Y-52150
X147800Y-52150
X150300Y-52150
X152800Y-52150
X182150Y-69650
X182150Y-72150
X182150Y-74650
X182150Y-77150
T6
X165850Y-122010
X165850Y-127090
X179258Y-124477
X179258Y-129558
T7
X163070Y-100910
X163070Y-105990
X170690Y-100910
X170690Y-105990
X173230Y-100910
X173230Y-105990
T8
X165850Y-110800
X165850Y-138300
X179450Y-115900
X179450Y-138400
T9
X180846Y-106748
X191000Y-118460
X191000Y-121000
T10
X165850Y-113300
X165850Y-135800
T11
X177546Y-103448
X177546Y-110048
X184146Y-103448
X184146Y-110048
T12
X116150Y-52050
X116150Y-95150
X181750Y-52050
X181750Y-95150
T13
X107050Y-49150
X107050Y-138150
X191050Y-49150
X191050Y-138150
T4
G00X117680Y-136613
M15
G01X117680Y-137112
M16
G05
G00X117680Y-140423
M15
G01X117680Y-140922
M16
G05
G00X126320Y-136613
M15
G01X126320Y-137112
M16
G05
G00X126320Y-140423
M15
G01X126320Y-140922
M16
G05
M30
