%TF.GenerationSoftware,KiCad,Pcbnew,8.0.7*%
%TF.CreationDate,2025-01-06T20:38:13+08:00*%
%TF.ProjectId,Inductance Meter V2-0,496e6475-6374-4616-9e63-65204d657465,rev?*%
%TF.SameCoordinates,Original*%
%TF.FileFunction,Soldermask,Bot*%
%TF.FilePolarity,Negative*%
%FSLAX46Y46*%
G04 Gerber Fmt 4.6, Leading zero omitted, Abs format (unit mm)*
G04 Created by KiCad (PCBNEW 8.0.7) date 2025-01-06 20:38:13*
%MOMM*%
%LPD*%
G01*
G04 APERTURE LIST*
G04 APERTURE END LIST*
G36*
X117742771Y-139827205D02*
G01*
X117751789Y-139827205D01*
X117777771Y-139834166D01*
X117839569Y-139846459D01*
X117868738Y-139858541D01*
X117890476Y-139864366D01*
X117909965Y-139875618D01*
X117939133Y-139887700D01*
X117991524Y-139922706D01*
X118014819Y-139936156D01*
X118021194Y-139942531D01*
X118028729Y-139947566D01*
X118104933Y-140023770D01*
X118109967Y-140031304D01*
X118116344Y-140037681D01*
X118129795Y-140060979D01*
X118164799Y-140113366D01*
X118176879Y-140142530D01*
X118188134Y-140162024D01*
X118193959Y-140183765D01*
X118206040Y-140212930D01*
X118218329Y-140274715D01*
X118225295Y-140300711D01*
X118226177Y-140314168D01*
X118227351Y-140320071D01*
X118229709Y-140368071D01*
X118230000Y-140372500D01*
X118230000Y-140972500D01*
X118229709Y-140976931D01*
X118227351Y-141024928D01*
X118226177Y-141030829D01*
X118225295Y-141044289D01*
X118218328Y-141070287D01*
X118206040Y-141132069D01*
X118193960Y-141161231D01*
X118188134Y-141182976D01*
X118176878Y-141202471D01*
X118164799Y-141231633D01*
X118129799Y-141284013D01*
X118116344Y-141307319D01*
X118109965Y-141313697D01*
X118104933Y-141321229D01*
X118028729Y-141397433D01*
X118021197Y-141402465D01*
X118014819Y-141408844D01*
X117991513Y-141422299D01*
X117939133Y-141457299D01*
X117909971Y-141469378D01*
X117890476Y-141480634D01*
X117868731Y-141486460D01*
X117839569Y-141498540D01*
X117777777Y-141510831D01*
X117751789Y-141517795D01*
X117742770Y-141517795D01*
X117733882Y-141519563D01*
X117626118Y-141519563D01*
X117617230Y-141517795D01*
X117608211Y-141517795D01*
X117582223Y-141510831D01*
X117520430Y-141498540D01*
X117491265Y-141486459D01*
X117469524Y-141480634D01*
X117450030Y-141469379D01*
X117420866Y-141457299D01*
X117368479Y-141422295D01*
X117345181Y-141408844D01*
X117338804Y-141402467D01*
X117331270Y-141397433D01*
X117255066Y-141321229D01*
X117250031Y-141313694D01*
X117243656Y-141307319D01*
X117230206Y-141284024D01*
X117195200Y-141231633D01*
X117183118Y-141202465D01*
X117171866Y-141182976D01*
X117166041Y-141161238D01*
X117153959Y-141132069D01*
X117141667Y-141070273D01*
X117134705Y-141044289D01*
X117133823Y-141030837D01*
X117132648Y-141024928D01*
X117130290Y-140976925D01*
X117130000Y-140972500D01*
X117130000Y-140372500D01*
X117130289Y-140368077D01*
X117132648Y-140320071D01*
X117133823Y-140314161D01*
X117134705Y-140300711D01*
X117141666Y-140274729D01*
X117153959Y-140212930D01*
X117166042Y-140183758D01*
X117171866Y-140162024D01*
X117183116Y-140142537D01*
X117195200Y-140113366D01*
X117230211Y-140060968D01*
X117243656Y-140037681D01*
X117250029Y-140031307D01*
X117255066Y-140023770D01*
X117331270Y-139947566D01*
X117338807Y-139942529D01*
X117345181Y-139936156D01*
X117368468Y-139922711D01*
X117420866Y-139887700D01*
X117450037Y-139875616D01*
X117469524Y-139864366D01*
X117491258Y-139858542D01*
X117520430Y-139846459D01*
X117582229Y-139834166D01*
X117608211Y-139827205D01*
X117617229Y-139827205D01*
X117626118Y-139825437D01*
X117733882Y-139825437D01*
X117742771Y-139827205D01*
G37*
G36*
X126382771Y-139827205D02*
G01*
X126391789Y-139827205D01*
X126417771Y-139834166D01*
X126479569Y-139846459D01*
X126508738Y-139858541D01*
X126530476Y-139864366D01*
X126549965Y-139875618D01*
X126579133Y-139887700D01*
X126631524Y-139922706D01*
X126654819Y-139936156D01*
X126661194Y-139942531D01*
X126668729Y-139947566D01*
X126744933Y-140023770D01*
X126749967Y-140031304D01*
X126756344Y-140037681D01*
X126769795Y-140060979D01*
X126804799Y-140113366D01*
X126816879Y-140142530D01*
X126828134Y-140162024D01*
X126833959Y-140183765D01*
X126846040Y-140212930D01*
X126858329Y-140274715D01*
X126865295Y-140300711D01*
X126866177Y-140314168D01*
X126867351Y-140320071D01*
X126869709Y-140368071D01*
X126870000Y-140372500D01*
X126870000Y-140972500D01*
X126869709Y-140976931D01*
X126867351Y-141024928D01*
X126866177Y-141030829D01*
X126865295Y-141044289D01*
X126858328Y-141070287D01*
X126846040Y-141132069D01*
X126833960Y-141161231D01*
X126828134Y-141182976D01*
X126816878Y-141202471D01*
X126804799Y-141231633D01*
X126769799Y-141284013D01*
X126756344Y-141307319D01*
X126749965Y-141313697D01*
X126744933Y-141321229D01*
X126668729Y-141397433D01*
X126661197Y-141402465D01*
X126654819Y-141408844D01*
X126631513Y-141422299D01*
X126579133Y-141457299D01*
X126549971Y-141469378D01*
X126530476Y-141480634D01*
X126508731Y-141486460D01*
X126479569Y-141498540D01*
X126417777Y-141510831D01*
X126391789Y-141517795D01*
X126382770Y-141517795D01*
X126373882Y-141519563D01*
X126266118Y-141519563D01*
X126257230Y-141517795D01*
X126248211Y-141517795D01*
X126222223Y-141510831D01*
X126160430Y-141498540D01*
X126131265Y-141486459D01*
X126109524Y-141480634D01*
X126090030Y-141469379D01*
X126060866Y-141457299D01*
X126008479Y-141422295D01*
X125985181Y-141408844D01*
X125978804Y-141402467D01*
X125971270Y-141397433D01*
X125895066Y-141321229D01*
X125890031Y-141313694D01*
X125883656Y-141307319D01*
X125870206Y-141284024D01*
X125835200Y-141231633D01*
X125823118Y-141202465D01*
X125811866Y-141182976D01*
X125806041Y-141161238D01*
X125793959Y-141132069D01*
X125781667Y-141070273D01*
X125774705Y-141044289D01*
X125773823Y-141030837D01*
X125772648Y-141024928D01*
X125770290Y-140976925D01*
X125770000Y-140972500D01*
X125770000Y-140372500D01*
X125770289Y-140368077D01*
X125772648Y-140320071D01*
X125773823Y-140314161D01*
X125774705Y-140300711D01*
X125781666Y-140274729D01*
X125793959Y-140212930D01*
X125806042Y-140183758D01*
X125811866Y-140162024D01*
X125823116Y-140142537D01*
X125835200Y-140113366D01*
X125870211Y-140060968D01*
X125883656Y-140037681D01*
X125890029Y-140031307D01*
X125895066Y-140023770D01*
X125971270Y-139947566D01*
X125978807Y-139942529D01*
X125985181Y-139936156D01*
X126008468Y-139922711D01*
X126060866Y-139887700D01*
X126090037Y-139875616D01*
X126109524Y-139864366D01*
X126131258Y-139858542D01*
X126160430Y-139846459D01*
X126222229Y-139834166D01*
X126248211Y-139827205D01*
X126257229Y-139827205D01*
X126266118Y-139825437D01*
X126373882Y-139825437D01*
X126382771Y-139827205D01*
G37*
G36*
X107135133Y-134954781D02*
G01*
X107223243Y-134954781D01*
X107317316Y-134965012D01*
X107408286Y-134970121D01*
X107486534Y-134983416D01*
X107567687Y-134992242D01*
X107666526Y-135013997D01*
X107762067Y-135030231D01*
X107832629Y-135050559D01*
X107906066Y-135066724D01*
X108008266Y-135101159D01*
X108106893Y-135129573D01*
X108169234Y-135155395D01*
X108234404Y-135177354D01*
X108338380Y-135225458D01*
X108438428Y-135266900D01*
X108492251Y-135296647D01*
X108548864Y-135322839D01*
X108652875Y-135385420D01*
X108752503Y-135440483D01*
X108797766Y-135472599D01*
X108845750Y-135501470D01*
X108947955Y-135579163D01*
X109045167Y-135648139D01*
X109082044Y-135681094D01*
X109121582Y-135711150D01*
X109220040Y-135804415D01*
X109312742Y-135887258D01*
X109341672Y-135919631D01*
X109373122Y-135949422D01*
X109465785Y-136058514D01*
X109551861Y-136154833D01*
X109573480Y-136185303D01*
X109597427Y-136213495D01*
X109682252Y-136338602D01*
X109759517Y-136447497D01*
X109774650Y-136474879D01*
X109791866Y-136500270D01*
X109866801Y-136641613D01*
X109933100Y-136761572D01*
X109942748Y-136784866D01*
X109954160Y-136806390D01*
X110017170Y-136964535D01*
X110070427Y-137093107D01*
X110075724Y-137111495D01*
X110082407Y-137128267D01*
X110131610Y-137305481D01*
X110169769Y-137437933D01*
X110171950Y-137450770D01*
X110175098Y-137462108D01*
X110208672Y-137666900D01*
X110229879Y-137791714D01*
X110230266Y-137798620D01*
X110231154Y-137804032D01*
X110247427Y-138104195D01*
X110250000Y-138150000D01*
X110247427Y-138195807D01*
X110231154Y-138495967D01*
X110230266Y-138501377D01*
X110229879Y-138508286D01*
X110208667Y-138633126D01*
X110175098Y-138837891D01*
X110171950Y-138849226D01*
X110169769Y-138862067D01*
X110131602Y-138994545D01*
X110082407Y-139171732D01*
X110075725Y-139188501D01*
X110070427Y-139206893D01*
X110017160Y-139335489D01*
X109954160Y-139493609D01*
X109942750Y-139515129D01*
X109933100Y-139538428D01*
X109866788Y-139658410D01*
X109791866Y-139799729D01*
X109774653Y-139825114D01*
X109759517Y-139852503D01*
X109682237Y-139961418D01*
X109597427Y-140086504D01*
X109573485Y-140114690D01*
X109551861Y-140145167D01*
X109465768Y-140241504D01*
X109373122Y-140350577D01*
X109341678Y-140380361D01*
X109312742Y-140412742D01*
X109220021Y-140495601D01*
X109121582Y-140588849D01*
X109082052Y-140618898D01*
X109045167Y-140651861D01*
X108947935Y-140720850D01*
X108845750Y-140798529D01*
X108797776Y-140827393D01*
X108752503Y-140859517D01*
X108652855Y-140914590D01*
X108548864Y-140977160D01*
X108492262Y-141003346D01*
X108438428Y-141033100D01*
X108338359Y-141074549D01*
X108234404Y-141122645D01*
X108169247Y-141144598D01*
X108106893Y-141170427D01*
X108008246Y-141198846D01*
X107906066Y-141233275D01*
X107832644Y-141249436D01*
X107762067Y-141269769D01*
X107666506Y-141286005D01*
X107567687Y-141307757D01*
X107486547Y-141316581D01*
X107408286Y-141329879D01*
X107317311Y-141334988D01*
X107223243Y-141345219D01*
X107135133Y-141345219D01*
X107050000Y-141350000D01*
X106964867Y-141345219D01*
X106876757Y-141345219D01*
X106782688Y-141334988D01*
X106691714Y-141329879D01*
X106613453Y-141316582D01*
X106532312Y-141307757D01*
X106433489Y-141286004D01*
X106337933Y-141269769D01*
X106267358Y-141249437D01*
X106193933Y-141233275D01*
X106091746Y-141198844D01*
X105993107Y-141170427D01*
X105930756Y-141144600D01*
X105865595Y-141122645D01*
X105761630Y-141074545D01*
X105661572Y-141033100D01*
X105607742Y-141003349D01*
X105551135Y-140977160D01*
X105447132Y-140914583D01*
X105347497Y-140859517D01*
X105302229Y-140827397D01*
X105254249Y-140798529D01*
X105152049Y-140720839D01*
X105054833Y-140651861D01*
X105017953Y-140618903D01*
X104978417Y-140588849D01*
X104879960Y-140495585D01*
X104787258Y-140412742D01*
X104758326Y-140380368D01*
X104726877Y-140350577D01*
X104634211Y-140241482D01*
X104548139Y-140145167D01*
X104526519Y-140114697D01*
X104502572Y-140086504D01*
X104417740Y-139961387D01*
X104340483Y-139852503D01*
X104325350Y-139825122D01*
X104308133Y-139799729D01*
X104233187Y-139658365D01*
X104166900Y-139538428D01*
X104157252Y-139515138D01*
X104145839Y-139493609D01*
X104082813Y-139335426D01*
X104029573Y-139206893D01*
X104024277Y-139188510D01*
X104017592Y-139171732D01*
X103968369Y-138994449D01*
X103930231Y-138862067D01*
X103928050Y-138849235D01*
X103924901Y-138837891D01*
X103891303Y-138632958D01*
X103870121Y-138508286D01*
X103869733Y-138501386D01*
X103868845Y-138495967D01*
X103852543Y-138195293D01*
X103850000Y-138150000D01*
X103852543Y-138104710D01*
X103868845Y-137804032D01*
X103869733Y-137798611D01*
X103870121Y-137791714D01*
X103891299Y-137667068D01*
X103924901Y-137462108D01*
X103928051Y-137450761D01*
X103930231Y-137437933D01*
X103968361Y-137305576D01*
X104017592Y-137128267D01*
X104024278Y-137111485D01*
X104029573Y-137093107D01*
X104082802Y-136964599D01*
X104145839Y-136806390D01*
X104157254Y-136784857D01*
X104166900Y-136761572D01*
X104233174Y-136641657D01*
X104308133Y-136500270D01*
X104325353Y-136474871D01*
X104340483Y-136447497D01*
X104417725Y-136338634D01*
X104502572Y-136213495D01*
X104526524Y-136185296D01*
X104548139Y-136154833D01*
X104634194Y-136058536D01*
X104726877Y-135949422D01*
X104758332Y-135919625D01*
X104787258Y-135887258D01*
X104879941Y-135804430D01*
X104978417Y-135711150D01*
X105017961Y-135681089D01*
X105054833Y-135648139D01*
X105152029Y-135579174D01*
X105254249Y-135501470D01*
X105302238Y-135472595D01*
X105347497Y-135440483D01*
X105447112Y-135385427D01*
X105551135Y-135322839D01*
X105607753Y-135296644D01*
X105661572Y-135266900D01*
X105761609Y-135225462D01*
X105865595Y-135177354D01*
X105930769Y-135155394D01*
X105993107Y-135129573D01*
X106091726Y-135101161D01*
X106193933Y-135066724D01*
X106267373Y-135050558D01*
X106337933Y-135030231D01*
X106433469Y-135013998D01*
X106532312Y-134992242D01*
X106613466Y-134983415D01*
X106691714Y-134970121D01*
X106782682Y-134965012D01*
X106876757Y-134954781D01*
X106964867Y-134954781D01*
X107050000Y-134950000D01*
X107135133Y-134954781D01*
G37*
G36*
X191135133Y-134954781D02*
G01*
X191223243Y-134954781D01*
X191317316Y-134965012D01*
X191408286Y-134970121D01*
X191486534Y-134983416D01*
X191567687Y-134992242D01*
X191666526Y-135013997D01*
X191762067Y-135030231D01*
X191832629Y-135050559D01*
X191906066Y-135066724D01*
X192008266Y-135101159D01*
X192106893Y-135129573D01*
X192169234Y-135155395D01*
X192234404Y-135177354D01*
X192338380Y-135225458D01*
X192438428Y-135266900D01*
X192492251Y-135296647D01*
X192548864Y-135322839D01*
X192652875Y-135385420D01*
X192752503Y-135440483D01*
X192797766Y-135472599D01*
X192845750Y-135501470D01*
X192947955Y-135579163D01*
X193045167Y-135648139D01*
X193082044Y-135681094D01*
X193121582Y-135711150D01*
X193220040Y-135804415D01*
X193312742Y-135887258D01*
X193341672Y-135919631D01*
X193373122Y-135949422D01*
X193465785Y-136058514D01*
X193551861Y-136154833D01*
X193573480Y-136185303D01*
X193597427Y-136213495D01*
X193682252Y-136338602D01*
X193759517Y-136447497D01*
X193774650Y-136474879D01*
X193791866Y-136500270D01*
X193866801Y-136641613D01*
X193933100Y-136761572D01*
X193942748Y-136784866D01*
X193954160Y-136806390D01*
X194017170Y-136964535D01*
X194070427Y-137093107D01*
X194075724Y-137111495D01*
X194082407Y-137128267D01*
X194131610Y-137305481D01*
X194169769Y-137437933D01*
X194171950Y-137450770D01*
X194175098Y-137462108D01*
X194208672Y-137666900D01*
X194229879Y-137791714D01*
X194230266Y-137798620D01*
X194231154Y-137804032D01*
X194247427Y-138104195D01*
X194250000Y-138150000D01*
X194247427Y-138195807D01*
X194231154Y-138495967D01*
X194230266Y-138501377D01*
X194229879Y-138508286D01*
X194208667Y-138633126D01*
X194175098Y-138837891D01*
X194171950Y-138849226D01*
X194169769Y-138862067D01*
X194131602Y-138994545D01*
X194082407Y-139171732D01*
X194075725Y-139188501D01*
X194070427Y-139206893D01*
X194017160Y-139335489D01*
X193954160Y-139493609D01*
X193942750Y-139515129D01*
X193933100Y-139538428D01*
X193866788Y-139658410D01*
X193791866Y-139799729D01*
X193774653Y-139825114D01*
X193759517Y-139852503D01*
X193682237Y-139961418D01*
X193597427Y-140086504D01*
X193573485Y-140114690D01*
X193551861Y-140145167D01*
X193465768Y-140241504D01*
X193373122Y-140350577D01*
X193341678Y-140380361D01*
X193312742Y-140412742D01*
X193220021Y-140495601D01*
X193121582Y-140588849D01*
X193082052Y-140618898D01*
X193045167Y-140651861D01*
X192947935Y-140720850D01*
X192845750Y-140798529D01*
X192797776Y-140827393D01*
X192752503Y-140859517D01*
X192652855Y-140914590D01*
X192548864Y-140977160D01*
X192492262Y-141003346D01*
X192438428Y-141033100D01*
X192338359Y-141074549D01*
X192234404Y-141122645D01*
X192169247Y-141144598D01*
X192106893Y-141170427D01*
X192008246Y-141198846D01*
X191906066Y-141233275D01*
X191832644Y-141249436D01*
X191762067Y-141269769D01*
X191666506Y-141286005D01*
X191567687Y-141307757D01*
X191486547Y-141316581D01*
X191408286Y-141329879D01*
X191317311Y-141334988D01*
X191223243Y-141345219D01*
X191135133Y-141345219D01*
X191050000Y-141350000D01*
X190964867Y-141345219D01*
X190876757Y-141345219D01*
X190782688Y-141334988D01*
X190691714Y-141329879D01*
X190613453Y-141316582D01*
X190532312Y-141307757D01*
X190433489Y-141286004D01*
X190337933Y-141269769D01*
X190267358Y-141249437D01*
X190193933Y-141233275D01*
X190091746Y-141198844D01*
X189993107Y-141170427D01*
X189930756Y-141144600D01*
X189865595Y-141122645D01*
X189761630Y-141074545D01*
X189661572Y-141033100D01*
X189607742Y-141003349D01*
X189551135Y-140977160D01*
X189447132Y-140914583D01*
X189347497Y-140859517D01*
X189302229Y-140827397D01*
X189254249Y-140798529D01*
X189152049Y-140720839D01*
X189054833Y-140651861D01*
X189017953Y-140618903D01*
X188978417Y-140588849D01*
X188879960Y-140495585D01*
X188787258Y-140412742D01*
X188758326Y-140380368D01*
X188726877Y-140350577D01*
X188634211Y-140241482D01*
X188548139Y-140145167D01*
X188526519Y-140114697D01*
X188502572Y-140086504D01*
X188417740Y-139961387D01*
X188340483Y-139852503D01*
X188325350Y-139825122D01*
X188308133Y-139799729D01*
X188233187Y-139658365D01*
X188166900Y-139538428D01*
X188157252Y-139515138D01*
X188145839Y-139493609D01*
X188082813Y-139335426D01*
X188029573Y-139206893D01*
X188024277Y-139188510D01*
X188017592Y-139171732D01*
X187968369Y-138994449D01*
X187930231Y-138862067D01*
X187928050Y-138849235D01*
X187924901Y-138837891D01*
X187891303Y-138632958D01*
X187870121Y-138508286D01*
X187869733Y-138501386D01*
X187868845Y-138495967D01*
X187852543Y-138195293D01*
X187850000Y-138150000D01*
X187852543Y-138104710D01*
X187868845Y-137804032D01*
X187869733Y-137798611D01*
X187870121Y-137791714D01*
X187891299Y-137667068D01*
X187924901Y-137462108D01*
X187928051Y-137450761D01*
X187930231Y-137437933D01*
X187968361Y-137305576D01*
X188017592Y-137128267D01*
X188024278Y-137111485D01*
X188029573Y-137093107D01*
X188082802Y-136964599D01*
X188145839Y-136806390D01*
X188157254Y-136784857D01*
X188166900Y-136761572D01*
X188233174Y-136641657D01*
X188308133Y-136500270D01*
X188325353Y-136474871D01*
X188340483Y-136447497D01*
X188417725Y-136338634D01*
X188502572Y-136213495D01*
X188526524Y-136185296D01*
X188548139Y-136154833D01*
X188634194Y-136058536D01*
X188726877Y-135949422D01*
X188758332Y-135919625D01*
X188787258Y-135887258D01*
X188879941Y-135804430D01*
X188978417Y-135711150D01*
X189017961Y-135681089D01*
X189054833Y-135648139D01*
X189152029Y-135579174D01*
X189254249Y-135501470D01*
X189302238Y-135472595D01*
X189347497Y-135440483D01*
X189447112Y-135385427D01*
X189551135Y-135322839D01*
X189607753Y-135296644D01*
X189661572Y-135266900D01*
X189761609Y-135225462D01*
X189865595Y-135177354D01*
X189930769Y-135155394D01*
X189993107Y-135129573D01*
X190091726Y-135101161D01*
X190193933Y-135066724D01*
X190267373Y-135050558D01*
X190337933Y-135030231D01*
X190433469Y-135013998D01*
X190532312Y-134992242D01*
X190613466Y-134983415D01*
X190691714Y-134970121D01*
X190782682Y-134965012D01*
X190876757Y-134954781D01*
X190964867Y-134954781D01*
X191050000Y-134950000D01*
X191135133Y-134954781D01*
G37*
G36*
X179645090Y-137419215D02*
G01*
X179832683Y-137476120D01*
X180005570Y-137568530D01*
X180157107Y-137692893D01*
X180281470Y-137844430D01*
X180373880Y-138017317D01*
X180430785Y-138204910D01*
X180450000Y-138400000D01*
X180430785Y-138595090D01*
X180373880Y-138782683D01*
X180281470Y-138955570D01*
X180157107Y-139107107D01*
X180005570Y-139231470D01*
X179832683Y-139323880D01*
X179645090Y-139380785D01*
X179450000Y-139400000D01*
X179254910Y-139380785D01*
X179067317Y-139323880D01*
X178894430Y-139231470D01*
X178742893Y-139107107D01*
X178618530Y-138955570D01*
X178526120Y-138782683D01*
X178469215Y-138595090D01*
X178450000Y-138400000D01*
X178469215Y-138204910D01*
X178526120Y-138017317D01*
X178618530Y-137844430D01*
X178742893Y-137692893D01*
X178894430Y-137568530D01*
X179067317Y-137476120D01*
X179254910Y-137419215D01*
X179450000Y-137400000D01*
X179645090Y-137419215D01*
G37*
G36*
X165897113Y-137404930D02*
G01*
X165944076Y-137404930D01*
X165984622Y-137413548D01*
X166025526Y-137417577D01*
X166076916Y-137433166D01*
X166128115Y-137444049D01*
X166160879Y-137458636D01*
X166194304Y-137468776D01*
X166247420Y-137497166D01*
X166300000Y-137520577D01*
X166324445Y-137538337D01*
X166349849Y-137551916D01*
X166401669Y-137594444D01*
X166452218Y-137631170D01*
X166468631Y-137649398D01*
X166486190Y-137663809D01*
X166533379Y-137721308D01*
X166578115Y-137770993D01*
X166587512Y-137787269D01*
X166598083Y-137800150D01*
X166637183Y-137873302D01*
X166672191Y-137933937D01*
X166676218Y-137946331D01*
X166681223Y-137955695D01*
X166708821Y-138046672D01*
X166730333Y-138112879D01*
X166731090Y-138120082D01*
X166732422Y-138124473D01*
X166745377Y-138256021D01*
X166750000Y-138300000D01*
X166745377Y-138343982D01*
X166732422Y-138475526D01*
X166731090Y-138479916D01*
X166730333Y-138487121D01*
X166708816Y-138553341D01*
X166681223Y-138644304D01*
X166676219Y-138653665D01*
X166672191Y-138666063D01*
X166637176Y-138726709D01*
X166598083Y-138799849D01*
X166587514Y-138812726D01*
X166578115Y-138829007D01*
X166533369Y-138878701D01*
X166486190Y-138936190D01*
X166468634Y-138950597D01*
X166452218Y-138968830D01*
X166401659Y-139005563D01*
X166349849Y-139048083D01*
X166324450Y-139061658D01*
X166300000Y-139079423D01*
X166247408Y-139102838D01*
X166194304Y-139131223D01*
X166160886Y-139141360D01*
X166128115Y-139155951D01*
X166076905Y-139166836D01*
X166025526Y-139182422D01*
X165984631Y-139186449D01*
X165944076Y-139195070D01*
X165897103Y-139195070D01*
X165850000Y-139199709D01*
X165802897Y-139195070D01*
X165755924Y-139195070D01*
X165715368Y-139186449D01*
X165674473Y-139182422D01*
X165623091Y-139166835D01*
X165571885Y-139155951D01*
X165539115Y-139141361D01*
X165505695Y-139131223D01*
X165452585Y-139102835D01*
X165400000Y-139079423D01*
X165375552Y-139061660D01*
X165350150Y-139048083D01*
X165298332Y-139005556D01*
X165247782Y-138968830D01*
X165231368Y-138950600D01*
X165213809Y-138936190D01*
X165166618Y-138878688D01*
X165121885Y-138829007D01*
X165112487Y-138812730D01*
X165101916Y-138799849D01*
X165062810Y-138726686D01*
X165027809Y-138666063D01*
X165023782Y-138653670D01*
X165018776Y-138644304D01*
X164991168Y-138553294D01*
X164969667Y-138487121D01*
X164968910Y-138479921D01*
X164967577Y-138475526D01*
X164954606Y-138343831D01*
X164950000Y-138300000D01*
X164954606Y-138256172D01*
X164967577Y-138124473D01*
X164968910Y-138120077D01*
X164969667Y-138112879D01*
X164991163Y-138046719D01*
X165018776Y-137955695D01*
X165023783Y-137946327D01*
X165027809Y-137933937D01*
X165062802Y-137873326D01*
X165101916Y-137800150D01*
X165112489Y-137787265D01*
X165121885Y-137770993D01*
X165166609Y-137721321D01*
X165213809Y-137663809D01*
X165231371Y-137649395D01*
X165247782Y-137631170D01*
X165298321Y-137594450D01*
X165350150Y-137551916D01*
X165375557Y-137538335D01*
X165400000Y-137520577D01*
X165452573Y-137497169D01*
X165505695Y-137468776D01*
X165539122Y-137458635D01*
X165571885Y-137444049D01*
X165623080Y-137433166D01*
X165674473Y-137417577D01*
X165715377Y-137413548D01*
X165755924Y-137404930D01*
X165802887Y-137404930D01*
X165850000Y-137400290D01*
X165897113Y-137404930D01*
G37*
G36*
X117742771Y-136017205D02*
G01*
X117751789Y-136017205D01*
X117777771Y-136024166D01*
X117839569Y-136036459D01*
X117868738Y-136048541D01*
X117890476Y-136054366D01*
X117909965Y-136065618D01*
X117939133Y-136077700D01*
X117991524Y-136112706D01*
X118014819Y-136126156D01*
X118021194Y-136132531D01*
X118028729Y-136137566D01*
X118104933Y-136213770D01*
X118109967Y-136221304D01*
X118116344Y-136227681D01*
X118129795Y-136250979D01*
X118164799Y-136303366D01*
X118176879Y-136332530D01*
X118188134Y-136352024D01*
X118193959Y-136373765D01*
X118206040Y-136402930D01*
X118218329Y-136464715D01*
X118225295Y-136490711D01*
X118226177Y-136504168D01*
X118227351Y-136510071D01*
X118229709Y-136558071D01*
X118230000Y-136562500D01*
X118230000Y-137162500D01*
X118229709Y-137166931D01*
X118227351Y-137214928D01*
X118226177Y-137220829D01*
X118225295Y-137234289D01*
X118218328Y-137260287D01*
X118206040Y-137322069D01*
X118193960Y-137351231D01*
X118188134Y-137372976D01*
X118176878Y-137392471D01*
X118164799Y-137421633D01*
X118129799Y-137474013D01*
X118116344Y-137497319D01*
X118109965Y-137503697D01*
X118104933Y-137511229D01*
X118028729Y-137587433D01*
X118021197Y-137592465D01*
X118014819Y-137598844D01*
X117991513Y-137612299D01*
X117939133Y-137647299D01*
X117909971Y-137659378D01*
X117890476Y-137670634D01*
X117868731Y-137676460D01*
X117839569Y-137688540D01*
X117777777Y-137700831D01*
X117751789Y-137707795D01*
X117742770Y-137707795D01*
X117733882Y-137709563D01*
X117626118Y-137709563D01*
X117617230Y-137707795D01*
X117608211Y-137707795D01*
X117582223Y-137700831D01*
X117520430Y-137688540D01*
X117491265Y-137676459D01*
X117469524Y-137670634D01*
X117450030Y-137659379D01*
X117420866Y-137647299D01*
X117368479Y-137612295D01*
X117345181Y-137598844D01*
X117338804Y-137592467D01*
X117331270Y-137587433D01*
X117255066Y-137511229D01*
X117250031Y-137503694D01*
X117243656Y-137497319D01*
X117230206Y-137474024D01*
X117195200Y-137421633D01*
X117183118Y-137392465D01*
X117171866Y-137372976D01*
X117166041Y-137351238D01*
X117153959Y-137322069D01*
X117141667Y-137260273D01*
X117134705Y-137234289D01*
X117133823Y-137220837D01*
X117132648Y-137214928D01*
X117130290Y-137166925D01*
X117130000Y-137162500D01*
X117130000Y-136562500D01*
X117130289Y-136558077D01*
X117132648Y-136510071D01*
X117133823Y-136504161D01*
X117134705Y-136490711D01*
X117141666Y-136464729D01*
X117153959Y-136402930D01*
X117166042Y-136373758D01*
X117171866Y-136352024D01*
X117183116Y-136332537D01*
X117195200Y-136303366D01*
X117230211Y-136250968D01*
X117243656Y-136227681D01*
X117250029Y-136221307D01*
X117255066Y-136213770D01*
X117331270Y-136137566D01*
X117338807Y-136132529D01*
X117345181Y-136126156D01*
X117368468Y-136112711D01*
X117420866Y-136077700D01*
X117450037Y-136065616D01*
X117469524Y-136054366D01*
X117491258Y-136048542D01*
X117520430Y-136036459D01*
X117582229Y-136024166D01*
X117608211Y-136017205D01*
X117617229Y-136017205D01*
X117626118Y-136015437D01*
X117733882Y-136015437D01*
X117742771Y-136017205D01*
G37*
G36*
X126382771Y-136017205D02*
G01*
X126391789Y-136017205D01*
X126417771Y-136024166D01*
X126479569Y-136036459D01*
X126508738Y-136048541D01*
X126530476Y-136054366D01*
X126549965Y-136065618D01*
X126579133Y-136077700D01*
X126631524Y-136112706D01*
X126654819Y-136126156D01*
X126661194Y-136132531D01*
X126668729Y-136137566D01*
X126744933Y-136213770D01*
X126749967Y-136221304D01*
X126756344Y-136227681D01*
X126769795Y-136250979D01*
X126804799Y-136303366D01*
X126816879Y-136332530D01*
X126828134Y-136352024D01*
X126833959Y-136373765D01*
X126846040Y-136402930D01*
X126858329Y-136464715D01*
X126865295Y-136490711D01*
X126866177Y-136504168D01*
X126867351Y-136510071D01*
X126869709Y-136558071D01*
X126870000Y-136562500D01*
X126870000Y-137162500D01*
X126869709Y-137166931D01*
X126867351Y-137214928D01*
X126866177Y-137220829D01*
X126865295Y-137234289D01*
X126858328Y-137260287D01*
X126846040Y-137322069D01*
X126833960Y-137351231D01*
X126828134Y-137372976D01*
X126816878Y-137392471D01*
X126804799Y-137421633D01*
X126769799Y-137474013D01*
X126756344Y-137497319D01*
X126749965Y-137503697D01*
X126744933Y-137511229D01*
X126668729Y-137587433D01*
X126661197Y-137592465D01*
X126654819Y-137598844D01*
X126631513Y-137612299D01*
X126579133Y-137647299D01*
X126549971Y-137659378D01*
X126530476Y-137670634D01*
X126508731Y-137676460D01*
X126479569Y-137688540D01*
X126417777Y-137700831D01*
X126391789Y-137707795D01*
X126382770Y-137707795D01*
X126373882Y-137709563D01*
X126266118Y-137709563D01*
X126257230Y-137707795D01*
X126248211Y-137707795D01*
X126222223Y-137700831D01*
X126160430Y-137688540D01*
X126131265Y-137676459D01*
X126109524Y-137670634D01*
X126090030Y-137659379D01*
X126060866Y-137647299D01*
X126008479Y-137612295D01*
X125985181Y-137598844D01*
X125978804Y-137592467D01*
X125971270Y-137587433D01*
X125895066Y-137511229D01*
X125890031Y-137503694D01*
X125883656Y-137497319D01*
X125870206Y-137474024D01*
X125835200Y-137421633D01*
X125823118Y-137392465D01*
X125811866Y-137372976D01*
X125806041Y-137351238D01*
X125793959Y-137322069D01*
X125781667Y-137260273D01*
X125774705Y-137234289D01*
X125773823Y-137220837D01*
X125772648Y-137214928D01*
X125770290Y-137166925D01*
X125770000Y-137162500D01*
X125770000Y-136562500D01*
X125770289Y-136558077D01*
X125772648Y-136510071D01*
X125773823Y-136504161D01*
X125774705Y-136490711D01*
X125781666Y-136464729D01*
X125793959Y-136402930D01*
X125806042Y-136373758D01*
X125811866Y-136352024D01*
X125823116Y-136332537D01*
X125835200Y-136303366D01*
X125870211Y-136250968D01*
X125883656Y-136227681D01*
X125890029Y-136221307D01*
X125895066Y-136213770D01*
X125971270Y-136137566D01*
X125978807Y-136132529D01*
X125985181Y-136126156D01*
X126008468Y-136112711D01*
X126060866Y-136077700D01*
X126090037Y-136065616D01*
X126109524Y-136054366D01*
X126131258Y-136048542D01*
X126160430Y-136036459D01*
X126222229Y-136024166D01*
X126248211Y-136017205D01*
X126257229Y-136017205D01*
X126266118Y-136015437D01*
X126373882Y-136015437D01*
X126382771Y-136017205D01*
G37*
G36*
X166151029Y-134741992D02*
G01*
X166340312Y-134815320D01*
X166512898Y-134922181D01*
X166662910Y-135058935D01*
X166785239Y-135220925D01*
X166875719Y-135402634D01*
X166931270Y-135597876D01*
X166950000Y-135800000D01*
X166931270Y-136002124D01*
X166875719Y-136197366D01*
X166785239Y-136379075D01*
X166662910Y-136541065D01*
X166512898Y-136677819D01*
X166340312Y-136784680D01*
X166151029Y-136858008D01*
X165951495Y-136895308D01*
X165748505Y-136895308D01*
X165548971Y-136858008D01*
X165359688Y-136784680D01*
X165187102Y-136677819D01*
X165037090Y-136541065D01*
X164914761Y-136379075D01*
X164824281Y-136197366D01*
X164768730Y-136002124D01*
X164750000Y-135800000D01*
X164768730Y-135597876D01*
X164824281Y-135402634D01*
X164914761Y-135220925D01*
X165037090Y-135058935D01*
X165187102Y-134922181D01*
X165359688Y-134815320D01*
X165548971Y-134741992D01*
X165748505Y-134704692D01*
X165951495Y-134704692D01*
X166151029Y-134741992D01*
G37*
G36*
X125559984Y-120170037D02*
G01*
X126066824Y-120230026D01*
X126567395Y-120329596D01*
X127058610Y-120468133D01*
X127537442Y-120644783D01*
X128000938Y-120858458D01*
X128446241Y-121107839D01*
X128870604Y-121391390D01*
X129271412Y-121707361D01*
X129646194Y-122053806D01*
X129992639Y-122428588D01*
X130308610Y-122829396D01*
X130592161Y-123253759D01*
X130841542Y-123699062D01*
X131055217Y-124162558D01*
X131231867Y-124641390D01*
X131370404Y-125132605D01*
X131469974Y-125633176D01*
X131529963Y-126140016D01*
X131550000Y-126650000D01*
X131529963Y-127159984D01*
X131469974Y-127666824D01*
X131370404Y-128167395D01*
X131231867Y-128658610D01*
X131055217Y-129137442D01*
X130841542Y-129600938D01*
X130592161Y-130046241D01*
X130308610Y-130470604D01*
X129992639Y-130871412D01*
X129646194Y-131246194D01*
X129271412Y-131592639D01*
X128870604Y-131908610D01*
X128446241Y-132192161D01*
X128000938Y-132441542D01*
X127537442Y-132655217D01*
X127058610Y-132831867D01*
X126567395Y-132970404D01*
X126066824Y-133069974D01*
X125559984Y-133129963D01*
X125050000Y-133150000D01*
X124540016Y-133129963D01*
X124033176Y-133069974D01*
X123532605Y-132970404D01*
X123041390Y-132831867D01*
X122562558Y-132655217D01*
X122099062Y-132441542D01*
X121653759Y-132192161D01*
X121229396Y-131908610D01*
X120828588Y-131592639D01*
X120453806Y-131246194D01*
X120107361Y-130871412D01*
X119791390Y-130470604D01*
X119507839Y-130046241D01*
X119258458Y-129600938D01*
X119044783Y-129137442D01*
X118868133Y-128658610D01*
X118729596Y-128167395D01*
X118630026Y-127666824D01*
X118570037Y-127159984D01*
X118550000Y-126650000D01*
X118570037Y-126140016D01*
X118630026Y-125633176D01*
X118729596Y-125132605D01*
X118868133Y-124641390D01*
X119044783Y-124162558D01*
X119258458Y-123699062D01*
X119507839Y-123253759D01*
X119791390Y-122829396D01*
X120107361Y-122428588D01*
X120453806Y-122053806D01*
X120828588Y-121707361D01*
X121229396Y-121391390D01*
X121653759Y-121107839D01*
X122099062Y-120858458D01*
X122562558Y-120644783D01*
X123041390Y-120468133D01*
X123532605Y-120329596D01*
X124033176Y-120230026D01*
X124540016Y-120170037D01*
X125050000Y-120150000D01*
X125559984Y-120170037D01*
G37*
G36*
X160300000Y-132800000D02*
G01*
X146300000Y-132800000D01*
X146300000Y-126300000D01*
X160300000Y-126300000D01*
X160300000Y-132800000D01*
G37*
G36*
X179299311Y-128762211D02*
G01*
X179341088Y-128762211D01*
X179388218Y-128772228D01*
X179435517Y-128777558D01*
X179469908Y-128789592D01*
X179504610Y-128796968D01*
X179554617Y-128819233D01*
X179604607Y-128836725D01*
X179630628Y-128853075D01*
X179657335Y-128864966D01*
X179707133Y-128901146D01*
X179756292Y-128932035D01*
X179773944Y-128949687D01*
X179792584Y-128963230D01*
X179838665Y-129014408D01*
X179882965Y-129058708D01*
X179893154Y-129074924D01*
X179904446Y-129087465D01*
X179943073Y-129154370D01*
X179978275Y-129210393D01*
X179982670Y-129222953D01*
X179988035Y-129232246D01*
X180015510Y-129316805D01*
X180037442Y-129379483D01*
X180038273Y-129386863D01*
X180039695Y-129391238D01*
X180052576Y-129513806D01*
X180057500Y-129557500D01*
X180052576Y-129601197D01*
X180039695Y-129723761D01*
X180038273Y-129728135D01*
X180037442Y-129735517D01*
X180015505Y-129798207D01*
X179988035Y-129882753D01*
X179982671Y-129892043D01*
X179978275Y-129904607D01*
X179943066Y-129960640D01*
X179904446Y-130027534D01*
X179893156Y-130040072D01*
X179882965Y-130056292D01*
X179838655Y-130100601D01*
X179792584Y-130151769D01*
X179773948Y-130165308D01*
X179756292Y-130182965D01*
X179707123Y-130213859D01*
X179657335Y-130250033D01*
X179630634Y-130261921D01*
X179604607Y-130278275D01*
X179554607Y-130295770D01*
X179504610Y-130318031D01*
X179469914Y-130325405D01*
X179435517Y-130337442D01*
X179388215Y-130342771D01*
X179341088Y-130352789D01*
X179299311Y-130352789D01*
X179257500Y-130357500D01*
X179215689Y-130352789D01*
X179173912Y-130352789D01*
X179126784Y-130342771D01*
X179079483Y-130337442D01*
X179045086Y-130325406D01*
X179010389Y-130318031D01*
X178960387Y-130295768D01*
X178910393Y-130278275D01*
X178884368Y-130261922D01*
X178857664Y-130250033D01*
X178807869Y-130213855D01*
X178758708Y-130182965D01*
X178741054Y-130165311D01*
X178722415Y-130151769D01*
X178676333Y-130100590D01*
X178632035Y-130056292D01*
X178621845Y-130040075D01*
X178610553Y-130027534D01*
X178571920Y-129960620D01*
X178536725Y-129904607D01*
X178532330Y-129892047D01*
X178526964Y-129882753D01*
X178499480Y-129798167D01*
X178477558Y-129735517D01*
X178476726Y-129728139D01*
X178475304Y-129723761D01*
X178462408Y-129601065D01*
X178457500Y-129557500D01*
X178462408Y-129513938D01*
X178475304Y-129391238D01*
X178476726Y-129386858D01*
X178477558Y-129379483D01*
X178499475Y-129316845D01*
X178526964Y-129232246D01*
X178532331Y-129222949D01*
X178536725Y-129210393D01*
X178571913Y-129154390D01*
X178610553Y-129087465D01*
X178621847Y-129074921D01*
X178632035Y-129058708D01*
X178676326Y-129014416D01*
X178722417Y-128963228D01*
X178741059Y-128949683D01*
X178758708Y-128932035D01*
X178807854Y-128901154D01*
X178857662Y-128864967D01*
X178884373Y-128853074D01*
X178910393Y-128836725D01*
X178960377Y-128819234D01*
X179010389Y-128796968D01*
X179045092Y-128789591D01*
X179079483Y-128777558D01*
X179126781Y-128772228D01*
X179173912Y-128762211D01*
X179215689Y-128762211D01*
X179257500Y-128757500D01*
X179299311Y-128762211D01*
G37*
G36*
X165891811Y-126294711D02*
G01*
X165933588Y-126294711D01*
X165980718Y-126304728D01*
X166028017Y-126310058D01*
X166062408Y-126322092D01*
X166097110Y-126329468D01*
X166147117Y-126351733D01*
X166197107Y-126369225D01*
X166223128Y-126385575D01*
X166249835Y-126397466D01*
X166299633Y-126433646D01*
X166348792Y-126464535D01*
X166366444Y-126482187D01*
X166385084Y-126495730D01*
X166431165Y-126546908D01*
X166475465Y-126591208D01*
X166485654Y-126607424D01*
X166496946Y-126619965D01*
X166535573Y-126686870D01*
X166570775Y-126742893D01*
X166575170Y-126755453D01*
X166580535Y-126764746D01*
X166608010Y-126849305D01*
X166629942Y-126911983D01*
X166630773Y-126919363D01*
X166632195Y-126923738D01*
X166645076Y-127046306D01*
X166650000Y-127090000D01*
X166645076Y-127133697D01*
X166632195Y-127256261D01*
X166630773Y-127260635D01*
X166629942Y-127268017D01*
X166608005Y-127330707D01*
X166580535Y-127415253D01*
X166575171Y-127424543D01*
X166570775Y-127437107D01*
X166535566Y-127493140D01*
X166496946Y-127560034D01*
X166485656Y-127572572D01*
X166475465Y-127588792D01*
X166431155Y-127633101D01*
X166385084Y-127684269D01*
X166366448Y-127697808D01*
X166348792Y-127715465D01*
X166299623Y-127746359D01*
X166249835Y-127782533D01*
X166223134Y-127794421D01*
X166197107Y-127810775D01*
X166147107Y-127828270D01*
X166097110Y-127850531D01*
X166062414Y-127857905D01*
X166028017Y-127869942D01*
X165980715Y-127875271D01*
X165933588Y-127885289D01*
X165891811Y-127885289D01*
X165850000Y-127890000D01*
X165808189Y-127885289D01*
X165766412Y-127885289D01*
X165719284Y-127875271D01*
X165671983Y-127869942D01*
X165637586Y-127857906D01*
X165602889Y-127850531D01*
X165552887Y-127828268D01*
X165502893Y-127810775D01*
X165476868Y-127794422D01*
X165450164Y-127782533D01*
X165400369Y-127746355D01*
X165351208Y-127715465D01*
X165333554Y-127697811D01*
X165314915Y-127684269D01*
X165268833Y-127633090D01*
X165224535Y-127588792D01*
X165214345Y-127572575D01*
X165203053Y-127560034D01*
X165164420Y-127493120D01*
X165129225Y-127437107D01*
X165124830Y-127424547D01*
X165119464Y-127415253D01*
X165091980Y-127330667D01*
X165070058Y-127268017D01*
X165069226Y-127260639D01*
X165067804Y-127256261D01*
X165054908Y-127133565D01*
X165050000Y-127090000D01*
X165054908Y-127046438D01*
X165067804Y-126923738D01*
X165069226Y-126919358D01*
X165070058Y-126911983D01*
X165091975Y-126849345D01*
X165119464Y-126764746D01*
X165124831Y-126755449D01*
X165129225Y-126742893D01*
X165164413Y-126686890D01*
X165203053Y-126619965D01*
X165214347Y-126607421D01*
X165224535Y-126591208D01*
X165268826Y-126546916D01*
X165314917Y-126495728D01*
X165333559Y-126482183D01*
X165351208Y-126464535D01*
X165400354Y-126433654D01*
X165450162Y-126397467D01*
X165476873Y-126385574D01*
X165502893Y-126369225D01*
X165552877Y-126351734D01*
X165602889Y-126329468D01*
X165637592Y-126322091D01*
X165671983Y-126310058D01*
X165719281Y-126304728D01*
X165766412Y-126294711D01*
X165808189Y-126294711D01*
X165850000Y-126290000D01*
X165891811Y-126294711D01*
G37*
G36*
X160300000Y-125300000D02*
G01*
X146300000Y-125300000D01*
X146300000Y-118800000D01*
X160300000Y-118800000D01*
X160300000Y-125300000D01*
G37*
G36*
X179299311Y-123682211D02*
G01*
X179341088Y-123682211D01*
X179388218Y-123692228D01*
X179435517Y-123697558D01*
X179469908Y-123709592D01*
X179504610Y-123716968D01*
X179554617Y-123739233D01*
X179604607Y-123756725D01*
X179630628Y-123773075D01*
X179657335Y-123784966D01*
X179707133Y-123821146D01*
X179756292Y-123852035D01*
X179773944Y-123869687D01*
X179792584Y-123883230D01*
X179838665Y-123934408D01*
X179882965Y-123978708D01*
X179893154Y-123994924D01*
X179904446Y-124007465D01*
X179943073Y-124074370D01*
X179978275Y-124130393D01*
X179982670Y-124142953D01*
X179988035Y-124152246D01*
X180015510Y-124236805D01*
X180037442Y-124299483D01*
X180038273Y-124306863D01*
X180039695Y-124311238D01*
X180052576Y-124433806D01*
X180057500Y-124477500D01*
X180052576Y-124521197D01*
X180039695Y-124643761D01*
X180038273Y-124648135D01*
X180037442Y-124655517D01*
X180015505Y-124718207D01*
X179988035Y-124802753D01*
X179982671Y-124812043D01*
X179978275Y-124824607D01*
X179943066Y-124880640D01*
X179904446Y-124947534D01*
X179893156Y-124960072D01*
X179882965Y-124976292D01*
X179838655Y-125020601D01*
X179792584Y-125071769D01*
X179773948Y-125085308D01*
X179756292Y-125102965D01*
X179707123Y-125133859D01*
X179657335Y-125170033D01*
X179630634Y-125181921D01*
X179604607Y-125198275D01*
X179554607Y-125215770D01*
X179504610Y-125238031D01*
X179469914Y-125245405D01*
X179435517Y-125257442D01*
X179388215Y-125262771D01*
X179341088Y-125272789D01*
X179299311Y-125272789D01*
X179257500Y-125277500D01*
X179215689Y-125272789D01*
X179173912Y-125272789D01*
X179126784Y-125262771D01*
X179079483Y-125257442D01*
X179045086Y-125245406D01*
X179010389Y-125238031D01*
X178960387Y-125215768D01*
X178910393Y-125198275D01*
X178884368Y-125181922D01*
X178857664Y-125170033D01*
X178807869Y-125133855D01*
X178758708Y-125102965D01*
X178741054Y-125085311D01*
X178722415Y-125071769D01*
X178676333Y-125020590D01*
X178632035Y-124976292D01*
X178621845Y-124960075D01*
X178610553Y-124947534D01*
X178571920Y-124880620D01*
X178536725Y-124824607D01*
X178532330Y-124812047D01*
X178526964Y-124802753D01*
X178499480Y-124718167D01*
X178477558Y-124655517D01*
X178476726Y-124648139D01*
X178475304Y-124643761D01*
X178462408Y-124521065D01*
X178457500Y-124477500D01*
X178462408Y-124433938D01*
X178475304Y-124311238D01*
X178476726Y-124306858D01*
X178477558Y-124299483D01*
X178499475Y-124236845D01*
X178526964Y-124152246D01*
X178532331Y-124142949D01*
X178536725Y-124130393D01*
X178571913Y-124074390D01*
X178610553Y-124007465D01*
X178621847Y-123994921D01*
X178632035Y-123978708D01*
X178676326Y-123934416D01*
X178722417Y-123883228D01*
X178741059Y-123869683D01*
X178758708Y-123852035D01*
X178807854Y-123821154D01*
X178857662Y-123784967D01*
X178884373Y-123773074D01*
X178910393Y-123756725D01*
X178960377Y-123739234D01*
X179010389Y-123716968D01*
X179045092Y-123709591D01*
X179079483Y-123697558D01*
X179126781Y-123692228D01*
X179173912Y-123682211D01*
X179215689Y-123682211D01*
X179257500Y-123677500D01*
X179299311Y-123682211D01*
G37*
G36*
X165891811Y-121214711D02*
G01*
X165933588Y-121214711D01*
X165980718Y-121224728D01*
X166028017Y-121230058D01*
X166062408Y-121242092D01*
X166097110Y-121249468D01*
X166147117Y-121271733D01*
X166197107Y-121289225D01*
X166223128Y-121305575D01*
X166249835Y-121317466D01*
X166299633Y-121353646D01*
X166348792Y-121384535D01*
X166366444Y-121402187D01*
X166385084Y-121415730D01*
X166431165Y-121466908D01*
X166475465Y-121511208D01*
X166485654Y-121527424D01*
X166496946Y-121539965D01*
X166535573Y-121606870D01*
X166570775Y-121662893D01*
X166575170Y-121675453D01*
X166580535Y-121684746D01*
X166608010Y-121769305D01*
X166629942Y-121831983D01*
X166630773Y-121839363D01*
X166632195Y-121843738D01*
X166645088Y-121966413D01*
X166650000Y-122010000D01*
X166645086Y-122053610D01*
X166632195Y-122176261D01*
X166630773Y-122180635D01*
X166629942Y-122188017D01*
X166608005Y-122250707D01*
X166580535Y-122335253D01*
X166575171Y-122344543D01*
X166570775Y-122357107D01*
X166535566Y-122413140D01*
X166496946Y-122480034D01*
X166485656Y-122492572D01*
X166475465Y-122508792D01*
X166431155Y-122553101D01*
X166385084Y-122604269D01*
X166366448Y-122617808D01*
X166348792Y-122635465D01*
X166299623Y-122666359D01*
X166249835Y-122702533D01*
X166223134Y-122714421D01*
X166197107Y-122730775D01*
X166147107Y-122748270D01*
X166097110Y-122770531D01*
X166062414Y-122777905D01*
X166028017Y-122789942D01*
X165980715Y-122795271D01*
X165933588Y-122805289D01*
X165891811Y-122805289D01*
X165850000Y-122810000D01*
X165808189Y-122805289D01*
X165766412Y-122805289D01*
X165719284Y-122795271D01*
X165671983Y-122789942D01*
X165637586Y-122777906D01*
X165602889Y-122770531D01*
X165552887Y-122748268D01*
X165502893Y-122730775D01*
X165476868Y-122714422D01*
X165450164Y-122702533D01*
X165400369Y-122666355D01*
X165351208Y-122635465D01*
X165333554Y-122617811D01*
X165314915Y-122604269D01*
X165268833Y-122553090D01*
X165224535Y-122508792D01*
X165214345Y-122492575D01*
X165203053Y-122480034D01*
X165164420Y-122413120D01*
X165129225Y-122357107D01*
X165124830Y-122344547D01*
X165119464Y-122335253D01*
X165091980Y-122250667D01*
X165070058Y-122188017D01*
X165069226Y-122180639D01*
X165067804Y-122176261D01*
X165054909Y-122053575D01*
X165050000Y-122010000D01*
X165054907Y-121966448D01*
X165067804Y-121843738D01*
X165069226Y-121839358D01*
X165070058Y-121831983D01*
X165091975Y-121769345D01*
X165119464Y-121684746D01*
X165124831Y-121675449D01*
X165129225Y-121662893D01*
X165164413Y-121606890D01*
X165203053Y-121539965D01*
X165214347Y-121527421D01*
X165224535Y-121511208D01*
X165268826Y-121466916D01*
X165314917Y-121415728D01*
X165333559Y-121402183D01*
X165351208Y-121384535D01*
X165400354Y-121353654D01*
X165450162Y-121317467D01*
X165476873Y-121305574D01*
X165502893Y-121289225D01*
X165552877Y-121271734D01*
X165602889Y-121249468D01*
X165637592Y-121242091D01*
X165671983Y-121230058D01*
X165719281Y-121224728D01*
X165766412Y-121214711D01*
X165808189Y-121214711D01*
X165850000Y-121210000D01*
X165891811Y-121214711D01*
G37*
G36*
X191185336Y-120068254D02*
G01*
X191363549Y-120122314D01*
X191527792Y-120210104D01*
X191671751Y-120328249D01*
X191789896Y-120472208D01*
X191877686Y-120636451D01*
X191931746Y-120814664D01*
X191950000Y-121000000D01*
X191931746Y-121185336D01*
X191877686Y-121363549D01*
X191789896Y-121527792D01*
X191671751Y-121671751D01*
X191527792Y-121789896D01*
X191363549Y-121877686D01*
X191185336Y-121931746D01*
X191000000Y-121950000D01*
X190814664Y-121931746D01*
X190636451Y-121877686D01*
X190472208Y-121789896D01*
X190328249Y-121671751D01*
X190210104Y-121527792D01*
X190122314Y-121363549D01*
X190068254Y-121185336D01*
X190050000Y-121000000D01*
X190068254Y-120814664D01*
X190122314Y-120636451D01*
X190210104Y-120472208D01*
X190328249Y-120328249D01*
X190472208Y-120210104D01*
X190636451Y-120122314D01*
X190814664Y-120068254D01*
X191000000Y-120050000D01*
X191185336Y-120068254D01*
G37*
G36*
X191185336Y-117528254D02*
G01*
X191363549Y-117582314D01*
X191527792Y-117670104D01*
X191671751Y-117788249D01*
X191789896Y-117932208D01*
X191877686Y-118096451D01*
X191931746Y-118274664D01*
X191950000Y-118460000D01*
X191931746Y-118645336D01*
X191877686Y-118823549D01*
X191789896Y-118987792D01*
X191671751Y-119131751D01*
X191527792Y-119249896D01*
X191363549Y-119337686D01*
X191185336Y-119391746D01*
X191000000Y-119410000D01*
X190814664Y-119391746D01*
X190636451Y-119337686D01*
X190472208Y-119249896D01*
X190328249Y-119131751D01*
X190210104Y-118987792D01*
X190122314Y-118823549D01*
X190068254Y-118645336D01*
X190050000Y-118460000D01*
X190068254Y-118274664D01*
X190122314Y-118096451D01*
X190210104Y-117932208D01*
X190328249Y-117788249D01*
X190472208Y-117670104D01*
X190636451Y-117582314D01*
X190814664Y-117528254D01*
X191000000Y-117510000D01*
X191185336Y-117528254D01*
G37*
G36*
X179645090Y-114919215D02*
G01*
X179832683Y-114976120D01*
X180005570Y-115068530D01*
X180157107Y-115192893D01*
X180281470Y-115344430D01*
X180373880Y-115517317D01*
X180430785Y-115704910D01*
X180450000Y-115900000D01*
X180430785Y-116095090D01*
X180373880Y-116282683D01*
X180281470Y-116455570D01*
X180157107Y-116607107D01*
X180005570Y-116731470D01*
X179832683Y-116823880D01*
X179645090Y-116880785D01*
X179450000Y-116900000D01*
X179254910Y-116880785D01*
X179067317Y-116823880D01*
X178894430Y-116731470D01*
X178742893Y-116607107D01*
X178618530Y-116455570D01*
X178526120Y-116282683D01*
X178469215Y-116095090D01*
X178450000Y-115900000D01*
X178469215Y-115704910D01*
X178526120Y-115517317D01*
X178618530Y-115344430D01*
X178742893Y-115192893D01*
X178894430Y-115068530D01*
X179067317Y-114976120D01*
X179254910Y-114919215D01*
X179450000Y-114900000D01*
X179645090Y-114919215D01*
G37*
G36*
X115059984Y-103670037D02*
G01*
X115566824Y-103730026D01*
X116067395Y-103829596D01*
X116558610Y-103968133D01*
X117037442Y-104144783D01*
X117500938Y-104358458D01*
X117946241Y-104607839D01*
X118370604Y-104891390D01*
X118771412Y-105207361D01*
X119146194Y-105553806D01*
X119492639Y-105928588D01*
X119808610Y-106329396D01*
X120092161Y-106753759D01*
X120341542Y-107199062D01*
X120555217Y-107662558D01*
X120731867Y-108141390D01*
X120870404Y-108632605D01*
X120969974Y-109133176D01*
X121029963Y-109640016D01*
X121050000Y-110150000D01*
X121029963Y-110659984D01*
X120969974Y-111166824D01*
X120870404Y-111667395D01*
X120731867Y-112158610D01*
X120555217Y-112637442D01*
X120341542Y-113100938D01*
X120092161Y-113546241D01*
X119808610Y-113970604D01*
X119492639Y-114371412D01*
X119146194Y-114746194D01*
X118771412Y-115092639D01*
X118370604Y-115408610D01*
X117946241Y-115692161D01*
X117500938Y-115941542D01*
X117037442Y-116155217D01*
X116558610Y-116331867D01*
X116067395Y-116470404D01*
X115566824Y-116569974D01*
X115059984Y-116629963D01*
X114550000Y-116650000D01*
X114040016Y-116629963D01*
X113533176Y-116569974D01*
X113032605Y-116470404D01*
X112541390Y-116331867D01*
X112062558Y-116155217D01*
X111599062Y-115941542D01*
X111153759Y-115692161D01*
X110729396Y-115408610D01*
X110328588Y-115092639D01*
X109953806Y-114746194D01*
X109607361Y-114371412D01*
X109291390Y-113970604D01*
X109007839Y-113546241D01*
X108758458Y-113100938D01*
X108544783Y-112637442D01*
X108368133Y-112158610D01*
X108229596Y-111667395D01*
X108130026Y-111166824D01*
X108070037Y-110659984D01*
X108050000Y-110150000D01*
X108070037Y-109640016D01*
X108130026Y-109133176D01*
X108229596Y-108632605D01*
X108368133Y-108141390D01*
X108544783Y-107662558D01*
X108758458Y-107199062D01*
X109007839Y-106753759D01*
X109291390Y-106329396D01*
X109607361Y-105928588D01*
X109953806Y-105553806D01*
X110328588Y-105207361D01*
X110729396Y-104891390D01*
X111153759Y-104607839D01*
X111599062Y-104358458D01*
X112062558Y-104144783D01*
X112541390Y-103968133D01*
X113032605Y-103829596D01*
X113533176Y-103730026D01*
X114040016Y-103670037D01*
X114550000Y-103650000D01*
X115059984Y-103670037D01*
G37*
G36*
X136059984Y-103670037D02*
G01*
X136566824Y-103730026D01*
X137067395Y-103829596D01*
X137558610Y-103968133D01*
X138037442Y-104144783D01*
X138500938Y-104358458D01*
X138946241Y-104607839D01*
X139370604Y-104891390D01*
X139771412Y-105207361D01*
X140146194Y-105553806D01*
X140492639Y-105928588D01*
X140808610Y-106329396D01*
X141092161Y-106753759D01*
X141341542Y-107199062D01*
X141555217Y-107662558D01*
X141731867Y-108141390D01*
X141870404Y-108632605D01*
X141969974Y-109133176D01*
X142029963Y-109640016D01*
X142050000Y-110150000D01*
X142029963Y-110659984D01*
X141969974Y-111166824D01*
X141870404Y-111667395D01*
X141731867Y-112158610D01*
X141555217Y-112637442D01*
X141341542Y-113100938D01*
X141092161Y-113546241D01*
X140808610Y-113970604D01*
X140492639Y-114371412D01*
X140146194Y-114746194D01*
X139771412Y-115092639D01*
X139370604Y-115408610D01*
X138946241Y-115692161D01*
X138500938Y-115941542D01*
X138037442Y-116155217D01*
X137558610Y-116331867D01*
X137067395Y-116470404D01*
X136566824Y-116569974D01*
X136059984Y-116629963D01*
X135550000Y-116650000D01*
X135040016Y-116629963D01*
X134533176Y-116569974D01*
X134032605Y-116470404D01*
X133541390Y-116331867D01*
X133062558Y-116155217D01*
X132599062Y-115941542D01*
X132153759Y-115692161D01*
X131729396Y-115408610D01*
X131328588Y-115092639D01*
X130953806Y-114746194D01*
X130607361Y-114371412D01*
X130291390Y-113970604D01*
X130007839Y-113546241D01*
X129758458Y-113100938D01*
X129544783Y-112637442D01*
X129368133Y-112158610D01*
X129229596Y-111667395D01*
X129130026Y-111166824D01*
X129070037Y-110659984D01*
X129050000Y-110150000D01*
X129070037Y-109640016D01*
X129130026Y-109133176D01*
X129229596Y-108632605D01*
X129368133Y-108141390D01*
X129544783Y-107662558D01*
X129758458Y-107199062D01*
X130007839Y-106753759D01*
X130291390Y-106329396D01*
X130607361Y-105928588D01*
X130953806Y-105553806D01*
X131328588Y-105207361D01*
X131729396Y-104891390D01*
X132153759Y-104607839D01*
X132599062Y-104358458D01*
X133062558Y-104144783D01*
X133541390Y-103968133D01*
X134032605Y-103829596D01*
X134533176Y-103730026D01*
X135040016Y-103670037D01*
X135550000Y-103650000D01*
X136059984Y-103670037D01*
G37*
G36*
X166151029Y-112241992D02*
G01*
X166340312Y-112315320D01*
X166512898Y-112422181D01*
X166662910Y-112558935D01*
X166785239Y-112720925D01*
X166875719Y-112902634D01*
X166931270Y-113097876D01*
X166950000Y-113300000D01*
X166931270Y-113502124D01*
X166875719Y-113697366D01*
X166785239Y-113879075D01*
X166662910Y-114041065D01*
X166512898Y-114177819D01*
X166340312Y-114284680D01*
X166151029Y-114358008D01*
X165951495Y-114395308D01*
X165748505Y-114395308D01*
X165548971Y-114358008D01*
X165359688Y-114284680D01*
X165187102Y-114177819D01*
X165037090Y-114041065D01*
X164914761Y-113879075D01*
X164824281Y-113697366D01*
X164768730Y-113502124D01*
X164750000Y-113300000D01*
X164768730Y-113097876D01*
X164824281Y-112902634D01*
X164914761Y-112720925D01*
X165037090Y-112558935D01*
X165187102Y-112422181D01*
X165359688Y-112315320D01*
X165548971Y-112241992D01*
X165748505Y-112204692D01*
X165951495Y-112204692D01*
X166151029Y-112241992D01*
G37*
G36*
X177935249Y-108341925D02*
G01*
X178185184Y-108419020D01*
X178420837Y-108532505D01*
X178636944Y-108679844D01*
X178828678Y-108857747D01*
X178991755Y-109062239D01*
X179122533Y-109288752D01*
X179218089Y-109532227D01*
X179276291Y-109787225D01*
X179295837Y-110048049D01*
X179276291Y-110308873D01*
X179218089Y-110563871D01*
X179122533Y-110807346D01*
X178991755Y-111033859D01*
X178828678Y-111238351D01*
X178636944Y-111416254D01*
X178420837Y-111563593D01*
X178185184Y-111677078D01*
X177935249Y-111754173D01*
X177676615Y-111793156D01*
X177415059Y-111793156D01*
X177156425Y-111754173D01*
X176906490Y-111677078D01*
X176670837Y-111563593D01*
X176454730Y-111416254D01*
X176262996Y-111238351D01*
X176099919Y-111033859D01*
X175969141Y-110807346D01*
X175873585Y-110563871D01*
X175815383Y-110308873D01*
X175795837Y-110048049D01*
X175815383Y-109787225D01*
X175873585Y-109532227D01*
X175969141Y-109288752D01*
X176099919Y-109062239D01*
X176262996Y-108857747D01*
X176454730Y-108679844D01*
X176670837Y-108532505D01*
X176906490Y-108419020D01*
X177156425Y-108341925D01*
X177415059Y-108302942D01*
X177676615Y-108302942D01*
X177935249Y-108341925D01*
G37*
G36*
X184535249Y-108341925D02*
G01*
X184785184Y-108419020D01*
X185020837Y-108532505D01*
X185236944Y-108679844D01*
X185428678Y-108857747D01*
X185591755Y-109062239D01*
X185722533Y-109288752D01*
X185818089Y-109532227D01*
X185876291Y-109787225D01*
X185895837Y-110048049D01*
X185876291Y-110308873D01*
X185818089Y-110563871D01*
X185722533Y-110807346D01*
X185591755Y-111033859D01*
X185428678Y-111238351D01*
X185236944Y-111416254D01*
X185020837Y-111563593D01*
X184785184Y-111677078D01*
X184535249Y-111754173D01*
X184276615Y-111793156D01*
X184015059Y-111793156D01*
X183756425Y-111754173D01*
X183506490Y-111677078D01*
X183270837Y-111563593D01*
X183054730Y-111416254D01*
X182862996Y-111238351D01*
X182699919Y-111033859D01*
X182569141Y-110807346D01*
X182473585Y-110563871D01*
X182415383Y-110308873D01*
X182395837Y-110048049D01*
X182415383Y-109787225D01*
X182473585Y-109532227D01*
X182569141Y-109288752D01*
X182699919Y-109062239D01*
X182862996Y-108857747D01*
X183054730Y-108679844D01*
X183270837Y-108532505D01*
X183506490Y-108419020D01*
X183756425Y-108341925D01*
X184015059Y-108302942D01*
X184276615Y-108302942D01*
X184535249Y-108341925D01*
G37*
G36*
X165897113Y-109904930D02*
G01*
X165944076Y-109904930D01*
X165984622Y-109913548D01*
X166025526Y-109917577D01*
X166076916Y-109933166D01*
X166128115Y-109944049D01*
X166160879Y-109958636D01*
X166194304Y-109968776D01*
X166247420Y-109997166D01*
X166300000Y-110020577D01*
X166324445Y-110038337D01*
X166349849Y-110051916D01*
X166401669Y-110094444D01*
X166452218Y-110131170D01*
X166468631Y-110149398D01*
X166486190Y-110163809D01*
X166533379Y-110221308D01*
X166578115Y-110270993D01*
X166587512Y-110287269D01*
X166598083Y-110300150D01*
X166637183Y-110373302D01*
X166672191Y-110433937D01*
X166676218Y-110446331D01*
X166681223Y-110455695D01*
X166708821Y-110546672D01*
X166730333Y-110612879D01*
X166731090Y-110620082D01*
X166732422Y-110624473D01*
X166745377Y-110756021D01*
X166750000Y-110800000D01*
X166745377Y-110843982D01*
X166732422Y-110975526D01*
X166731090Y-110979916D01*
X166730333Y-110987121D01*
X166708816Y-111053341D01*
X166681223Y-111144304D01*
X166676219Y-111153665D01*
X166672191Y-111166063D01*
X166637176Y-111226709D01*
X166598083Y-111299849D01*
X166587514Y-111312726D01*
X166578115Y-111329007D01*
X166533369Y-111378701D01*
X166486190Y-111436190D01*
X166468634Y-111450597D01*
X166452218Y-111468830D01*
X166401659Y-111505563D01*
X166349849Y-111548083D01*
X166324450Y-111561658D01*
X166300000Y-111579423D01*
X166247408Y-111602838D01*
X166194304Y-111631223D01*
X166160886Y-111641360D01*
X166128115Y-111655951D01*
X166076905Y-111666836D01*
X166025526Y-111682422D01*
X165984631Y-111686449D01*
X165944076Y-111695070D01*
X165897103Y-111695070D01*
X165850000Y-111699709D01*
X165802897Y-111695070D01*
X165755924Y-111695070D01*
X165715368Y-111686449D01*
X165674473Y-111682422D01*
X165623091Y-111666835D01*
X165571885Y-111655951D01*
X165539115Y-111641361D01*
X165505695Y-111631223D01*
X165452585Y-111602835D01*
X165400000Y-111579423D01*
X165375552Y-111561660D01*
X165350150Y-111548083D01*
X165298332Y-111505556D01*
X165247782Y-111468830D01*
X165231368Y-111450600D01*
X165213809Y-111436190D01*
X165166618Y-111378688D01*
X165121885Y-111329007D01*
X165112487Y-111312730D01*
X165101916Y-111299849D01*
X165062810Y-111226686D01*
X165027809Y-111166063D01*
X165023782Y-111153670D01*
X165018776Y-111144304D01*
X164991168Y-111053294D01*
X164969667Y-110987121D01*
X164968910Y-110979921D01*
X164967577Y-110975526D01*
X164954606Y-110843831D01*
X164950000Y-110800000D01*
X164954606Y-110756172D01*
X164967577Y-110624473D01*
X164968910Y-110620077D01*
X164969667Y-110612879D01*
X164991163Y-110546719D01*
X165018776Y-110455695D01*
X165023783Y-110446327D01*
X165027809Y-110433937D01*
X165062802Y-110373326D01*
X165101916Y-110300150D01*
X165112489Y-110287265D01*
X165121885Y-110270993D01*
X165166609Y-110221321D01*
X165213809Y-110163809D01*
X165231371Y-110149395D01*
X165247782Y-110131170D01*
X165298321Y-110094450D01*
X165350150Y-110051916D01*
X165375557Y-110038335D01*
X165400000Y-110020577D01*
X165452573Y-109997169D01*
X165505695Y-109968776D01*
X165539122Y-109958635D01*
X165571885Y-109944049D01*
X165623080Y-109933166D01*
X165674473Y-109917577D01*
X165715377Y-109913548D01*
X165755924Y-109904930D01*
X165802887Y-109904930D01*
X165850000Y-109900290D01*
X165897113Y-109904930D01*
G37*
G36*
X181040927Y-105767264D02*
G01*
X181228520Y-105824169D01*
X181401407Y-105916579D01*
X181552944Y-106040942D01*
X181677307Y-106192479D01*
X181769717Y-106365366D01*
X181826622Y-106552959D01*
X181845837Y-106748049D01*
X181826622Y-106943139D01*
X181769717Y-107130732D01*
X181677307Y-107303619D01*
X181552944Y-107455156D01*
X181401407Y-107579519D01*
X181228520Y-107671929D01*
X181040927Y-107728834D01*
X180845837Y-107748049D01*
X180650747Y-107728834D01*
X180463154Y-107671929D01*
X180290267Y-107579519D01*
X180138730Y-107455156D01*
X180014367Y-107303619D01*
X179921957Y-107130732D01*
X179865052Y-106943139D01*
X179845837Y-106748049D01*
X179865052Y-106552959D01*
X179921957Y-106365366D01*
X180014367Y-106192479D01*
X180138730Y-106040942D01*
X180290267Y-105916579D01*
X180463154Y-105824169D01*
X180650747Y-105767264D01*
X180845837Y-105748049D01*
X181040927Y-105767264D01*
G37*
G36*
X163118076Y-104944735D02*
G01*
X163166860Y-104944735D01*
X163221187Y-104954890D01*
X163274845Y-104960175D01*
X163315606Y-104972539D01*
X163357276Y-104980329D01*
X163414985Y-105002685D01*
X163471818Y-105019926D01*
X163504294Y-105037284D01*
X163537910Y-105050308D01*
X163596323Y-105086476D01*
X163653349Y-105116957D01*
X163677306Y-105136618D01*
X163702609Y-105152285D01*
X163758674Y-105203395D01*
X163812462Y-105247538D01*
X163828401Y-105266960D01*
X163845769Y-105282793D01*
X163896187Y-105349557D01*
X163943043Y-105406651D01*
X163952103Y-105423602D01*
X163962509Y-105437381D01*
X164003895Y-105520498D01*
X164040074Y-105588182D01*
X164043933Y-105600905D01*
X164048854Y-105610787D01*
X164077927Y-105712969D01*
X164099825Y-105785155D01*
X164100544Y-105792456D01*
X164101869Y-105797113D01*
X164115653Y-105945868D01*
X164120000Y-105990000D01*
X164115653Y-106034135D01*
X164101869Y-106182886D01*
X164100544Y-106187541D01*
X164099825Y-106194845D01*
X164077923Y-106267045D01*
X164048854Y-106369212D01*
X164043934Y-106379092D01*
X164040074Y-106391818D01*
X164003888Y-106459515D01*
X163962509Y-106542618D01*
X163952105Y-106556394D01*
X163943043Y-106573349D01*
X163896177Y-106630454D01*
X163845769Y-106697206D01*
X163828405Y-106713035D01*
X163812462Y-106732462D01*
X163758663Y-106776613D01*
X163702609Y-106827714D01*
X163677311Y-106843377D01*
X163653349Y-106863043D01*
X163596312Y-106893530D01*
X163537910Y-106929691D01*
X163504300Y-106942711D01*
X163471818Y-106960074D01*
X163414973Y-106977317D01*
X163357276Y-106999670D01*
X163315613Y-107007458D01*
X163274845Y-107019825D01*
X163221184Y-107025109D01*
X163166860Y-107035265D01*
X163118076Y-107035265D01*
X163070000Y-107040000D01*
X163021924Y-107035265D01*
X162973140Y-107035265D01*
X162918814Y-107025109D01*
X162865155Y-107019825D01*
X162824388Y-107007458D01*
X162782723Y-106999670D01*
X162725022Y-106977316D01*
X162668182Y-106960074D01*
X162635701Y-106942712D01*
X162602089Y-106929691D01*
X162543680Y-106893526D01*
X162486651Y-106863043D01*
X162462691Y-106843380D01*
X162437390Y-106827714D01*
X162381326Y-106776605D01*
X162327538Y-106732462D01*
X162311597Y-106713038D01*
X162294230Y-106697206D01*
X162243809Y-106630438D01*
X162196957Y-106573349D01*
X162187896Y-106556398D01*
X162177490Y-106542618D01*
X162136096Y-106459488D01*
X162099926Y-106391818D01*
X162096067Y-106379097D01*
X162091145Y-106369212D01*
X162062060Y-106266992D01*
X162040175Y-106194845D01*
X162039456Y-106187547D01*
X162038130Y-106182886D01*
X162024329Y-106033963D01*
X162020000Y-105990000D01*
X162024329Y-105946039D01*
X162038130Y-105797113D01*
X162039456Y-105792451D01*
X162040175Y-105785155D01*
X162062056Y-105713022D01*
X162091145Y-105610787D01*
X162096067Y-105600900D01*
X162099926Y-105588182D01*
X162136089Y-105520525D01*
X162177490Y-105437381D01*
X162187898Y-105423597D01*
X162196957Y-105406651D01*
X162243800Y-105349572D01*
X162294230Y-105282793D01*
X162311601Y-105266957D01*
X162327538Y-105247538D01*
X162381315Y-105203403D01*
X162437390Y-105152285D01*
X162462696Y-105136615D01*
X162486651Y-105116957D01*
X162543668Y-105086480D01*
X162602089Y-105050308D01*
X162635708Y-105037283D01*
X162668182Y-105019926D01*
X162725010Y-105002687D01*
X162782723Y-104980329D01*
X162824394Y-104972539D01*
X162865155Y-104960175D01*
X162918811Y-104954890D01*
X162973140Y-104944735D01*
X163021924Y-104944735D01*
X163070000Y-104940000D01*
X163118076Y-104944735D01*
G37*
G36*
X170738076Y-104944735D02*
G01*
X170786860Y-104944735D01*
X170841187Y-104954890D01*
X170894845Y-104960175D01*
X170935606Y-104972539D01*
X170977276Y-104980329D01*
X171034985Y-105002685D01*
X171091818Y-105019926D01*
X171124294Y-105037284D01*
X171157910Y-105050308D01*
X171216323Y-105086476D01*
X171273349Y-105116957D01*
X171297306Y-105136618D01*
X171322609Y-105152285D01*
X171378674Y-105203395D01*
X171432462Y-105247538D01*
X171448401Y-105266960D01*
X171465769Y-105282793D01*
X171516187Y-105349557D01*
X171563043Y-105406651D01*
X171572103Y-105423602D01*
X171582509Y-105437381D01*
X171623895Y-105520498D01*
X171660074Y-105588182D01*
X171663933Y-105600905D01*
X171668854Y-105610787D01*
X171697927Y-105712969D01*
X171719825Y-105785155D01*
X171720544Y-105792456D01*
X171721869Y-105797113D01*
X171735653Y-105945868D01*
X171740000Y-105990000D01*
X171735653Y-106034135D01*
X171721869Y-106182886D01*
X171720544Y-106187541D01*
X171719825Y-106194845D01*
X171697923Y-106267045D01*
X171668854Y-106369212D01*
X171663934Y-106379092D01*
X171660074Y-106391818D01*
X171623888Y-106459515D01*
X171582509Y-106542618D01*
X171572105Y-106556394D01*
X171563043Y-106573349D01*
X171516177Y-106630454D01*
X171465769Y-106697206D01*
X171448405Y-106713035D01*
X171432462Y-106732462D01*
X171378663Y-106776613D01*
X171322609Y-106827714D01*
X171297311Y-106843377D01*
X171273349Y-106863043D01*
X171216312Y-106893530D01*
X171157910Y-106929691D01*
X171124300Y-106942711D01*
X171091818Y-106960074D01*
X171034973Y-106977317D01*
X170977276Y-106999670D01*
X170935613Y-107007458D01*
X170894845Y-107019825D01*
X170841184Y-107025109D01*
X170786860Y-107035265D01*
X170738076Y-107035265D01*
X170690000Y-107040000D01*
X170641924Y-107035265D01*
X170593140Y-107035265D01*
X170538814Y-107025109D01*
X170485155Y-107019825D01*
X170444388Y-107007458D01*
X170402723Y-106999670D01*
X170345022Y-106977316D01*
X170288182Y-106960074D01*
X170255701Y-106942712D01*
X170222089Y-106929691D01*
X170163680Y-106893526D01*
X170106651Y-106863043D01*
X170082691Y-106843380D01*
X170057390Y-106827714D01*
X170001326Y-106776605D01*
X169947538Y-106732462D01*
X169931597Y-106713038D01*
X169914230Y-106697206D01*
X169863809Y-106630438D01*
X169816957Y-106573349D01*
X169807896Y-106556398D01*
X169797490Y-106542618D01*
X169756096Y-106459488D01*
X169719926Y-106391818D01*
X169716067Y-106379097D01*
X169711145Y-106369212D01*
X169682060Y-106266992D01*
X169660175Y-106194845D01*
X169659456Y-106187547D01*
X169658130Y-106182886D01*
X169644329Y-106033963D01*
X169640000Y-105990000D01*
X169644329Y-105946039D01*
X169658130Y-105797113D01*
X169659456Y-105792451D01*
X169660175Y-105785155D01*
X169682056Y-105713022D01*
X169711145Y-105610787D01*
X169716067Y-105600900D01*
X169719926Y-105588182D01*
X169756089Y-105520525D01*
X169797490Y-105437381D01*
X169807898Y-105423597D01*
X169816957Y-105406651D01*
X169863800Y-105349572D01*
X169914230Y-105282793D01*
X169931601Y-105266957D01*
X169947538Y-105247538D01*
X170001315Y-105203403D01*
X170057390Y-105152285D01*
X170082696Y-105136615D01*
X170106651Y-105116957D01*
X170163668Y-105086480D01*
X170222089Y-105050308D01*
X170255708Y-105037283D01*
X170288182Y-105019926D01*
X170345010Y-105002687D01*
X170402723Y-104980329D01*
X170444394Y-104972539D01*
X170485155Y-104960175D01*
X170538811Y-104954890D01*
X170593140Y-104944735D01*
X170641924Y-104944735D01*
X170690000Y-104940000D01*
X170738076Y-104944735D01*
G37*
G36*
X173278076Y-104944735D02*
G01*
X173326860Y-104944735D01*
X173381187Y-104954890D01*
X173434845Y-104960175D01*
X173475606Y-104972539D01*
X173517276Y-104980329D01*
X173574985Y-105002685D01*
X173631818Y-105019926D01*
X173664294Y-105037284D01*
X173697910Y-105050308D01*
X173756323Y-105086476D01*
X173813349Y-105116957D01*
X173837306Y-105136618D01*
X173862609Y-105152285D01*
X173918674Y-105203395D01*
X173972462Y-105247538D01*
X173988401Y-105266960D01*
X174005769Y-105282793D01*
X174056187Y-105349557D01*
X174103043Y-105406651D01*
X174112103Y-105423602D01*
X174122509Y-105437381D01*
X174163895Y-105520498D01*
X174200074Y-105588182D01*
X174203933Y-105600905D01*
X174208854Y-105610787D01*
X174237927Y-105712969D01*
X174259825Y-105785155D01*
X174260544Y-105792456D01*
X174261869Y-105797113D01*
X174275653Y-105945868D01*
X174280000Y-105990000D01*
X174275653Y-106034135D01*
X174261869Y-106182886D01*
X174260544Y-106187541D01*
X174259825Y-106194845D01*
X174237923Y-106267045D01*
X174208854Y-106369212D01*
X174203934Y-106379092D01*
X174200074Y-106391818D01*
X174163888Y-106459515D01*
X174122509Y-106542618D01*
X174112105Y-106556394D01*
X174103043Y-106573349D01*
X174056177Y-106630454D01*
X174005769Y-106697206D01*
X173988405Y-106713035D01*
X173972462Y-106732462D01*
X173918663Y-106776613D01*
X173862609Y-106827714D01*
X173837311Y-106843377D01*
X173813349Y-106863043D01*
X173756312Y-106893530D01*
X173697910Y-106929691D01*
X173664300Y-106942711D01*
X173631818Y-106960074D01*
X173574973Y-106977317D01*
X173517276Y-106999670D01*
X173475613Y-107007458D01*
X173434845Y-107019825D01*
X173381184Y-107025109D01*
X173326860Y-107035265D01*
X173278076Y-107035265D01*
X173230000Y-107040000D01*
X173181924Y-107035265D01*
X173133140Y-107035265D01*
X173078814Y-107025109D01*
X173025155Y-107019825D01*
X172984388Y-107007458D01*
X172942723Y-106999670D01*
X172885022Y-106977316D01*
X172828182Y-106960074D01*
X172795701Y-106942712D01*
X172762089Y-106929691D01*
X172703680Y-106893526D01*
X172646651Y-106863043D01*
X172622691Y-106843380D01*
X172597390Y-106827714D01*
X172541326Y-106776605D01*
X172487538Y-106732462D01*
X172471597Y-106713038D01*
X172454230Y-106697206D01*
X172403809Y-106630438D01*
X172356957Y-106573349D01*
X172347896Y-106556398D01*
X172337490Y-106542618D01*
X172296096Y-106459488D01*
X172259926Y-106391818D01*
X172256067Y-106379097D01*
X172251145Y-106369212D01*
X172222060Y-106266992D01*
X172200175Y-106194845D01*
X172199456Y-106187547D01*
X172198130Y-106182886D01*
X172184329Y-106033963D01*
X172180000Y-105990000D01*
X172184329Y-105946039D01*
X172198130Y-105797113D01*
X172199456Y-105792451D01*
X172200175Y-105785155D01*
X172222056Y-105713022D01*
X172251145Y-105610787D01*
X172256067Y-105600900D01*
X172259926Y-105588182D01*
X172296089Y-105520525D01*
X172337490Y-105437381D01*
X172347898Y-105423597D01*
X172356957Y-105406651D01*
X172403800Y-105349572D01*
X172454230Y-105282793D01*
X172471601Y-105266957D01*
X172487538Y-105247538D01*
X172541315Y-105203403D01*
X172597390Y-105152285D01*
X172622696Y-105136615D01*
X172646651Y-105116957D01*
X172703668Y-105086480D01*
X172762089Y-105050308D01*
X172795708Y-105037283D01*
X172828182Y-105019926D01*
X172885010Y-105002687D01*
X172942723Y-104980329D01*
X172984394Y-104972539D01*
X173025155Y-104960175D01*
X173078811Y-104954890D01*
X173133140Y-104944735D01*
X173181924Y-104944735D01*
X173230000Y-104940000D01*
X173278076Y-104944735D01*
G37*
G36*
X177935249Y-101741925D02*
G01*
X178185184Y-101819020D01*
X178420837Y-101932505D01*
X178636944Y-102079844D01*
X178828678Y-102257747D01*
X178991755Y-102462239D01*
X179122533Y-102688752D01*
X179218089Y-102932227D01*
X179276291Y-103187225D01*
X179295837Y-103448049D01*
X179276291Y-103708873D01*
X179218089Y-103963871D01*
X179122533Y-104207346D01*
X178991755Y-104433859D01*
X178828678Y-104638351D01*
X178636944Y-104816254D01*
X178420837Y-104963593D01*
X178185184Y-105077078D01*
X177935249Y-105154173D01*
X177676615Y-105193156D01*
X177415059Y-105193156D01*
X177156425Y-105154173D01*
X176906490Y-105077078D01*
X176670837Y-104963593D01*
X176454730Y-104816254D01*
X176262996Y-104638351D01*
X176099919Y-104433859D01*
X175969141Y-104207346D01*
X175873585Y-103963871D01*
X175815383Y-103708873D01*
X175795837Y-103448049D01*
X175815383Y-103187225D01*
X175873585Y-102932227D01*
X175969141Y-102688752D01*
X176099919Y-102462239D01*
X176262996Y-102257747D01*
X176454730Y-102079844D01*
X176670837Y-101932505D01*
X176906490Y-101819020D01*
X177156425Y-101741925D01*
X177415059Y-101702942D01*
X177676615Y-101702942D01*
X177935249Y-101741925D01*
G37*
G36*
X184535249Y-101741925D02*
G01*
X184785184Y-101819020D01*
X185020837Y-101932505D01*
X185236944Y-102079844D01*
X185428678Y-102257747D01*
X185591755Y-102462239D01*
X185722533Y-102688752D01*
X185818089Y-102932227D01*
X185876291Y-103187225D01*
X185895837Y-103448049D01*
X185876291Y-103708873D01*
X185818089Y-103963871D01*
X185722533Y-104207346D01*
X185591755Y-104433859D01*
X185428678Y-104638351D01*
X185236944Y-104816254D01*
X185020837Y-104963593D01*
X184785184Y-105077078D01*
X184535249Y-105154173D01*
X184276615Y-105193156D01*
X184015059Y-105193156D01*
X183756425Y-105154173D01*
X183506490Y-105077078D01*
X183270837Y-104963593D01*
X183054730Y-104816254D01*
X182862996Y-104638351D01*
X182699919Y-104433859D01*
X182569141Y-104207346D01*
X182473585Y-103963871D01*
X182415383Y-103708873D01*
X182395837Y-103448049D01*
X182415383Y-103187225D01*
X182473585Y-102932227D01*
X182569141Y-102688752D01*
X182699919Y-102462239D01*
X182862996Y-102257747D01*
X183054730Y-102079844D01*
X183270837Y-101932505D01*
X183506490Y-101819020D01*
X183756425Y-101741925D01*
X184015059Y-101702942D01*
X184276615Y-101702942D01*
X184535249Y-101741925D01*
G37*
G36*
X163118076Y-99864735D02*
G01*
X163166860Y-99864735D01*
X163221187Y-99874890D01*
X163274845Y-99880175D01*
X163315606Y-99892539D01*
X163357276Y-99900329D01*
X163414985Y-99922685D01*
X163471818Y-99939926D01*
X163504294Y-99957284D01*
X163537910Y-99970308D01*
X163596323Y-100006476D01*
X163653349Y-100036957D01*
X163677306Y-100056618D01*
X163702609Y-100072285D01*
X163758674Y-100123395D01*
X163812462Y-100167538D01*
X163828401Y-100186960D01*
X163845769Y-100202793D01*
X163896187Y-100269557D01*
X163943043Y-100326651D01*
X163952103Y-100343602D01*
X163962509Y-100357381D01*
X164003895Y-100440498D01*
X164040074Y-100508182D01*
X164043933Y-100520905D01*
X164048854Y-100530787D01*
X164077927Y-100632969D01*
X164099825Y-100705155D01*
X164100544Y-100712456D01*
X164101869Y-100717113D01*
X164115653Y-100865868D01*
X164120000Y-100910000D01*
X164115653Y-100954135D01*
X164101869Y-101102886D01*
X164100544Y-101107541D01*
X164099825Y-101114845D01*
X164077923Y-101187045D01*
X164048854Y-101289212D01*
X164043934Y-101299092D01*
X164040074Y-101311818D01*
X164003888Y-101379515D01*
X163962509Y-101462618D01*
X163952105Y-101476394D01*
X163943043Y-101493349D01*
X163896177Y-101550454D01*
X163845769Y-101617206D01*
X163828405Y-101633035D01*
X163812462Y-101652462D01*
X163758663Y-101696613D01*
X163702609Y-101747714D01*
X163677311Y-101763377D01*
X163653349Y-101783043D01*
X163596312Y-101813530D01*
X163537910Y-101849691D01*
X163504300Y-101862711D01*
X163471818Y-101880074D01*
X163414973Y-101897317D01*
X163357276Y-101919670D01*
X163315613Y-101927458D01*
X163274845Y-101939825D01*
X163221184Y-101945109D01*
X163166860Y-101955265D01*
X163118076Y-101955265D01*
X163070000Y-101960000D01*
X163021924Y-101955265D01*
X162973140Y-101955265D01*
X162918814Y-101945109D01*
X162865155Y-101939825D01*
X162824388Y-101927458D01*
X162782723Y-101919670D01*
X162725022Y-101897316D01*
X162668182Y-101880074D01*
X162635701Y-101862712D01*
X162602089Y-101849691D01*
X162543680Y-101813526D01*
X162486651Y-101783043D01*
X162462691Y-101763380D01*
X162437390Y-101747714D01*
X162381326Y-101696605D01*
X162327538Y-101652462D01*
X162311597Y-101633038D01*
X162294230Y-101617206D01*
X162243809Y-101550438D01*
X162196957Y-101493349D01*
X162187896Y-101476398D01*
X162177490Y-101462618D01*
X162136096Y-101379488D01*
X162099926Y-101311818D01*
X162096067Y-101299097D01*
X162091145Y-101289212D01*
X162062060Y-101186992D01*
X162040175Y-101114845D01*
X162039456Y-101107547D01*
X162038130Y-101102886D01*
X162024329Y-100953963D01*
X162020000Y-100910000D01*
X162024329Y-100866039D01*
X162038130Y-100717113D01*
X162039456Y-100712451D01*
X162040175Y-100705155D01*
X162062056Y-100633022D01*
X162091145Y-100530787D01*
X162096067Y-100520900D01*
X162099926Y-100508182D01*
X162136089Y-100440525D01*
X162177490Y-100357381D01*
X162187898Y-100343597D01*
X162196957Y-100326651D01*
X162243800Y-100269572D01*
X162294230Y-100202793D01*
X162311601Y-100186957D01*
X162327538Y-100167538D01*
X162381315Y-100123403D01*
X162437390Y-100072285D01*
X162462696Y-100056615D01*
X162486651Y-100036957D01*
X162543668Y-100006480D01*
X162602089Y-99970308D01*
X162635708Y-99957283D01*
X162668182Y-99939926D01*
X162725010Y-99922687D01*
X162782723Y-99900329D01*
X162824394Y-99892539D01*
X162865155Y-99880175D01*
X162918811Y-99874890D01*
X162973140Y-99864735D01*
X163021924Y-99864735D01*
X163070000Y-99860000D01*
X163118076Y-99864735D01*
G37*
G36*
X170738076Y-99864735D02*
G01*
X170786860Y-99864735D01*
X170841187Y-99874890D01*
X170894845Y-99880175D01*
X170935606Y-99892539D01*
X170977276Y-99900329D01*
X171034985Y-99922685D01*
X171091818Y-99939926D01*
X171124294Y-99957284D01*
X171157910Y-99970308D01*
X171216323Y-100006476D01*
X171273349Y-100036957D01*
X171297306Y-100056618D01*
X171322609Y-100072285D01*
X171378674Y-100123395D01*
X171432462Y-100167538D01*
X171448401Y-100186960D01*
X171465769Y-100202793D01*
X171516187Y-100269557D01*
X171563043Y-100326651D01*
X171572103Y-100343602D01*
X171582509Y-100357381D01*
X171623895Y-100440498D01*
X171660074Y-100508182D01*
X171663933Y-100520905D01*
X171668854Y-100530787D01*
X171697927Y-100632969D01*
X171719825Y-100705155D01*
X171720544Y-100712456D01*
X171721869Y-100717113D01*
X171735653Y-100865868D01*
X171740000Y-100910000D01*
X171735653Y-100954135D01*
X171721869Y-101102886D01*
X171720544Y-101107541D01*
X171719825Y-101114845D01*
X171697923Y-101187045D01*
X171668854Y-101289212D01*
X171663934Y-101299092D01*
X171660074Y-101311818D01*
X171623888Y-101379515D01*
X171582509Y-101462618D01*
X171572105Y-101476394D01*
X171563043Y-101493349D01*
X171516177Y-101550454D01*
X171465769Y-101617206D01*
X171448405Y-101633035D01*
X171432462Y-101652462D01*
X171378663Y-101696613D01*
X171322609Y-101747714D01*
X171297311Y-101763377D01*
X171273349Y-101783043D01*
X171216312Y-101813530D01*
X171157910Y-101849691D01*
X171124300Y-101862711D01*
X171091818Y-101880074D01*
X171034973Y-101897317D01*
X170977276Y-101919670D01*
X170935613Y-101927458D01*
X170894845Y-101939825D01*
X170841184Y-101945109D01*
X170786860Y-101955265D01*
X170738076Y-101955265D01*
X170690000Y-101960000D01*
X170641924Y-101955265D01*
X170593140Y-101955265D01*
X170538814Y-101945109D01*
X170485155Y-101939825D01*
X170444388Y-101927458D01*
X170402723Y-101919670D01*
X170345022Y-101897316D01*
X170288182Y-101880074D01*
X170255701Y-101862712D01*
X170222089Y-101849691D01*
X170163680Y-101813526D01*
X170106651Y-101783043D01*
X170082691Y-101763380D01*
X170057390Y-101747714D01*
X170001326Y-101696605D01*
X169947538Y-101652462D01*
X169931597Y-101633038D01*
X169914230Y-101617206D01*
X169863809Y-101550438D01*
X169816957Y-101493349D01*
X169807896Y-101476398D01*
X169797490Y-101462618D01*
X169756096Y-101379488D01*
X169719926Y-101311818D01*
X169716067Y-101299097D01*
X169711145Y-101289212D01*
X169682060Y-101186992D01*
X169660175Y-101114845D01*
X169659456Y-101107547D01*
X169658130Y-101102886D01*
X169644329Y-100953963D01*
X169640000Y-100910000D01*
X169644329Y-100866039D01*
X169658130Y-100717113D01*
X169659456Y-100712451D01*
X169660175Y-100705155D01*
X169682056Y-100633022D01*
X169711145Y-100530787D01*
X169716067Y-100520900D01*
X169719926Y-100508182D01*
X169756089Y-100440525D01*
X169797490Y-100357381D01*
X169807898Y-100343597D01*
X169816957Y-100326651D01*
X169863800Y-100269572D01*
X169914230Y-100202793D01*
X169931601Y-100186957D01*
X169947538Y-100167538D01*
X170001315Y-100123403D01*
X170057390Y-100072285D01*
X170082696Y-100056615D01*
X170106651Y-100036957D01*
X170163668Y-100006480D01*
X170222089Y-99970308D01*
X170255708Y-99957283D01*
X170288182Y-99939926D01*
X170345010Y-99922687D01*
X170402723Y-99900329D01*
X170444394Y-99892539D01*
X170485155Y-99880175D01*
X170538811Y-99874890D01*
X170593140Y-99864735D01*
X170641924Y-99864735D01*
X170690000Y-99860000D01*
X170738076Y-99864735D01*
G37*
G36*
X173278076Y-99864735D02*
G01*
X173326860Y-99864735D01*
X173381187Y-99874890D01*
X173434845Y-99880175D01*
X173475606Y-99892539D01*
X173517276Y-99900329D01*
X173574985Y-99922685D01*
X173631818Y-99939926D01*
X173664294Y-99957284D01*
X173697910Y-99970308D01*
X173756323Y-100006476D01*
X173813349Y-100036957D01*
X173837306Y-100056618D01*
X173862609Y-100072285D01*
X173918674Y-100123395D01*
X173972462Y-100167538D01*
X173988401Y-100186960D01*
X174005769Y-100202793D01*
X174056187Y-100269557D01*
X174103043Y-100326651D01*
X174112103Y-100343602D01*
X174122509Y-100357381D01*
X174163895Y-100440498D01*
X174200074Y-100508182D01*
X174203933Y-100520905D01*
X174208854Y-100530787D01*
X174237927Y-100632969D01*
X174259825Y-100705155D01*
X174260544Y-100712456D01*
X174261869Y-100717113D01*
X174275653Y-100865868D01*
X174280000Y-100910000D01*
X174275653Y-100954135D01*
X174261869Y-101102886D01*
X174260544Y-101107541D01*
X174259825Y-101114845D01*
X174237923Y-101187045D01*
X174208854Y-101289212D01*
X174203934Y-101299092D01*
X174200074Y-101311818D01*
X174163888Y-101379515D01*
X174122509Y-101462618D01*
X174112105Y-101476394D01*
X174103043Y-101493349D01*
X174056177Y-101550454D01*
X174005769Y-101617206D01*
X173988405Y-101633035D01*
X173972462Y-101652462D01*
X173918663Y-101696613D01*
X173862609Y-101747714D01*
X173837311Y-101763377D01*
X173813349Y-101783043D01*
X173756312Y-101813530D01*
X173697910Y-101849691D01*
X173664300Y-101862711D01*
X173631818Y-101880074D01*
X173574973Y-101897317D01*
X173517276Y-101919670D01*
X173475613Y-101927458D01*
X173434845Y-101939825D01*
X173381184Y-101945109D01*
X173326860Y-101955265D01*
X173278076Y-101955265D01*
X173230000Y-101960000D01*
X173181924Y-101955265D01*
X173133140Y-101955265D01*
X173078814Y-101945109D01*
X173025155Y-101939825D01*
X172984388Y-101927458D01*
X172942723Y-101919670D01*
X172885022Y-101897316D01*
X172828182Y-101880074D01*
X172795701Y-101862712D01*
X172762089Y-101849691D01*
X172703680Y-101813526D01*
X172646651Y-101783043D01*
X172622691Y-101763380D01*
X172597390Y-101747714D01*
X172541326Y-101696605D01*
X172487538Y-101652462D01*
X172471597Y-101633038D01*
X172454230Y-101617206D01*
X172403809Y-101550438D01*
X172356957Y-101493349D01*
X172347896Y-101476398D01*
X172337490Y-101462618D01*
X172296096Y-101379488D01*
X172259926Y-101311818D01*
X172256067Y-101299097D01*
X172251145Y-101289212D01*
X172222060Y-101186992D01*
X172200175Y-101114845D01*
X172199456Y-101107547D01*
X172198130Y-101102886D01*
X172184329Y-100953963D01*
X172180000Y-100910000D01*
X172184329Y-100866039D01*
X172198130Y-100717113D01*
X172199456Y-100712451D01*
X172200175Y-100705155D01*
X172222056Y-100633022D01*
X172251145Y-100530787D01*
X172256067Y-100520900D01*
X172259926Y-100508182D01*
X172296089Y-100440525D01*
X172337490Y-100357381D01*
X172347898Y-100343597D01*
X172356957Y-100326651D01*
X172403800Y-100269572D01*
X172454230Y-100202793D01*
X172471601Y-100186957D01*
X172487538Y-100167538D01*
X172541315Y-100123403D01*
X172597390Y-100072285D01*
X172622696Y-100056615D01*
X172646651Y-100036957D01*
X172703668Y-100006480D01*
X172762089Y-99970308D01*
X172795708Y-99957283D01*
X172828182Y-99939926D01*
X172885010Y-99922687D01*
X172942723Y-99900329D01*
X172984394Y-99892539D01*
X173025155Y-99880175D01*
X173078811Y-99874890D01*
X173133140Y-99864735D01*
X173181924Y-99864735D01*
X173230000Y-99860000D01*
X173278076Y-99864735D01*
G37*
G36*
X116539412Y-93443876D02*
G01*
X116789347Y-93520971D01*
X117025000Y-93634456D01*
X117241107Y-93781795D01*
X117432841Y-93959698D01*
X117595918Y-94164190D01*
X117726696Y-94390703D01*
X117822252Y-94634178D01*
X117880454Y-94889176D01*
X117900000Y-95150000D01*
X117880454Y-95410824D01*
X117822252Y-95665822D01*
X117726696Y-95909297D01*
X117595918Y-96135810D01*
X117432841Y-96340302D01*
X117241107Y-96518205D01*
X117025000Y-96665544D01*
X116789347Y-96779029D01*
X116539412Y-96856124D01*
X116280778Y-96895107D01*
X116019222Y-96895107D01*
X115760588Y-96856124D01*
X115510653Y-96779029D01*
X115275000Y-96665544D01*
X115058893Y-96518205D01*
X114867159Y-96340302D01*
X114704082Y-96135810D01*
X114573304Y-95909297D01*
X114477748Y-95665822D01*
X114419546Y-95410824D01*
X114400000Y-95150000D01*
X114419546Y-94889176D01*
X114477748Y-94634178D01*
X114573304Y-94390703D01*
X114704082Y-94164190D01*
X114867159Y-93959698D01*
X115058893Y-93781795D01*
X115275000Y-93634456D01*
X115510653Y-93520971D01*
X115760588Y-93443876D01*
X116019222Y-93404893D01*
X116280778Y-93404893D01*
X116539412Y-93443876D01*
G37*
G36*
X182139412Y-93443876D02*
G01*
X182389347Y-93520971D01*
X182625000Y-93634456D01*
X182841107Y-93781795D01*
X183032841Y-93959698D01*
X183195918Y-94164190D01*
X183326696Y-94390703D01*
X183422252Y-94634178D01*
X183480454Y-94889176D01*
X183500000Y-95150000D01*
X183480454Y-95410824D01*
X183422252Y-95665822D01*
X183326696Y-95909297D01*
X183195918Y-96135810D01*
X183032841Y-96340302D01*
X182841107Y-96518205D01*
X182625000Y-96665544D01*
X182389347Y-96779029D01*
X182139412Y-96856124D01*
X181880778Y-96895107D01*
X181619222Y-96895107D01*
X181360588Y-96856124D01*
X181110653Y-96779029D01*
X180875000Y-96665544D01*
X180658893Y-96518205D01*
X180467159Y-96340302D01*
X180304082Y-96135810D01*
X180173304Y-95909297D01*
X180077748Y-95665822D01*
X180019546Y-95410824D01*
X180000000Y-95150000D01*
X180019546Y-94889176D01*
X180077748Y-94634178D01*
X180173304Y-94390703D01*
X180304082Y-94164190D01*
X180467159Y-93959698D01*
X180658893Y-93781795D01*
X180875000Y-93634456D01*
X181110653Y-93520971D01*
X181360588Y-93443876D01*
X181619222Y-93404893D01*
X181880778Y-93404893D01*
X182139412Y-93443876D01*
G37*
G36*
X108730000Y-86945000D02*
G01*
X107370000Y-86945000D01*
X107370000Y-85715000D01*
X108730000Y-85715000D01*
X108730000Y-86945000D01*
G37*
G36*
X108730000Y-82585000D02*
G01*
X107370000Y-82585000D01*
X107370000Y-81355000D01*
X108730000Y-81355000D01*
X108730000Y-82585000D01*
G37*
G36*
X182319561Y-76407105D02*
G01*
X182480619Y-76463462D01*
X182625099Y-76554244D01*
X182745756Y-76674901D01*
X182836538Y-76819381D01*
X182892895Y-76980439D01*
X182912000Y-77150000D01*
X182892895Y-77319561D01*
X182836538Y-77480619D01*
X182745756Y-77625099D01*
X182625099Y-77745756D01*
X182480619Y-77836538D01*
X182319561Y-77892895D01*
X182150000Y-77912000D01*
X181980439Y-77892895D01*
X181819381Y-77836538D01*
X181674901Y-77745756D01*
X181554244Y-77625099D01*
X181463462Y-77480619D01*
X181407105Y-77319561D01*
X181388000Y-77150000D01*
X181407105Y-76980439D01*
X181463462Y-76819381D01*
X181554244Y-76674901D01*
X181674901Y-76554244D01*
X181819381Y-76463462D01*
X181980439Y-76407105D01*
X182150000Y-76388000D01*
X182319561Y-76407105D01*
G37*
G36*
X182319561Y-73907105D02*
G01*
X182480619Y-73963462D01*
X182625099Y-74054244D01*
X182745756Y-74174901D01*
X182836538Y-74319381D01*
X182892895Y-74480439D01*
X182912000Y-74650000D01*
X182892895Y-74819561D01*
X182836538Y-74980619D01*
X182745756Y-75125099D01*
X182625099Y-75245756D01*
X182480619Y-75336538D01*
X182319561Y-75392895D01*
X182150000Y-75412000D01*
X181980439Y-75392895D01*
X181819381Y-75336538D01*
X181674901Y-75245756D01*
X181554244Y-75125099D01*
X181463462Y-74980619D01*
X181407105Y-74819561D01*
X181388000Y-74650000D01*
X181407105Y-74480439D01*
X181463462Y-74319381D01*
X181554244Y-74174901D01*
X181674901Y-74054244D01*
X181819381Y-73963462D01*
X181980439Y-73907105D01*
X182150000Y-73888000D01*
X182319561Y-73907105D01*
G37*
G36*
X182319561Y-71407105D02*
G01*
X182480619Y-71463462D01*
X182625099Y-71554244D01*
X182745756Y-71674901D01*
X182836538Y-71819381D01*
X182892895Y-71980439D01*
X182912000Y-72150000D01*
X182892895Y-72319561D01*
X182836538Y-72480619D01*
X182745756Y-72625099D01*
X182625099Y-72745756D01*
X182480619Y-72836538D01*
X182319561Y-72892895D01*
X182150000Y-72912000D01*
X181980439Y-72892895D01*
X181819381Y-72836538D01*
X181674901Y-72745756D01*
X181554244Y-72625099D01*
X181463462Y-72480619D01*
X181407105Y-72319561D01*
X181388000Y-72150000D01*
X181407105Y-71980439D01*
X181463462Y-71819381D01*
X181554244Y-71674901D01*
X181674901Y-71554244D01*
X181819381Y-71463462D01*
X181980439Y-71407105D01*
X182150000Y-71388000D01*
X182319561Y-71407105D01*
G37*
G36*
X182319561Y-68907105D02*
G01*
X182480619Y-68963462D01*
X182625099Y-69054244D01*
X182745756Y-69174901D01*
X182836538Y-69319381D01*
X182892895Y-69480439D01*
X182912000Y-69650000D01*
X182892895Y-69819561D01*
X182836538Y-69980619D01*
X182745756Y-70125099D01*
X182625099Y-70245756D01*
X182480619Y-70336538D01*
X182319561Y-70392895D01*
X182150000Y-70412000D01*
X181980439Y-70392895D01*
X181819381Y-70336538D01*
X181674901Y-70245756D01*
X181554244Y-70125099D01*
X181463462Y-69980619D01*
X181407105Y-69819561D01*
X181388000Y-69650000D01*
X181407105Y-69480439D01*
X181463462Y-69319381D01*
X181554244Y-69174901D01*
X181674901Y-69054244D01*
X181819381Y-68963462D01*
X181980439Y-68907105D01*
X182150000Y-68888000D01*
X182319561Y-68907105D01*
G37*
G36*
X190854850Y-66825964D02*
G01*
X190905040Y-66831787D01*
X190922189Y-66839359D01*
X190945671Y-66844030D01*
X190970810Y-66860827D01*
X190990696Y-66869608D01*
X191004277Y-66883189D01*
X191026777Y-66898223D01*
X191041810Y-66920722D01*
X191055391Y-66934303D01*
X191064170Y-66954186D01*
X191080970Y-66979329D01*
X191085641Y-67002812D01*
X191093212Y-67019959D01*
X191099033Y-67070139D01*
X191100000Y-67075000D01*
X191100000Y-67725000D01*
X191099032Y-67729863D01*
X191093212Y-67780040D01*
X191085641Y-67797185D01*
X191080970Y-67820671D01*
X191064169Y-67845815D01*
X191055391Y-67865696D01*
X191041812Y-67879274D01*
X191026777Y-67901777D01*
X191004274Y-67916812D01*
X190990696Y-67930391D01*
X190970815Y-67939169D01*
X190945671Y-67955970D01*
X190922185Y-67960641D01*
X190905040Y-67968212D01*
X190854861Y-67974032D01*
X190850000Y-67975000D01*
X189950000Y-67975000D01*
X189945138Y-67974032D01*
X189894959Y-67968212D01*
X189877812Y-67960641D01*
X189854329Y-67955970D01*
X189829186Y-67939170D01*
X189809303Y-67930391D01*
X189795722Y-67916810D01*
X189773223Y-67901777D01*
X189758189Y-67879277D01*
X189744608Y-67865696D01*
X189735827Y-67845810D01*
X189719030Y-67820671D01*
X189714359Y-67797189D01*
X189706787Y-67780040D01*
X189700964Y-67729849D01*
X189700000Y-67725000D01*
X189700000Y-67075000D01*
X189700964Y-67070150D01*
X189706787Y-67019959D01*
X189714359Y-67002808D01*
X189719030Y-66979329D01*
X189735826Y-66954191D01*
X189744608Y-66934303D01*
X189758191Y-66920719D01*
X189773223Y-66898223D01*
X189795719Y-66883191D01*
X189809303Y-66869608D01*
X189829191Y-66860826D01*
X189854329Y-66844030D01*
X189877808Y-66839359D01*
X189894959Y-66831787D01*
X189945151Y-66825964D01*
X189950000Y-66825000D01*
X190850000Y-66825000D01*
X190854850Y-66825964D01*
G37*
G36*
X190854850Y-64775964D02*
G01*
X190905040Y-64781787D01*
X190922189Y-64789359D01*
X190945671Y-64794030D01*
X190970810Y-64810827D01*
X190990696Y-64819608D01*
X191004277Y-64833189D01*
X191026777Y-64848223D01*
X191041810Y-64870722D01*
X191055391Y-64884303D01*
X191064170Y-64904186D01*
X191080970Y-64929329D01*
X191085641Y-64952812D01*
X191093212Y-64969959D01*
X191099033Y-65020139D01*
X191100000Y-65025000D01*
X191100000Y-65675000D01*
X191099032Y-65679863D01*
X191093212Y-65730040D01*
X191085641Y-65747185D01*
X191080970Y-65770671D01*
X191064169Y-65795815D01*
X191055391Y-65815696D01*
X191041812Y-65829274D01*
X191026777Y-65851777D01*
X191004274Y-65866812D01*
X190990696Y-65880391D01*
X190970815Y-65889169D01*
X190945671Y-65905970D01*
X190922185Y-65910641D01*
X190905040Y-65918212D01*
X190854861Y-65924032D01*
X190850000Y-65925000D01*
X189950000Y-65925000D01*
X189945138Y-65924032D01*
X189894959Y-65918212D01*
X189877812Y-65910641D01*
X189854329Y-65905970D01*
X189829186Y-65889170D01*
X189809303Y-65880391D01*
X189795722Y-65866810D01*
X189773223Y-65851777D01*
X189758189Y-65829277D01*
X189744608Y-65815696D01*
X189735827Y-65795810D01*
X189719030Y-65770671D01*
X189714359Y-65747189D01*
X189706787Y-65730040D01*
X189700964Y-65679849D01*
X189700000Y-65675000D01*
X189700000Y-65025000D01*
X189700964Y-65020150D01*
X189706787Y-64969959D01*
X189714359Y-64952808D01*
X189719030Y-64929329D01*
X189735826Y-64904191D01*
X189744608Y-64884303D01*
X189758191Y-64870719D01*
X189773223Y-64848223D01*
X189795719Y-64833191D01*
X189809303Y-64819608D01*
X189829191Y-64810826D01*
X189854329Y-64794030D01*
X189877808Y-64789359D01*
X189894959Y-64781787D01*
X189945151Y-64775964D01*
X189950000Y-64775000D01*
X190850000Y-64775000D01*
X190854850Y-64775964D01*
G37*
G36*
X116539412Y-50343876D02*
G01*
X116789347Y-50420971D01*
X117025000Y-50534456D01*
X117241107Y-50681795D01*
X117432841Y-50859698D01*
X117595918Y-51064190D01*
X117726696Y-51290703D01*
X117822252Y-51534178D01*
X117880454Y-51789176D01*
X117900000Y-52050000D01*
X117880454Y-52310824D01*
X117822252Y-52565822D01*
X117726696Y-52809297D01*
X117595918Y-53035810D01*
X117432841Y-53240302D01*
X117241107Y-53418205D01*
X117025000Y-53565544D01*
X116789347Y-53679029D01*
X116539412Y-53756124D01*
X116280778Y-53795107D01*
X116019222Y-53795107D01*
X115760588Y-53756124D01*
X115510653Y-53679029D01*
X115275000Y-53565544D01*
X115058893Y-53418205D01*
X114867159Y-53240302D01*
X114704082Y-53035810D01*
X114573304Y-52809297D01*
X114477748Y-52565822D01*
X114419546Y-52310824D01*
X114400000Y-52050000D01*
X114419546Y-51789176D01*
X114477748Y-51534178D01*
X114573304Y-51290703D01*
X114704082Y-51064190D01*
X114867159Y-50859698D01*
X115058893Y-50681795D01*
X115275000Y-50534456D01*
X115510653Y-50420971D01*
X115760588Y-50343876D01*
X116019222Y-50304893D01*
X116280778Y-50304893D01*
X116539412Y-50343876D01*
G37*
G36*
X182139412Y-50343876D02*
G01*
X182389347Y-50420971D01*
X182625000Y-50534456D01*
X182841107Y-50681795D01*
X183032841Y-50859698D01*
X183195918Y-51064190D01*
X183326696Y-51290703D01*
X183422252Y-51534178D01*
X183480454Y-51789176D01*
X183500000Y-52050000D01*
X183480454Y-52310824D01*
X183422252Y-52565822D01*
X183326696Y-52809297D01*
X183195918Y-53035810D01*
X183032841Y-53240302D01*
X182841107Y-53418205D01*
X182625000Y-53565544D01*
X182389347Y-53679029D01*
X182139412Y-53756124D01*
X181880778Y-53795107D01*
X181619222Y-53795107D01*
X181360588Y-53756124D01*
X181110653Y-53679029D01*
X180875000Y-53565544D01*
X180658893Y-53418205D01*
X180467159Y-53240302D01*
X180304082Y-53035810D01*
X180173304Y-52809297D01*
X180077748Y-52565822D01*
X180019546Y-52310824D01*
X180000000Y-52050000D01*
X180019546Y-51789176D01*
X180077748Y-51534178D01*
X180173304Y-51290703D01*
X180304082Y-51064190D01*
X180467159Y-50859698D01*
X180658893Y-50681795D01*
X180875000Y-50534456D01*
X181110653Y-50420971D01*
X181360588Y-50343876D01*
X181619222Y-50304893D01*
X181880778Y-50304893D01*
X182139412Y-50343876D01*
G37*
G36*
X145469561Y-51407105D02*
G01*
X145630619Y-51463462D01*
X145775099Y-51554244D01*
X145895756Y-51674901D01*
X145986538Y-51819381D01*
X146042895Y-51980439D01*
X146062000Y-52150000D01*
X146042895Y-52319561D01*
X145986538Y-52480619D01*
X145895756Y-52625099D01*
X145775099Y-52745756D01*
X145630619Y-52836538D01*
X145469561Y-52892895D01*
X145300000Y-52912000D01*
X145130439Y-52892895D01*
X144969381Y-52836538D01*
X144824901Y-52745756D01*
X144704244Y-52625099D01*
X144613462Y-52480619D01*
X144557105Y-52319561D01*
X144538000Y-52150000D01*
X144557105Y-51980439D01*
X144613462Y-51819381D01*
X144704244Y-51674901D01*
X144824901Y-51554244D01*
X144969381Y-51463462D01*
X145130439Y-51407105D01*
X145300000Y-51388000D01*
X145469561Y-51407105D01*
G37*
G36*
X147969561Y-51407105D02*
G01*
X148130619Y-51463462D01*
X148275099Y-51554244D01*
X148395756Y-51674901D01*
X148486538Y-51819381D01*
X148542895Y-51980439D01*
X148562000Y-52150000D01*
X148542895Y-52319561D01*
X148486538Y-52480619D01*
X148395756Y-52625099D01*
X148275099Y-52745756D01*
X148130619Y-52836538D01*
X147969561Y-52892895D01*
X147800000Y-52912000D01*
X147630439Y-52892895D01*
X147469381Y-52836538D01*
X147324901Y-52745756D01*
X147204244Y-52625099D01*
X147113462Y-52480619D01*
X147057105Y-52319561D01*
X147038000Y-52150000D01*
X147057105Y-51980439D01*
X147113462Y-51819381D01*
X147204244Y-51674901D01*
X147324901Y-51554244D01*
X147469381Y-51463462D01*
X147630439Y-51407105D01*
X147800000Y-51388000D01*
X147969561Y-51407105D01*
G37*
G36*
X150469561Y-51407105D02*
G01*
X150630619Y-51463462D01*
X150775099Y-51554244D01*
X150895756Y-51674901D01*
X150986538Y-51819381D01*
X151042895Y-51980439D01*
X151062000Y-52150000D01*
X151042895Y-52319561D01*
X150986538Y-52480619D01*
X150895756Y-52625099D01*
X150775099Y-52745756D01*
X150630619Y-52836538D01*
X150469561Y-52892895D01*
X150300000Y-52912000D01*
X150130439Y-52892895D01*
X149969381Y-52836538D01*
X149824901Y-52745756D01*
X149704244Y-52625099D01*
X149613462Y-52480619D01*
X149557105Y-52319561D01*
X149538000Y-52150000D01*
X149557105Y-51980439D01*
X149613462Y-51819381D01*
X149704244Y-51674901D01*
X149824901Y-51554244D01*
X149969381Y-51463462D01*
X150130439Y-51407105D01*
X150300000Y-51388000D01*
X150469561Y-51407105D01*
G37*
G36*
X152969561Y-51407105D02*
G01*
X153130619Y-51463462D01*
X153275099Y-51554244D01*
X153395756Y-51674901D01*
X153486538Y-51819381D01*
X153542895Y-51980439D01*
X153562000Y-52150000D01*
X153542895Y-52319561D01*
X153486538Y-52480619D01*
X153395756Y-52625099D01*
X153275099Y-52745756D01*
X153130619Y-52836538D01*
X152969561Y-52892895D01*
X152800000Y-52912000D01*
X152630439Y-52892895D01*
X152469381Y-52836538D01*
X152324901Y-52745756D01*
X152204244Y-52625099D01*
X152113462Y-52480619D01*
X152057105Y-52319561D01*
X152038000Y-52150000D01*
X152057105Y-51980439D01*
X152113462Y-51819381D01*
X152204244Y-51674901D01*
X152324901Y-51554244D01*
X152469381Y-51463462D01*
X152630439Y-51407105D01*
X152800000Y-51388000D01*
X152969561Y-51407105D01*
G37*
G36*
X107135133Y-45954781D02*
G01*
X107223243Y-45954781D01*
X107317316Y-45965012D01*
X107408286Y-45970121D01*
X107486534Y-45983416D01*
X107567687Y-45992242D01*
X107666526Y-46013997D01*
X107762067Y-46030231D01*
X107832629Y-46050559D01*
X107906066Y-46066724D01*
X108008266Y-46101159D01*
X108106893Y-46129573D01*
X108169234Y-46155395D01*
X108234404Y-46177354D01*
X108338380Y-46225458D01*
X108438428Y-46266900D01*
X108492251Y-46296647D01*
X108548864Y-46322839D01*
X108652875Y-46385420D01*
X108752503Y-46440483D01*
X108797766Y-46472599D01*
X108845750Y-46501470D01*
X108947955Y-46579163D01*
X109045167Y-46648139D01*
X109082044Y-46681094D01*
X109121582Y-46711150D01*
X109220040Y-46804415D01*
X109312742Y-46887258D01*
X109341672Y-46919631D01*
X109373122Y-46949422D01*
X109465785Y-47058514D01*
X109551861Y-47154833D01*
X109573480Y-47185303D01*
X109597427Y-47213495D01*
X109682252Y-47338602D01*
X109759517Y-47447497D01*
X109774650Y-47474879D01*
X109791866Y-47500270D01*
X109866801Y-47641613D01*
X109933100Y-47761572D01*
X109942748Y-47784866D01*
X109954160Y-47806390D01*
X110017170Y-47964535D01*
X110070427Y-48093107D01*
X110075724Y-48111495D01*
X110082407Y-48128267D01*
X110131610Y-48305481D01*
X110169769Y-48437933D01*
X110171950Y-48450770D01*
X110175098Y-48462108D01*
X110208672Y-48666900D01*
X110229879Y-48791714D01*
X110230266Y-48798620D01*
X110231154Y-48804032D01*
X110247427Y-49104195D01*
X110250000Y-49150000D01*
X110247427Y-49195807D01*
X110231154Y-49495967D01*
X110230266Y-49501377D01*
X110229879Y-49508286D01*
X110208667Y-49633126D01*
X110175098Y-49837891D01*
X110171950Y-49849226D01*
X110169769Y-49862067D01*
X110131602Y-49994545D01*
X110082407Y-50171732D01*
X110075725Y-50188501D01*
X110070427Y-50206893D01*
X110017160Y-50335489D01*
X109954160Y-50493609D01*
X109942750Y-50515129D01*
X109933100Y-50538428D01*
X109866788Y-50658410D01*
X109791866Y-50799729D01*
X109774653Y-50825114D01*
X109759517Y-50852503D01*
X109682237Y-50961418D01*
X109597427Y-51086504D01*
X109573485Y-51114690D01*
X109551861Y-51145167D01*
X109465768Y-51241504D01*
X109373122Y-51350577D01*
X109341678Y-51380361D01*
X109312742Y-51412742D01*
X109220021Y-51495601D01*
X109121582Y-51588849D01*
X109082052Y-51618898D01*
X109045167Y-51651861D01*
X108947935Y-51720850D01*
X108845750Y-51798529D01*
X108797776Y-51827393D01*
X108752503Y-51859517D01*
X108652855Y-51914590D01*
X108548864Y-51977160D01*
X108492262Y-52003346D01*
X108438428Y-52033100D01*
X108338359Y-52074549D01*
X108234404Y-52122645D01*
X108169247Y-52144598D01*
X108106893Y-52170427D01*
X108008246Y-52198846D01*
X107906066Y-52233275D01*
X107832644Y-52249436D01*
X107762067Y-52269769D01*
X107666506Y-52286005D01*
X107567687Y-52307757D01*
X107486547Y-52316581D01*
X107408286Y-52329879D01*
X107317311Y-52334988D01*
X107223243Y-52345219D01*
X107135133Y-52345219D01*
X107050000Y-52350000D01*
X106964867Y-52345219D01*
X106876757Y-52345219D01*
X106782688Y-52334988D01*
X106691714Y-52329879D01*
X106613453Y-52316582D01*
X106532312Y-52307757D01*
X106433489Y-52286004D01*
X106337933Y-52269769D01*
X106267358Y-52249437D01*
X106193933Y-52233275D01*
X106091746Y-52198844D01*
X105993107Y-52170427D01*
X105930756Y-52144600D01*
X105865595Y-52122645D01*
X105761630Y-52074545D01*
X105661572Y-52033100D01*
X105607742Y-52003349D01*
X105551135Y-51977160D01*
X105447132Y-51914583D01*
X105347497Y-51859517D01*
X105302229Y-51827397D01*
X105254249Y-51798529D01*
X105152049Y-51720839D01*
X105054833Y-51651861D01*
X105017953Y-51618903D01*
X104978417Y-51588849D01*
X104879960Y-51495585D01*
X104787258Y-51412742D01*
X104758326Y-51380368D01*
X104726877Y-51350577D01*
X104634211Y-51241482D01*
X104548139Y-51145167D01*
X104526519Y-51114697D01*
X104502572Y-51086504D01*
X104417740Y-50961387D01*
X104340483Y-50852503D01*
X104325350Y-50825122D01*
X104308133Y-50799729D01*
X104233187Y-50658365D01*
X104166900Y-50538428D01*
X104157252Y-50515138D01*
X104145839Y-50493609D01*
X104082813Y-50335426D01*
X104029573Y-50206893D01*
X104024277Y-50188510D01*
X104017592Y-50171732D01*
X103968369Y-49994449D01*
X103930231Y-49862067D01*
X103928050Y-49849235D01*
X103924901Y-49837891D01*
X103891303Y-49632958D01*
X103870121Y-49508286D01*
X103869733Y-49501386D01*
X103868845Y-49495967D01*
X103852543Y-49195293D01*
X103850000Y-49150000D01*
X103852543Y-49104710D01*
X103868845Y-48804032D01*
X103869733Y-48798611D01*
X103870121Y-48791714D01*
X103891299Y-48667068D01*
X103924901Y-48462108D01*
X103928051Y-48450761D01*
X103930231Y-48437933D01*
X103968361Y-48305576D01*
X104017592Y-48128267D01*
X104024278Y-48111485D01*
X104029573Y-48093107D01*
X104082802Y-47964599D01*
X104145839Y-47806390D01*
X104157254Y-47784857D01*
X104166900Y-47761572D01*
X104233174Y-47641657D01*
X104308133Y-47500270D01*
X104325353Y-47474871D01*
X104340483Y-47447497D01*
X104417725Y-47338634D01*
X104502572Y-47213495D01*
X104526524Y-47185296D01*
X104548139Y-47154833D01*
X104634194Y-47058536D01*
X104726877Y-46949422D01*
X104758332Y-46919625D01*
X104787258Y-46887258D01*
X104879941Y-46804430D01*
X104978417Y-46711150D01*
X105017961Y-46681089D01*
X105054833Y-46648139D01*
X105152029Y-46579174D01*
X105254249Y-46501470D01*
X105302238Y-46472595D01*
X105347497Y-46440483D01*
X105447112Y-46385427D01*
X105551135Y-46322839D01*
X105607753Y-46296644D01*
X105661572Y-46266900D01*
X105761609Y-46225462D01*
X105865595Y-46177354D01*
X105930769Y-46155394D01*
X105993107Y-46129573D01*
X106091726Y-46101161D01*
X106193933Y-46066724D01*
X106267373Y-46050558D01*
X106337933Y-46030231D01*
X106433469Y-46013998D01*
X106532312Y-45992242D01*
X106613466Y-45983415D01*
X106691714Y-45970121D01*
X106782682Y-45965012D01*
X106876757Y-45954781D01*
X106964867Y-45954781D01*
X107050000Y-45950000D01*
X107135133Y-45954781D01*
G37*
G36*
X191135133Y-45954781D02*
G01*
X191223243Y-45954781D01*
X191317316Y-45965012D01*
X191408286Y-45970121D01*
X191486534Y-45983416D01*
X191567687Y-45992242D01*
X191666526Y-46013997D01*
X191762067Y-46030231D01*
X191832629Y-46050559D01*
X191906066Y-46066724D01*
X192008266Y-46101159D01*
X192106893Y-46129573D01*
X192169234Y-46155395D01*
X192234404Y-46177354D01*
X192338380Y-46225458D01*
X192438428Y-46266900D01*
X192492251Y-46296647D01*
X192548864Y-46322839D01*
X192652875Y-46385420D01*
X192752503Y-46440483D01*
X192797766Y-46472599D01*
X192845750Y-46501470D01*
X192947955Y-46579163D01*
X193045167Y-46648139D01*
X193082044Y-46681094D01*
X193121582Y-46711150D01*
X193220040Y-46804415D01*
X193312742Y-46887258D01*
X193341672Y-46919631D01*
X193373122Y-46949422D01*
X193465785Y-47058514D01*
X193551861Y-47154833D01*
X193573480Y-47185303D01*
X193597427Y-47213495D01*
X193682252Y-47338602D01*
X193759517Y-47447497D01*
X193774650Y-47474879D01*
X193791866Y-47500270D01*
X193866801Y-47641613D01*
X193933100Y-47761572D01*
X193942748Y-47784866D01*
X193954160Y-47806390D01*
X194017170Y-47964535D01*
X194070427Y-48093107D01*
X194075724Y-48111495D01*
X194082407Y-48128267D01*
X194131610Y-48305481D01*
X194169769Y-48437933D01*
X194171950Y-48450770D01*
X194175098Y-48462108D01*
X194208672Y-48666900D01*
X194229879Y-48791714D01*
X194230266Y-48798620D01*
X194231154Y-48804032D01*
X194247427Y-49104195D01*
X194250000Y-49150000D01*
X194247427Y-49195807D01*
X194231154Y-49495967D01*
X194230266Y-49501377D01*
X194229879Y-49508286D01*
X194208667Y-49633126D01*
X194175098Y-49837891D01*
X194171950Y-49849226D01*
X194169769Y-49862067D01*
X194131602Y-49994545D01*
X194082407Y-50171732D01*
X194075725Y-50188501D01*
X194070427Y-50206893D01*
X194017160Y-50335489D01*
X193954160Y-50493609D01*
X193942750Y-50515129D01*
X193933100Y-50538428D01*
X193866788Y-50658410D01*
X193791866Y-50799729D01*
X193774653Y-50825114D01*
X193759517Y-50852503D01*
X193682237Y-50961418D01*
X193597427Y-51086504D01*
X193573485Y-51114690D01*
X193551861Y-51145167D01*
X193465768Y-51241504D01*
X193373122Y-51350577D01*
X193341678Y-51380361D01*
X193312742Y-51412742D01*
X193220021Y-51495601D01*
X193121582Y-51588849D01*
X193082052Y-51618898D01*
X193045167Y-51651861D01*
X192947935Y-51720850D01*
X192845750Y-51798529D01*
X192797776Y-51827393D01*
X192752503Y-51859517D01*
X192652855Y-51914590D01*
X192548864Y-51977160D01*
X192492262Y-52003346D01*
X192438428Y-52033100D01*
X192338359Y-52074549D01*
X192234404Y-52122645D01*
X192169247Y-52144598D01*
X192106893Y-52170427D01*
X192008246Y-52198846D01*
X191906066Y-52233275D01*
X191832644Y-52249436D01*
X191762067Y-52269769D01*
X191666506Y-52286005D01*
X191567687Y-52307757D01*
X191486547Y-52316581D01*
X191408286Y-52329879D01*
X191317311Y-52334988D01*
X191223243Y-52345219D01*
X191135133Y-52345219D01*
X191050000Y-52350000D01*
X190964867Y-52345219D01*
X190876757Y-52345219D01*
X190782688Y-52334988D01*
X190691714Y-52329879D01*
X190613453Y-52316582D01*
X190532312Y-52307757D01*
X190433489Y-52286004D01*
X190337933Y-52269769D01*
X190267358Y-52249437D01*
X190193933Y-52233275D01*
X190091746Y-52198844D01*
X189993107Y-52170427D01*
X189930756Y-52144600D01*
X189865595Y-52122645D01*
X189761630Y-52074545D01*
X189661572Y-52033100D01*
X189607742Y-52003349D01*
X189551135Y-51977160D01*
X189447132Y-51914583D01*
X189347497Y-51859517D01*
X189302229Y-51827397D01*
X189254249Y-51798529D01*
X189152049Y-51720839D01*
X189054833Y-51651861D01*
X189017953Y-51618903D01*
X188978417Y-51588849D01*
X188879960Y-51495585D01*
X188787258Y-51412742D01*
X188758326Y-51380368D01*
X188726877Y-51350577D01*
X188634211Y-51241482D01*
X188548139Y-51145167D01*
X188526519Y-51114697D01*
X188502572Y-51086504D01*
X188417740Y-50961387D01*
X188340483Y-50852503D01*
X188325350Y-50825122D01*
X188308133Y-50799729D01*
X188233187Y-50658365D01*
X188166900Y-50538428D01*
X188157252Y-50515138D01*
X188145839Y-50493609D01*
X188082813Y-50335426D01*
X188029573Y-50206893D01*
X188024277Y-50188510D01*
X188017592Y-50171732D01*
X187968369Y-49994449D01*
X187930231Y-49862067D01*
X187928050Y-49849235D01*
X187924901Y-49837891D01*
X187891303Y-49632958D01*
X187870121Y-49508286D01*
X187869733Y-49501386D01*
X187868845Y-49495967D01*
X187852543Y-49195293D01*
X187850000Y-49150000D01*
X187852543Y-49104710D01*
X187868845Y-48804032D01*
X187869733Y-48798611D01*
X187870121Y-48791714D01*
X187891299Y-48667068D01*
X187924901Y-48462108D01*
X187928051Y-48450761D01*
X187930231Y-48437933D01*
X187968361Y-48305576D01*
X188017592Y-48128267D01*
X188024278Y-48111485D01*
X188029573Y-48093107D01*
X188082802Y-47964599D01*
X188145839Y-47806390D01*
X188157254Y-47784857D01*
X188166900Y-47761572D01*
X188233174Y-47641657D01*
X188308133Y-47500270D01*
X188325353Y-47474871D01*
X188340483Y-47447497D01*
X188417725Y-47338634D01*
X188502572Y-47213495D01*
X188526524Y-47185296D01*
X188548139Y-47154833D01*
X188634194Y-47058536D01*
X188726877Y-46949422D01*
X188758332Y-46919625D01*
X188787258Y-46887258D01*
X188879941Y-46804430D01*
X188978417Y-46711150D01*
X189017961Y-46681089D01*
X189054833Y-46648139D01*
X189152029Y-46579174D01*
X189254249Y-46501470D01*
X189302238Y-46472595D01*
X189347497Y-46440483D01*
X189447112Y-46385427D01*
X189551135Y-46322839D01*
X189607753Y-46296644D01*
X189661572Y-46266900D01*
X189761609Y-46225462D01*
X189865595Y-46177354D01*
X189930769Y-46155394D01*
X189993107Y-46129573D01*
X190091726Y-46101161D01*
X190193933Y-46066724D01*
X190267373Y-46050558D01*
X190337933Y-46030231D01*
X190433469Y-46013998D01*
X190532312Y-45992242D01*
X190613466Y-45983415D01*
X190691714Y-45970121D01*
X190782682Y-45965012D01*
X190876757Y-45954781D01*
X190964867Y-45954781D01*
X191050000Y-45950000D01*
X191135133Y-45954781D01*
G37*
M02*
